<svg width="192" height="189" xmlns="http://www.w3.org/2000/svg" xmlns:xlink="http://www.w3.org/1999/xlink" xml:space="preserve" overflow="hidden"><defs><clipPath id="clip0"><rect x="0" y="0" width="192" height="189"/></clipPath></defs><g clip-path="url(#clip0)"><path d="M0 0 749.59 0 749.59 421.644 0 421.644Z" fill="#FFFFFF" transform="matrix(1 0 0 1.00115 -463.989 -222.095)"/><path d="M0 0 749.59 0 749.59 210.822 0 210.822Z" transform="matrix(1 0 0 1.00115 -463.989 -222.095)"/><path d="M106.582 111.584 158.386 111.584 158.386 163.973 106.582 163.973Z" fill="#FFFFFF" transform="matrix(1 0 0 1.00115 -463.989 -222.095)"/><path d="M158.385 111.584 255.915 14.0548 255.915 66.4436 158.385 163.973Z" fill="#CDCDCD" fill-rule="evenodd" transform="matrix(1 0 0 1.00115 -463.989 -222.095)"/><path d="M106.582 111.584 204.112 14.0548 255.915 14.0548 158.385 111.584Z" fill="#FFFFFF" fill-rule="evenodd" transform="matrix(1 0 0 1.00115 -463.989 -222.095)"/><path d="M106.582 111.584 204.112 14.0548 255.915 14.0548 255.915 66.4436 158.385 163.973 106.582 163.973ZM106.582 111.584 158.385 111.584 255.915 14.0548M158.385 111.584 158.385 163.973" stroke="#000000" stroke-width="1.17123" stroke-miterlimit="8" fill="none" fill-rule="evenodd" transform="matrix(1 0 0 1.00115 -463.989 -222.095)"/><path d="M124.151 94.2844 176.243 94.2844" stroke="#000000" stroke-width="1.17123" stroke-miterlimit="8" fill="none" fill-rule="evenodd" transform="matrix(1 0 0 1.00115 -463.989 -222.095)"/><path d="M140.548 77.3015 192.641 77.3015" stroke="#000000" stroke-width="1.17123" stroke-miterlimit="8" fill="none" fill-rule="evenodd" transform="matrix(1 0 0 1.00115 -463.989 -222.095)"/><path d="M157.531 60.9042 209.623 60.9042" stroke="#000000" stroke-width="1.17123" stroke-miterlimit="8" fill="none" fill-rule="evenodd" transform="matrix(1 0 0 1.00115 -463.989 -222.095)"/><path d="M172.757 45.0925 224.85 45.0926" stroke="#000000" stroke-width="1.17123" stroke-miterlimit="8" fill="none" fill-rule="evenodd" transform="matrix(1 0 0 1.00115 -463.989 -222.095)"/><path d="M189.154 28.6952 241.247 28.6953" stroke="#000000" stroke-width="1.17123" stroke-miterlimit="8" fill="none" fill-rule="evenodd" transform="matrix(1 0 0 1.00115 -463.989 -222.095)"/><path d="M115.367 102.483 167.459 102.483" stroke="#000000" stroke-width="1.17123" stroke-miterlimit="8" fill="none" fill-rule="evenodd" transform="matrix(1 0 0 1.00115 -463.989 -222.095)"/><path d="M131.178 86.6713 183.271 86.6713" stroke="#000000" stroke-width="1.17123" stroke-miterlimit="8" fill="none" fill-rule="evenodd" transform="matrix(1 0 0 1.00115 -463.989 -222.095)"/><path d="M148.747 69.6885 200.839 69.6885" stroke="#000000" stroke-width="1.17123" stroke-miterlimit="8" fill="none" fill-rule="evenodd" transform="matrix(1 0 0 1.00115 -463.989 -222.095)"/><path d="M165.144 52.7056 217.236 52.7056" stroke="#000000" stroke-width="1.17123" stroke-miterlimit="8" fill="none" fill-rule="evenodd" transform="matrix(1 0 0 1.00115 -463.989 -222.095)"/><path d="M180.37 36.8939 232.463 36.8939" stroke="#000000" stroke-width="1.17123" stroke-miterlimit="8" fill="none" fill-rule="evenodd" transform="matrix(1 0 0 1.00115 -463.989 -222.095)"/><path d="M196.767 21.6678 248.86 21.6679" stroke="#000000" stroke-width="1.17123" stroke-miterlimit="8" fill="none" fill-rule="evenodd" transform="matrix(1 0 0 1.00115 -463.989 -222.095)"/><path d="M175.685 94.87 175.685 147.176" stroke="#000000" stroke-width="1.17123" stroke-miterlimit="8" fill="none" fill-rule="evenodd" transform="matrix(1 0 0 1.00115 -463.989 -222.095)"/><path d="M192.082 77.8871 192.082 130.193" stroke="#000000" stroke-width="1.17123" stroke-miterlimit="8" fill="none" fill-rule="evenodd" transform="matrix(1 0 0 1.00115 -463.989 -222.095)"/><path d="M209.065 60.9042 209.065 113.21" stroke="#000000" stroke-width="1.17123" stroke-miterlimit="8" fill="none" fill-rule="evenodd" transform="matrix(1 0 0 1.00115 -463.989 -222.095)"/><path d="M224.877 44.5069 224.877 96.8131" stroke="#000000" stroke-width="1.17123" stroke-miterlimit="8" fill="none" fill-rule="evenodd" transform="matrix(1 0 0 1.00115 -463.989 -222.095)"/><path d="M241.274 28.6952 241.274 81.0014" stroke="#000000" stroke-width="1.17123" stroke-miterlimit="8" fill="none" fill-rule="evenodd" transform="matrix(1 0 0 1.00115 -463.989 -222.095)"/><path d="M166.901 102.483 166.901 154.789" stroke="#000000" stroke-width="1.17123" stroke-miterlimit="8" fill="none" fill-rule="evenodd" transform="matrix(1 0 0 1.00115 -463.989 -222.095)"/><path d="M183.298 86.6713 183.298 138.978" stroke="#000000" stroke-width="1.17123" stroke-miterlimit="8" fill="none" fill-rule="evenodd" transform="matrix(1 0 0 1.00115 -463.989 -222.095)"/><path d="M200.281 70.2741 200.281 122.58" stroke="#000000" stroke-width="1.17123" stroke-miterlimit="8" fill="none" fill-rule="evenodd" transform="matrix(1 0 0 1.00115 -463.989 -222.095)"/><path d="M217.264 52.7055 217.264 105.012" stroke="#000000" stroke-width="1.17123" stroke-miterlimit="8" fill="none" fill-rule="evenodd" transform="matrix(1 0 0 1.00115 -463.989 -222.095)"/><path d="M232.49 36.8938 232.49 89.2" stroke="#000000" stroke-width="1.17123" stroke-miterlimit="8" fill="none" fill-rule="evenodd" transform="matrix(1 0 0 1.00115 -463.989 -222.095)"/><path d="M248.302 21.6678 248.302 73.974" stroke="#000000" stroke-width="1.17123" stroke-miterlimit="8" fill="none" fill-rule="evenodd" transform="matrix(1 0 0 1.00115 -463.989 -222.095)"/><path d="M123.565 111.853 123.565 164.146" stroke="#000000" stroke-width="1.17123" stroke-miterlimit="8" fill="none" fill-rule="evenodd" transform="matrix(1 0 0 1.00115 -463.989 -222.095)"/><path d="M140.548 111.853 140.548 164.146" stroke="#000000" stroke-width="1.17123" stroke-miterlimit="8" fill="none" fill-rule="evenodd" transform="matrix(1 0 0 1.00115 -463.989 -222.095)"/><path d="M158.076 130.593 105.997 130.593" stroke="#000000" stroke-width="1.17123" stroke-miterlimit="8" fill="none" fill-rule="evenodd" transform="matrix(1 0 0 1.00115 -463.989 -222.095)"/><path d="M158.076 147.576 105.997 147.576" stroke="#000000" stroke-width="1.17123" stroke-miterlimit="8" fill="none" fill-rule="evenodd" transform="matrix(1 0 0 1.00115 -463.989 -222.095)"/><path d="M0 0 97.7588 98.0833" stroke="#000000" stroke-width="1.17123" stroke-miterlimit="8" fill="none" fill-rule="evenodd" transform="matrix(1 0 0 -1.00115 -340.424 -109.828)"/><path d="M0 0 97.6171 97.7477" stroke="#000000" stroke-width="1.17123" stroke-miterlimit="8" fill="none" fill-rule="evenodd" transform="matrix(1 0 0 -1.00115 -323.441 -110.164)"/><path d="M0 0 97.4666 97.4988" stroke="#000000" stroke-width="1.17123" stroke-miterlimit="8" fill="none" fill-rule="evenodd" transform="matrix(1 0 0 -1.00115 -305.286 -91.6517)"/><path d="M0 0 97.6171 97.5955" stroke="#000000" stroke-width="1.17123" stroke-miterlimit="8" fill="none" fill-rule="evenodd" transform="matrix(1 0 0 -1.00115 -305.872 -73.9662)"/><text font-family="Cambria Math,Cambria Math_MSFontService,sans-serif" font-weight="400" font-size="16" transform="matrix(0.585617 0 0 0.586291 -353.368 -98)">𝑎</text><text font-family="Cambria Math,Cambria Math_MSFontService,sans-serif" font-weight="400" font-size="12" transform="matrix(0.585617 0 0 0.586291 -348.414 -96)">1</text><text font-family="Cambria Math,Cambria Math_MSFontService,sans-serif" font-weight="400" font-size="16" transform="matrix(0.585617 0 0 0.586291 -353.411 -80)">𝑎</text><text font-family="Cambria Math,Cambria Math_MSFontService,sans-serif" font-weight="400" font-size="12" transform="matrix(0.585617 0 0 0.586291 -348.238 -78)">2</text><text font-family="Cambria Math,Cambria Math_MSFontService,sans-serif" font-weight="400" font-size="16" transform="matrix(0.585617 0 0 0.586291 -353.178 -64)">𝑎</text><text font-family="Cambria Math,Cambria Math_MSFontService,sans-serif" font-weight="400" font-size="12" transform="matrix(0.585617 0 0 0.586291 -348.005 -62)">3</text><text font-family="Cambria Math,Cambria Math_MSFontService,sans-serif" font-weight="400" font-size="16" transform="matrix(0.585617 0 0 0.586291 -336.759 -80)">𝑎</text><text font-family="Cambria Math,Cambria Math_MSFontService,sans-serif" font-weight="400" font-size="12" transform="matrix(0.585617 0 0 0.586291 -331.587 -78)">5</text><text font-family="Cambria Math,Cambria Math_MSFontService,sans-serif" font-weight="400" font-size="16" transform="matrix(0.585617 0 0 0.586291 -336.526 -64)">𝑎</text><text font-family="Cambria Math,Cambria Math_MSFontService,sans-serif" font-weight="400" font-size="12" transform="matrix(0.585617 0 0 0.586291 -331.353 -62)">6</text><text font-family="Cambria Math,Cambria Math_MSFontService,sans-serif" font-weight="400" font-size="12" transform="matrix(0.585617 0 0 0.586291 -321.92 -81)">𝑎</text><text font-family="Cambria Math,Cambria Math_MSFontService,sans-serif" font-weight="400" font-size="9" transform="matrix(0.585617 0 0 0.586291 -318.015 -80)">𝐾</text><text font-family="Cambria Math,Cambria Math_MSFontService,sans-serif" font-weight="400" font-size="9" transform="matrix(0.585617 0 0 0.586291 -314.15 -80)">−</text><text font-family="Cambria Math,Cambria Math_MSFontService,sans-serif" font-weight="400" font-size="9" transform="matrix(0.585617 0 0 0.586291 -310.442 -80)">1</text><text font-family="Cambria Math,Cambria Math_MSFontService,sans-serif" font-weight="400" font-size="16" transform="matrix(0.585617 0 0 0.586291 -320.165 -64)">𝑎</text><text font-family="Cambria Math,Cambria Math_MSFontService,sans-serif" font-weight="400" font-size="12" transform="matrix(0.585617 0 0 0.586291 -314.992 -62)">𝐾</text><text font-family="Cambria Math,Cambria Math_MSFontService,sans-serif" font-weight="400" font-size="16" transform="matrix(0.585617 0 0 0.586291 -319.478 -98)">𝑎</text><text font-family="Cambria Math,Cambria Math_MSFontService,sans-serif" font-weight="400" font-size="12" transform="matrix(0.585617 0 0 0.586291 -314.305 -96)">𝑘</text><text font-family="Cambria Math,Cambria Math_MSFontService,sans-serif" font-weight="400" font-size="16" transform="matrix(0.585617 0 0 0.586291 -336.975 -98)">𝑎</text><text font-family="Cambria Math,Cambria Math_MSFontService,sans-serif" font-weight="400" font-size="12" transform="matrix(0.585617 0 0 0.586291 -331.801 -96)">4</text><path d="M255.747 67.6253C258.456 70.3479 259.259 73.9435 257.537 75.6565L215.391 117.61C213.669 119.322 214.472 122.918 217.181 125.641 214.472 122.918 210.88 122.099 209.159 123.812L167.012 165.765C165.291 167.478 161.699 166.66 158.99 163.937" stroke="#00B0F0" stroke-width="0.780821" stroke-miterlimit="8" fill="none" fill-rule="evenodd" transform="matrix(1 0 0 1.00115 -463.989 -222.095)"/><path d="M106.29 163.68C103.217 163.68 100.726 162.106 100.726 160.164L100.726 141.722C100.726 139.78 98.2355 138.206 95.1628 138.206 98.2355 138.206 100.726 136.632 100.726 134.69L100.726 116.247C100.726 114.305 103.217 112.731 106.29 112.731" stroke="#00B0F0" stroke-width="0.780821" stroke-miterlimit="8" fill="none" fill-rule="evenodd" transform="matrix(1 0 0 1.00115 -463.989 -222.095)"/><path d="M157.238 164.266C157.238 167.338 155.664 169.829 153.722 169.829L135.866 169.829C133.924 169.829 132.35 172.32 132.35 175.392 132.35 172.32 130.775 169.829 128.833 169.829L110.977 169.829C109.035 169.829 107.461 167.338 107.461 164.266" stroke="#00B0F0" stroke-width="0.780821" stroke-miterlimit="8" fill="none" fill-rule="evenodd" transform="matrix(1 0 0 1.00115 -463.989 -222.095)"/><text fill="#FFFFFF" font-family="Cambria Math,Cambria Math_MSFontService,sans-serif" font-weight="400" font-size="16" transform="matrix(0.585617 0 0 0.586291 -381.135 -83)">𝑁</text><text fill="#FFFFFF" font-family="Cambria Math,Cambria Math_MSFontService,sans-serif" font-weight="400" font-size="12" transform="matrix(0.585617 0 0 0.586291 -375.08 -81)">𝑟</text><text fill="#FFFFFF" font-family="Cambria Math,Cambria Math_MSFontService,sans-serif" font-weight="400" font-size="16" transform="matrix(0.585617 0 0 0.586291 -336.675 -38)">𝑁</text><text fill="#FFFFFF" font-family="Cambria Math,Cambria Math_MSFontService,sans-serif" font-weight="400" font-size="12" transform="matrix(0.585617 0 0 0.586291 -330.62 -36)">𝑐</text><text fill="#FFFFFF" font-family="Cambria Math,Cambria Math_MSFontService,sans-serif" font-weight="400" font-size="16" transform="matrix(0.585617 0 0 0.586291 -245.647 -88)">𝑁</text><text fill="#FFFFFF" font-family="Cambria Math,Cambria Math_MSFontService,sans-serif" font-weight="400" font-size="12" transform="matrix(0.585617 0 0 0.586291 -239.592 -86)">𝑠</text><path d="M534.669 67.5837 563.723 67.5837 563.723 189.74 534.669 189.74Z" fill="#FFFFFF" transform="matrix(1 0 0 1.00115 -463.989 -222.095)"/><path d="M563.723 67.5837 618.424 12.8836 618.424 135.04 563.723 189.74Z" fill="#CDCDCD" fill-rule="evenodd" transform="matrix(1 0 0 1.00115 -463.989 -222.095)"/><path d="M534.669 67.5837 589.371 12.8836 618.424 12.8836 563.723 67.5837Z" fill="#FFFFFF" fill-rule="evenodd" transform="matrix(1 0 0 1.00115 -463.989 -222.095)"/><path d="M534.669 67.5837 589.371 12.8836 618.424 12.8836 618.424 135.04 563.723 189.74 534.669 189.74ZM534.669 67.5837 563.723 67.5837 618.424 12.8836M563.723 67.5837 563.723 189.74" stroke="#000000" stroke-width="1.17123" stroke-miterlimit="8" fill="none" fill-rule="evenodd" transform="matrix(1 0 0 1.00115 -463.989 -222.095)"/><path d="M0 0 54.6976 54.7399" stroke="#000000" stroke-width="1.17123" stroke-miterlimit="8" fill="none" fill-rule="evenodd" transform="matrix(1 0 0 -1.00115 99.9606 -119.216)"/><path d="M0 0 54.6976 54.7399" stroke="#000000" stroke-width="1.17123" stroke-miterlimit="8" fill="none" fill-rule="evenodd" transform="matrix(1 0 0 -1.00115 99.9606 -136.219)"/><path d="M534.669 86.0857 563.728 86.0857" stroke="#000000" stroke-width="1.17123" stroke-miterlimit="8" fill="none" fill-rule="evenodd" transform="matrix(1 0 0 1.00115 -463.989 -222.095)"/><path d="M534.669 102.483 563.728 102.483" stroke="#000000" stroke-width="1.17123" stroke-miterlimit="8" fill="none" fill-rule="evenodd" transform="matrix(1 0 0 1.00115 -463.989 -222.095)"/><path d="M580.347 50.9487 580.347 172.683" stroke="#000000" stroke-width="1.17123" stroke-miterlimit="8" fill="none" fill-rule="evenodd" transform="matrix(1 0 0 1.00115 -463.989 -222.095)"/><path d="M572.148 59.733 572.148 181.468" stroke="#000000" stroke-width="1.17123" stroke-miterlimit="8" fill="none" fill-rule="evenodd" transform="matrix(1 0 0 1.00115 -463.989 -222.095)"/><path d="M596.158 35.137 596.158 156.872" stroke="#000000" stroke-width="1.17123" stroke-miterlimit="8" fill="none" fill-rule="evenodd" transform="matrix(1 0 0 1.00115 -463.989 -222.095)"/><path d="M588.545 43.3357 588.545 165.07" stroke="#000000" stroke-width="1.17123" stroke-miterlimit="8" fill="none" fill-rule="evenodd" transform="matrix(1 0 0 1.00115 -463.989 -222.095)"/><path d="M611.97 19.3254 611.97 142.167" stroke="#000000" stroke-width="1.17123" stroke-miterlimit="8" fill="none" fill-rule="evenodd" transform="matrix(1 0 0 1.00115 -463.989 -222.095)"/><path d="M603.771 27.524 603.771 149.259" stroke="#000000" stroke-width="1.17123" stroke-miterlimit="8" fill="none" fill-rule="evenodd" transform="matrix(1 0 0 1.00115 -463.989 -222.095)"/><path d="M0 0 29.5381 6.14822e-05" stroke="#000000" stroke-width="1.17123" stroke-miterlimit="8" fill="none" fill-rule="evenodd" transform="matrix(-1 0 0 1.00115 108.416 -162.293)"/><path d="M0 0 29.5381 6.14822e-05" stroke="#000000" stroke-width="1.17123" stroke-miterlimit="8" fill="none" fill-rule="evenodd" transform="matrix(-1 0 0 1.00115 116.615 -171.088)"/><path d="M0 0 29.5381 6.14822e-05" stroke="#000000" stroke-width="1.17123" stroke-miterlimit="8" fill="none" fill-rule="evenodd" transform="matrix(-1 0 0 1.00115 124.814 -178.709)"/><path d="M0 0 28.4622 6.14822e-05" stroke="#000000" stroke-width="1.17123" stroke-miterlimit="8" fill="none" fill-rule="evenodd" transform="matrix(-1 0 0 1.00115 132.521 -187.504)"/><path d="M0 0 29.5381 6.14822e-05" stroke="#000000" stroke-width="1.17123" stroke-miterlimit="8" fill="none" fill-rule="evenodd" transform="matrix(-1 0 0 1.00115 140.04 -194.539)"/><path d="M0 0 28.3668 6.14822e-05" stroke="#000000" stroke-width="1.17123" stroke-miterlimit="8" fill="none" fill-rule="evenodd" transform="matrix(-1 0 0 1.00115 147.653 -202.747)"/><path d="M0 0 54.6976 54.7399" stroke="#000000" stroke-width="1.17123" stroke-miterlimit="8" fill="none" fill-rule="evenodd" transform="matrix(1 0 0 -1.00115 100.546 -84.625)"/><path d="M0 0 54.6976 54.7399" stroke="#000000" stroke-width="1.17123" stroke-miterlimit="8" fill="none" fill-rule="evenodd" transform="matrix(1 0 0 -1.00115 100.546 -101.627)"/><path d="M535.254 120.052 564.314 120.052" stroke="#000000" stroke-width="1.17123" stroke-miterlimit="8" fill="none" fill-rule="evenodd" transform="matrix(1 0 0 1.00115 -463.989 -222.095)"/><path d="M535.254 137.034 564.314 137.034" stroke="#000000" stroke-width="1.17123" stroke-miterlimit="8" fill="none" fill-rule="evenodd" transform="matrix(1 0 0 1.00115 -463.989 -222.095)"/><path d="M0 0 54.6976 54.7399" stroke="#000000" stroke-width="1.17123" stroke-miterlimit="8" fill="none" fill-rule="evenodd" transform="matrix(1 0 0 -1.00115 99.375 -67.0363)"/><path d="M534.669 154.603 563.728 154.603" stroke="#000000" stroke-width="1.17123" stroke-miterlimit="8" fill="none" fill-rule="evenodd" transform="matrix(1 0 0 1.00115 -463.989 -222.095)"/><path d="M0 0 54.6976 54.7399" stroke="#000000" stroke-width="1.17123" stroke-miterlimit="8" fill="none" fill-rule="evenodd" transform="matrix(1 0 0 -1.00115 99.9606 -50.0338)"/><path d="M534.669 172.171 563.728 172.171" stroke="#000000" stroke-width="1.17123" stroke-miterlimit="8" fill="none" fill-rule="evenodd" transform="matrix(1 0 0 1.00115 -463.989 -222.095)"/><text font-family="Cambria Math,Cambria Math_MSFontService,sans-serif" font-weight="400" font-size="19" transform="matrix(0.585617 0 0 0.586291 79.6257 -141)">𝑎</text><text font-family="Cambria Math,Cambria Math_MSFontService,sans-serif" font-weight="400" font-size="14" transform="matrix(0.585617 0 0 0.586291 85.4239 -139)">1</text><text font-family="Cambria Math,Cambria Math_MSFontService,sans-serif" font-weight="400" font-size="19" transform="matrix(0.585617 0 0 0.586291 79.2034 -125)">𝑎</text><text font-family="Cambria Math,Cambria Math_MSFontService,sans-serif" font-weight="400" font-size="14" transform="matrix(0.585617 0 0 0.586291 85.2546 -123)">2</text><text font-family="Cambria Math,Cambria Math_MSFontService,sans-serif" font-weight="400" font-size="19" transform="matrix(0.585617 0 0 0.586291 79.4494 -108)">𝑎</text><text font-family="Cambria Math,Cambria Math_MSFontService,sans-serif" font-weight="400" font-size="14" transform="matrix(0.585617 0 0 0.586291 85.5006 -105)">3</text><text font-family="Cambria Math,Cambria Math_MSFontService,sans-serif" font-weight="400" font-size="19" transform="matrix(0.585617 0 0 0.586291 79.6995 -91)">𝑎</text><text font-family="Cambria Math,Cambria Math_MSFontService,sans-serif" font-weight="400" font-size="14" transform="matrix(0.585617 0 0 0.586291 85.7512 -89)">4</text><text font-family="Cambria Math,Cambria Math_MSFontService,sans-serif" font-weight="400" font-size="19" transform="matrix(0.585617 0 0 0.586291 83.6143 -73)">⋮</text><text font-family="Cambria Math,Cambria Math_MSFontService,sans-serif" font-weight="400" font-size="19" transform="matrix(0.585617 0 0 0.586291 74.3375 -56)">𝑎</text><text font-family="Cambria Math,Cambria Math_MSFontService,sans-serif" font-weight="400" font-size="14" transform="matrix(0.585617 0 0 0.586291 80.3893 -54)">𝐾</text><text font-family="Cambria Math,Cambria Math_MSFontService,sans-serif" font-weight="400" font-size="14" transform="matrix(0.585617 0 0 0.586291 86.3895 -54)">−</text><text font-family="Cambria Math,Cambria Math_MSFontService,sans-serif" font-weight="400" font-size="14" transform="matrix(0.585617 0 0 0.586291 92.1485 -54)">1</text><text font-family="Cambria Math,Cambria Math_MSFontService,sans-serif" font-weight="400" font-size="19" transform="matrix(0.585617 0 0 0.586291 79.6649 -39)">𝑎</text><text font-family="Cambria Math,Cambria Math_MSFontService,sans-serif" font-weight="400" font-size="14" transform="matrix(0.585617 0 0 0.586291 85.7161 -37)">𝐾</text><path d="M535.547 189.447C532.96 189.447 530.862 188.121 530.862 186.486L530.862 131.797C530.862 130.162 528.764 128.836 526.177 128.836 528.764 128.836 530.862 127.51 530.862 125.875L530.862 71.1853C530.862 69.5502 532.96 68.2244 535.547 68.2244" stroke="#00B0F0" stroke-width="0.780821" stroke-miterlimit="8" fill="none" fill-rule="evenodd" transform="matrix(1 0 0 1.00115 -463.989 -222.095)"/><text fill="#FFFFFF" font-family="Cambria Math,Cambria Math_MSFontService,sans-serif" font-weight="400" font-size="16" transform="matrix(0.585617 0 0 0.586291 30.589 -91)">𝑁</text><text fill="#FFFFFF" font-family="Cambria Math,Cambria Math_MSFontService,sans-serif" font-weight="400" font-size="12" transform="matrix(0.585617 0 0 0.586291 36.6443 -89)">𝑟</text><text fill="#FFFFFF" font-family="Cambria Math,Cambria Math_MSFontService,sans-serif" font-weight="400" font-size="16" transform="matrix(0.585617 0 0 0.586291 42.9455 -91)">∗</text><text fill="#FFFFFF" font-family="Cambria Math,Cambria Math_MSFontService,sans-serif" font-weight="400" font-size="16" transform="matrix(0.585617 0 0 0.586291 49.5162 -91)">𝑁</text><text fill="#FFFFFF" font-family="Cambria Math,Cambria Math_MSFontService,sans-serif" font-weight="400" font-size="12" transform="matrix(0.585617 0 0 0.586291 55.5714 -89)">𝑐</text><path d="M618.213 136.02C620.924 138.743 621.726 142.338 620.005 144.051L599.332 164.626C597.611 166.339 598.413 169.934 601.124 172.657 598.413 169.934 594.823 169.116 593.101 170.829L572.432 191.404C570.711 193.117 567.119 192.299 564.409 189.576" stroke="#00B0F0" stroke-width="0.780821" stroke-miterlimit="8" fill="none" fill-rule="evenodd" transform="matrix(1 0 0 1.00115 -463.989 -222.095)"/><text fill="#FFFFFF" font-family="Cambria Math,Cambria Math_MSFontService,sans-serif" font-weight="400" font-size="16" transform="matrix(0.585617 0 0 0.586291 137.797 -44)">𝑁</text><text fill="#FFFFFF" font-family="Cambria Math,Cambria Math_MSFontService,sans-serif" font-weight="400" font-size="12" transform="matrix(0.585617 0 0 0.586291 143.853 -43)">𝑠</text><path d="M0 210.822 749.59 210.822 749.59 421.644 0 421.644Z" transform="matrix(1 0 0 1.00115 -463.989 -222.095)"/><path d="M124.151 275.267 153.405 275.267 153.405 397.634 124.151 397.634Z" fill="#FFFFFF" transform="matrix(1 0 0 1.00115 -463.989 -222.095)"/><path d="M153.405 275.267 208.48 220.192 208.48 342.559 153.405 397.634Z" fill="#CDCDCD" fill-rule="evenodd" transform="matrix(1 0 0 1.00115 -463.989 -222.095)"/><path d="M124.151 275.267 179.226 220.192 208.48 220.192 153.405 275.267Z" fill="#FFFFFF" fill-rule="evenodd" transform="matrix(1 0 0 1.00115 -463.989 -222.095)"/><path d="M124.151 275.267 179.226 220.192 208.48 220.192 208.48 342.559 153.405 397.634 124.151 397.634ZM124.151 275.267 153.405 275.267 208.48 220.192M153.405 275.267 153.405 397.634" stroke="#000000" stroke-width="1.17123" stroke-miterlimit="8" fill="none" fill-rule="evenodd" transform="matrix(1 0 0 1.00115 -463.989 -222.095)"/><path d="M0 0 54.6976 54.7399" stroke="#000000" stroke-width="1.17123" stroke-miterlimit="8" fill="none" fill-rule="evenodd" transform="matrix(1 0 0 -1.00115 -310.557 88.9171)"/><path d="M0 0 54.6976 54.7399" stroke="#000000" stroke-width="1.17123" stroke-miterlimit="8" fill="none" fill-rule="evenodd" transform="matrix(1 0 0 -1.00115 -310.557 71.9147)"/><path d="M124.151 293.394 153.21 293.394" stroke="#000000" stroke-width="1.17123" stroke-miterlimit="8" fill="none" fill-rule="evenodd" transform="matrix(1 0 0 1.00115 -463.989 -222.095)"/><path d="M124.151 310.377 153.21 310.377" stroke="#000000" stroke-width="1.17123" stroke-miterlimit="8" fill="none" fill-rule="evenodd" transform="matrix(1 0 0 1.00115 -463.989 -222.095)"/><path d="M169.829 258.843 169.829 380.577" stroke="#000000" stroke-width="1.17123" stroke-miterlimit="8" fill="none" fill-rule="evenodd" transform="matrix(1 0 0 1.00115 -463.989 -222.095)"/><path d="M161.63 267.041 161.63 388.776" stroke="#000000" stroke-width="1.17123" stroke-miterlimit="8" fill="none" fill-rule="evenodd" transform="matrix(1 0 0 1.00115 -463.989 -222.095)"/><path d="M185.641 243.031 185.641 364.766" stroke="#000000" stroke-width="1.17123" stroke-miterlimit="8" fill="none" fill-rule="evenodd" transform="matrix(1 0 0 1.00115 -463.989 -222.095)"/><path d="M178.028 251.23 178.028 372.964" stroke="#000000" stroke-width="1.17123" stroke-miterlimit="8" fill="none" fill-rule="evenodd" transform="matrix(1 0 0 1.00115 -463.989 -222.095)"/><path d="M201.452 226.634 201.452 349.475" stroke="#000000" stroke-width="1.17123" stroke-miterlimit="8" fill="none" fill-rule="evenodd" transform="matrix(1 0 0 1.00115 -463.989 -222.095)"/><path d="M193.254 235.418 193.254 357.153" stroke="#000000" stroke-width="1.17123" stroke-miterlimit="8" fill="none" fill-rule="evenodd" transform="matrix(1 0 0 1.00115 -463.989 -222.095)"/><path d="M0 0 29.5381 6.14822e-05" stroke="#000000" stroke-width="1.17123" stroke-miterlimit="8" fill="none" fill-rule="evenodd" transform="matrix(-1 0 0 1.00115 -302.101 45.2537)"/><path d="M0 0 29.5381 6.14822e-05" stroke="#000000" stroke-width="1.17123" stroke-miterlimit="8" fill="none" fill-rule="evenodd" transform="matrix(-1 0 0 1.00115 -293.903 37.0456)"/><path d="M0 0 29.5381 6.14822e-05" stroke="#000000" stroke-width="1.17123" stroke-miterlimit="8" fill="none" fill-rule="evenodd" transform="matrix(-1 0 0 1.00115 -285.704 29.4238)"/><path d="M0 0 28.4622 6.14822e-05" stroke="#000000" stroke-width="1.17123" stroke-miterlimit="8" fill="none" fill-rule="evenodd" transform="matrix(-1 0 0 1.00115 -277.996 20.6295)"/><path d="M0 0 29.5381 6.14822e-05" stroke="#000000" stroke-width="1.17123" stroke-miterlimit="8" fill="none" fill-rule="evenodd" transform="matrix(-1 0 0 1.00115 -270.478 13.594)"/><path d="M0 0 28.3668 6.14822e-05" stroke="#000000" stroke-width="1.17123" stroke-miterlimit="8" fill="none" fill-rule="evenodd" transform="matrix(-1 0 0 1.00115 -262.865 5.3859)"/><path d="M0 0 54.6976 54.7399" stroke="#000000" stroke-width="1.17123" stroke-miterlimit="8" fill="none" fill-rule="evenodd" transform="matrix(1 0 0 -1.00115 -309.971 123.508)"/><path d="M0 0 54.6976 54.7399" stroke="#000000" stroke-width="1.17123" stroke-miterlimit="8" fill="none" fill-rule="evenodd" transform="matrix(1 0 0 -1.00115 -309.971 105.92)"/><path d="M124.736 327.946 153.796 327.946" stroke="#000000" stroke-width="1.17123" stroke-miterlimit="8" fill="none" fill-rule="evenodd" transform="matrix(1 0 0 1.00115 -463.989 -222.095)"/><path d="M124.736 344.929 153.796 344.929" stroke="#000000" stroke-width="1.17123" stroke-miterlimit="8" fill="none" fill-rule="evenodd" transform="matrix(1 0 0 1.00115 -463.989 -222.095)"/><path d="M0 0 54.6976 54.7399" stroke="#000000" stroke-width="1.17123" stroke-miterlimit="8" fill="none" fill-rule="evenodd" transform="matrix(1 0 0 -1.00115 -311.143 141.097)"/><path d="M124.151 362.497 153.21 362.497" stroke="#000000" stroke-width="1.17123" stroke-miterlimit="8" fill="none" fill-rule="evenodd" transform="matrix(1 0 0 1.00115 -463.989 -222.095)"/><path d="M0 0 54.6976 54.7399" stroke="#000000" stroke-width="1.17123" stroke-miterlimit="8" fill="none" fill-rule="evenodd" transform="matrix(1 0 0 -1.00115 -310.557 158.099)"/><path d="M124.151 380.066 153.21 380.066" stroke="#000000" stroke-width="1.17123" stroke-miterlimit="8" fill="none" fill-rule="evenodd" transform="matrix(1 0 0 1.00115 -463.989 -222.095)"/><text font-family="Cambria Math,Cambria Math_MSFontService,sans-serif" font-weight="400" font-size="19" transform="matrix(0.585617 0 0 0.586291 -330.866 66)">𝑎</text><text font-family="Cambria Math,Cambria Math_MSFontService,sans-serif" font-weight="400" font-size="14" transform="matrix(0.585617 0 0 0.586291 -325.069 69)">1</text><text font-family="Cambria Math,Cambria Math_MSFontService,sans-serif" font-weight="400" font-size="19" transform="matrix(0.585617 0 0 0.586291 -331.288 82)">𝑎</text><text font-family="Cambria Math,Cambria Math_MSFontService,sans-serif" font-weight="400" font-size="14" transform="matrix(0.585617 0 0 0.586291 -325.237 85)">2</text><text font-family="Cambria Math,Cambria Math_MSFontService,sans-serif" font-weight="400" font-size="19" transform="matrix(0.585617 0 0 0.586291 -331.043 100)">𝑎</text><text font-family="Cambria Math,Cambria Math_MSFontService,sans-serif" font-weight="400" font-size="14" transform="matrix(0.585617 0 0 0.586291 -324.991 103)">3</text><text font-family="Cambria Math,Cambria Math_MSFontService,sans-serif" font-weight="400" font-size="19" transform="matrix(0.585617 0 0 0.586291 -330.792 117)">𝑎</text><text font-family="Cambria Math,Cambria Math_MSFontService,sans-serif" font-weight="400" font-size="14" transform="matrix(0.585617 0 0 0.586291 -324.741 119)">5</text><text font-family="Cambria Math,Cambria Math_MSFontService,sans-serif" font-weight="400" font-size="19" transform="matrix(0.585617 0 0 0.586291 -326.878 136)">⋮</text><text font-family="Cambria Math,Cambria Math_MSFontService,sans-serif" font-weight="400" font-size="19" transform="matrix(0.585617 0 0 0.586291 -336.154 152)">𝑎</text><text font-family="Cambria Math,Cambria Math_MSFontService,sans-serif" font-weight="400" font-size="14" transform="matrix(0.585617 0 0 0.586291 -330.103 154)">𝐾</text><text font-family="Cambria Math,Cambria Math_MSFontService,sans-serif" font-weight="400" font-size="14" transform="matrix(0.585617 0 0 0.586291 -324.102 154)">−</text><text font-family="Cambria Math,Cambria Math_MSFontService,sans-serif" font-weight="400" font-size="14" transform="matrix(0.585617 0 0 0.586291 -318.344 154)">1</text><text font-family="Cambria Math,Cambria Math_MSFontService,sans-serif" font-weight="400" font-size="19" transform="matrix(0.585617 0 0 0.586291 -330.827 169)">𝑎</text><text font-family="Cambria Math,Cambria Math_MSFontService,sans-serif" font-weight="400" font-size="14" transform="matrix(0.585617 0 0 0.586291 -324.776 171)">𝐾</text><path d="M125.029 396.756C122.442 396.756 120.344 395.43 120.344 393.795L120.344 339.398C120.344 337.763 118.247 336.437 115.659 336.437 118.247 336.437 120.344 335.111 120.344 333.476L120.344 279.079C120.344 277.444 122.442 276.119 125.029 276.119" stroke="#00B0F0" stroke-width="0.780821" stroke-miterlimit="8" fill="none" fill-rule="evenodd" transform="matrix(1 0 0 1.00115 -463.989 -222.095)"/><text fill="#FFFFFF" font-family="Cambria Math,Cambria Math_MSFontService,sans-serif" font-weight="400" font-size="16" transform="matrix(0.585617 0 0 0.586291 -398.315 112)">𝑁</text><text fill="#FFFFFF" font-family="Cambria Math,Cambria Math_MSFontService,sans-serif" font-weight="400" font-size="12" transform="matrix(0.585617 0 0 0.586291 -392.26 113)">𝑟</text><path d="M106.773 326.039C107.663 326.274 108.347 326.781 108.825 327.561 109.302 328.34 109.54 329.28 109.54 330.382 109.54 331.486 109.303 332.426 108.827 333.202 108.351 333.978 107.666 334.484 106.773 334.719L106.663 334.366C107.367 334.132 107.891 333.668 108.234 332.976 108.578 332.283 108.749 331.403 108.749 330.336 108.749 329.305 108.578 328.449 108.237 327.767 107.895 327.085 107.366 326.627 106.649 326.392ZM79.5403 326.039 79.6639 326.392C78.95 326.627 78.4218 327.085 78.0786 327.767 77.7354 328.449 77.5638 329.305 77.5638 330.336 77.5638 331.403 77.7354 332.283 78.0786 332.976 78.4218 333.668 78.9453 334.132 79.6504 334.366L79.5403 334.719C78.6466 334.484 77.9621 333.978 77.4859 333.202 77.0104 332.426 76.7721 331.486 76.7721 330.382 76.7721 329.28 77.011 328.34 77.4883 327.561 77.9656 326.781 78.6496 326.274 79.5403 326.039Z" fill="#FFFFFF" fill-rule="evenodd" transform="matrix(1 0 0 1.00115 -463.989 -222.095)"/><text fill="#FFFFFF" font-family="Cambria Math,Cambria Math_MSFontService,sans-serif" font-weight="400" font-size="16" transform="matrix(0.585617 0 0 0.586291 -384.152 112)">𝑁</text><text fill="#FFFFFF" font-family="Cambria Math,Cambria Math_MSFontService,sans-serif" font-weight="400" font-size="12" transform="matrix(0.585617 0 0 0.586291 -378.096 113)">𝑟</text><text fill="#FFFFFF" font-family="Cambria Math,Cambria Math_MSFontService,sans-serif" font-weight="400" font-size="16" transform="matrix(0.585617 0 0 0.586291 -371.795 112)">+</text><text fill="#FFFFFF" font-family="Cambria Math,Cambria Math_MSFontService,sans-serif" font-weight="400" font-size="16" transform="matrix(0.585617 0 0 0.586291 -362.686 112)">1</text><text fill="#FFFFFF" font-family="Cambria Math,Cambria Math_MSFontService,sans-serif" font-weight="400" font-size="16" transform="matrix(0.585617 0 0 0.586291 -378.557 125)">2</text><path d="M65.6694 337.219 76.7961 337.219 87.9228 337.219 99.0495 337.219 110.176 337.219 110.176 337.805 99.0495 337.805 87.9228 337.805 76.7961 337.805 65.6694 337.805Z" fill="#FFFFFF" fill-rule="evenodd" transform="matrix(1 0 0 1.00115 -463.989 -222.095)"/><path d="M207.72 343.692C210.43 346.414 211.232 350.01 209.512 351.723L188.841 372.298C187.121 374.011 187.922 377.606 190.632 380.329 187.922 377.606 184.331 376.788 182.61 378.5L161.94 399.076C160.219 400.789 156.627 399.97 153.917 397.248" stroke="#00B0F0" stroke-width="0.780821" stroke-miterlimit="8" fill="none" fill-rule="evenodd" transform="matrix(1 0 0 1.00115 -463.989 -222.095)"/><text fill="#FFFFFF" font-family="Cambria Math,Cambria Math_MSFontService,sans-serif" font-weight="400" font-size="16" transform="matrix(0.585617 0 0 0.586291 -272.692 163)">𝑁</text><text fill="#FFFFFF" font-family="Cambria Math,Cambria Math_MSFontService,sans-serif" font-weight="400" font-size="12" transform="matrix(0.585617 0 0 0.586291 -266.637 165)">𝑠</text><path d="M495.432 329.816 547.439 329.816 547.439 382.408 495.432 382.408Z" fill="#FFFFFF" transform="matrix(1 0 0 1.00115 -463.989 -222.095)"/><path d="M547.439 329.816 645.35 231.904 645.35 284.496 547.439 382.408Z" fill="#CDCDCD" fill-rule="evenodd" transform="matrix(1 0 0 1.00115 -463.989 -222.095)"/><path d="M495.432 329.816 593.342 231.904 645.35 231.904 547.439 329.816Z" fill="#FFFFFF" fill-rule="evenodd" transform="matrix(1 0 0 1.00115 -463.989 -222.095)"/><path d="M495.432 329.816 593.342 231.904 645.35 231.904 645.35 284.496 547.439 382.408 495.432 382.408ZM495.432 329.816 547.439 329.816 645.35 231.904M547.439 329.816 547.439 382.408" stroke="#000000" stroke-width="1.17123" stroke-miterlimit="8" fill="none" fill-rule="evenodd" transform="matrix(1 0 0 1.00115 -463.989 -222.095)"/><path d="M513.001 348.442 529.398 348.442 529.398 381.822 513.001 381.822Z" fill="#83CBEB" transform="matrix(1 0 0 1.00115 -463.989 -222.095)"/><path d="M513.001 312.134 565.093 312.134" stroke="#000000" stroke-width="1.17123" stroke-miterlimit="8" fill="none" fill-rule="evenodd" transform="matrix(1 0 0 1.00115 -463.989 -222.095)"/><path d="M529.984 295.737 582.076 295.737" stroke="#000000" stroke-width="1.17123" stroke-miterlimit="8" fill="none" fill-rule="evenodd" transform="matrix(1 0 0 1.00115 -463.989 -222.095)"/><path d="M546.381 278.754 598.472 278.754" stroke="#000000" stroke-width="1.17123" stroke-miterlimit="8" fill="none" fill-rule="evenodd" transform="matrix(1 0 0 1.00115 -463.989 -222.095)"/><path d="M562.193 263.528 614.283 263.528" stroke="#000000" stroke-width="1.17123" stroke-miterlimit="8" fill="none" fill-rule="evenodd" transform="matrix(1 0 0 1.00115 -463.989 -222.095)"/><path d="M578.004 246.545 630.095 246.545" stroke="#000000" stroke-width="1.17123" stroke-miterlimit="8" fill="none" fill-rule="evenodd" transform="matrix(1 0 0 1.00115 -463.989 -222.095)"/><path d="M504.802 320.918 556.894 320.918" stroke="#000000" stroke-width="1.17123" stroke-miterlimit="8" fill="none" fill-rule="evenodd" transform="matrix(1 0 0 1.00115 -463.989 -222.095)"/><path d="M520.614 304.521 572.706 304.521" stroke="#000000" stroke-width="1.17123" stroke-miterlimit="8" fill="none" fill-rule="evenodd" transform="matrix(1 0 0 1.00115 -463.989 -222.095)"/><path d="M537.597 287.538 589.687 287.538" stroke="#000000" stroke-width="1.17123" stroke-miterlimit="8" fill="none" fill-rule="evenodd" transform="matrix(1 0 0 1.00115 -463.989 -222.095)"/><path d="M554.58 270.555 606.67 270.555" stroke="#000000" stroke-width="1.17123" stroke-miterlimit="8" fill="none" fill-rule="evenodd" transform="matrix(1 0 0 1.00115 -463.989 -222.095)"/><path d="M569.806 255.329 621.896 255.329" stroke="#000000" stroke-width="1.17123" stroke-miterlimit="8" fill="none" fill-rule="evenodd" transform="matrix(1 0 0 1.00115 -463.989 -222.095)"/><path d="M585.617 239.517 637.708 239.517" stroke="#000000" stroke-width="1.17123" stroke-miterlimit="8" fill="none" fill-rule="evenodd" transform="matrix(1 0 0 1.00115 -463.989 -222.095)"/><path d="M565.121 312.72 565.121 365.026" stroke="#000000" stroke-width="1.17123" stroke-miterlimit="8" fill="none" fill-rule="evenodd" transform="matrix(1 0 0 1.00115 -463.989 -222.095)"/><path d="M581.518 295.737 581.518 348.043" stroke="#000000" stroke-width="1.17123" stroke-miterlimit="8" fill="none" fill-rule="evenodd" transform="matrix(1 0 0 1.00115 -463.989 -222.095)"/><path d="M598.501 278.754 598.501 331.06" stroke="#000000" stroke-width="1.17123" stroke-miterlimit="8" fill="none" fill-rule="evenodd" transform="matrix(1 0 0 1.00115 -463.989 -222.095)"/><path d="M614.312 262.942 614.312 315.248" stroke="#000000" stroke-width="1.17123" stroke-miterlimit="8" fill="none" fill-rule="evenodd" transform="matrix(1 0 0 1.00115 -463.989 -222.095)"/><path d="M630.124 246.545 630.124 298.851" stroke="#000000" stroke-width="1.17123" stroke-miterlimit="8" fill="none" fill-rule="evenodd" transform="matrix(1 0 0 1.00115 -463.989 -222.095)"/><path d="M556.336 320.918 556.336 373.224" stroke="#000000" stroke-width="1.17123" stroke-miterlimit="8" fill="none" fill-rule="evenodd" transform="matrix(1 0 0 1.00115 -463.989 -222.095)"/><path d="M572.734 305.107 572.734 357.413" stroke="#000000" stroke-width="1.17123" stroke-miterlimit="8" fill="none" fill-rule="evenodd" transform="matrix(1 0 0 1.00115 -463.989 -222.095)"/><path d="M589.131 288.124 589.131 340.43" stroke="#000000" stroke-width="1.17123" stroke-miterlimit="8" fill="none" fill-rule="evenodd" transform="matrix(1 0 0 1.00115 -463.989 -222.095)"/><path d="M606.114 271.141 606.114 323.447" stroke="#000000" stroke-width="1.17123" stroke-miterlimit="8" fill="none" fill-rule="evenodd" transform="matrix(1 0 0 1.00115 -463.989 -222.095)"/><path d="M621.926 255.329 621.926 307.635" stroke="#000000" stroke-width="1.17123" stroke-miterlimit="8" fill="none" fill-rule="evenodd" transform="matrix(1 0 0 1.00115 -463.989 -222.095)"/><path d="M637.152 239.517 637.152 291.824" stroke="#000000" stroke-width="1.17123" stroke-miterlimit="8" fill="none" fill-rule="evenodd" transform="matrix(1 0 0 1.00115 -463.989 -222.095)"/><path d="M0 0 97.7588 98.0833" stroke="#000000" stroke-width="1.17123" stroke-miterlimit="8" fill="none" fill-rule="evenodd" transform="matrix(1 0 0 -1.00115 48.4263 108.272)"/><path d="M0 0 97.6171 97.7477" stroke="#000000" stroke-width="1.17123" stroke-miterlimit="8" fill="none" fill-rule="evenodd" transform="matrix(1 0 0 -1.00115 65.9949 107.936)"/><path d="M0 0 97.4666 97.4988" stroke="#000000" stroke-width="1.17123" stroke-miterlimit="8" fill="none" fill-rule="evenodd" transform="matrix(1 0 0 -1.00115 83.5634 126.449)"/><path d="M0 0 97.6171 97.5955" stroke="#000000" stroke-width="1.17123" stroke-miterlimit="8" fill="none" fill-rule="evenodd" transform="matrix(1 0 0 -1.00115 83.5634 144.134)"/><path d="M496.018 330.288 512.415 330.288 512.415 381.822 496.018 381.822Z" fill="#83CBEB" transform="matrix(1 0 0 1.00115 -463.989 -222.095)"/><text font-family="Cambria Math,Cambria Math_MSFontService,sans-serif" font-weight="400" font-size="16" transform="matrix(0.585617 0 0 0.586291 35.8221 138)">𝑎</text><text font-family="Cambria Math,Cambria Math_MSFontService,sans-serif" font-weight="400" font-size="12" transform="matrix(0.585617 0 0 0.586291 40.9948 140)">2</text><text font-family="Cambria Math,Cambria Math_MSFontService,sans-serif" font-weight="400" font-size="16" transform="matrix(0.585617 0 0 0.586291 36.0552 154)">𝑎</text><text font-family="Cambria Math,Cambria Math_MSFontService,sans-serif" font-weight="400" font-size="12" transform="matrix(0.585617 0 0 0.586291 41.2279 157)">3</text><text font-family="Cambria Math,Cambria Math_MSFontService,sans-serif" font-weight="400" font-size="16" transform="matrix(0.585617 0 0 0.586291 52.4735 138)">𝑎</text><text font-family="Cambria Math,Cambria Math_MSFontService,sans-serif" font-weight="400" font-size="12" transform="matrix(0.585617 0 0 0.586291 57.6463 140)">5</text><text font-family="Cambria Math,Cambria Math_MSFontService,sans-serif" font-weight="400" font-size="16" transform="matrix(0.585617 0 0 0.586291 52.7066 154)">𝑎</text><text font-family="Cambria Math,Cambria Math_MSFontService,sans-serif" font-weight="400" font-size="12" transform="matrix(0.585617 0 0 0.586291 57.8794 157)">6</text><path d="M529.984 365.425 546.966 365.425 546.966 381.822 529.984 381.822Z" fill="#83CBEB" transform="matrix(1 0 0 1.00115 -463.989 -222.095)"/><text font-family="Cambria Math,Cambria Math_MSFontService,sans-serif" font-weight="400" font-size="16" transform="matrix(0.585617 0 0 0.586291 69.0676 154)">𝑎</text><text font-family="Cambria Math,Cambria Math_MSFontService,sans-serif" font-weight="400" font-size="12" transform="matrix(0.585617 0 0 0.586291 74.2409 157)">𝐾</text><text font-family="Cambria Math,Cambria Math_MSFontService,sans-serif" font-weight="400" font-size="16" transform="matrix(0.585617 0 0 0.586291 35.8648 120)">𝑎</text><text font-family="Cambria Math,Cambria Math_MSFontService,sans-serif" font-weight="400" font-size="12" transform="matrix(0.585617 0 0 0.586291 40.8192 123)">1</text><path d="M547.512 348.442 495.432 348.442" stroke="#000000" stroke-width="1.17123" stroke-miterlimit="8" fill="none" fill-rule="evenodd" transform="matrix(1 0 0 1.00115 -463.989 -222.095)"/><path d="M513.001 329.703 513.001 381.996" stroke="#000000" stroke-width="1.17123" stroke-miterlimit="8" fill="none" fill-rule="evenodd" transform="matrix(1 0 0 1.00115 -463.989 -222.095)"/><path d="M547.512 365.425 495.432 365.425" stroke="#000000" stroke-width="1.17123" stroke-miterlimit="8" fill="none" fill-rule="evenodd" transform="matrix(1 0 0 1.00115 -463.989 -222.095)"/><path d="M529.398 329.703 529.398 381.996" stroke="#000000" stroke-width="1.17123" stroke-miterlimit="8" fill="none" fill-rule="evenodd" transform="matrix(1 0 0 1.00115 -463.989 -222.095)"/><path d="M645.62 285.382C648.331 288.104 649.133 291.7 647.412 293.413L604.943 335.686C603.221 337.398 604.023 340.994 606.735 343.716 604.023 340.994 600.433 340.175 598.712 341.888L556.245 384.161C554.524 385.874 550.932 385.055 548.223 382.332" stroke="#00B0F0" stroke-width="0.780821" stroke-miterlimit="8" fill="none" fill-rule="evenodd" transform="matrix(1 0 0 1.00115 -463.989 -222.095)"/><path d="M495.139 381.53C491.905 381.53 489.283 379.872 489.283 377.829L489.283 359.756C489.283 357.713 486.661 356.055 483.427 356.055 486.661 356.055 489.283 354.398 489.283 352.354L489.283 334.282C489.283 332.238 491.905 330.581 495.139 330.581" stroke="#00B0F0" stroke-width="0.780821" stroke-miterlimit="8" fill="none" fill-rule="evenodd" transform="matrix(1 0 0 1.00115 -463.989 -222.095)"/><path d="M547.845 382.701C547.845 385.774 546.271 388.264 544.329 388.264L525.008 388.264C523.066 388.264 521.492 390.755 521.492 393.828 521.492 390.755 519.918 388.264 517.976 388.264L498.655 388.264C496.714 388.264 495.139 385.774 495.139 382.701" stroke="#00B0F0" stroke-width="0.780821" stroke-miterlimit="8" fill="none" fill-rule="evenodd" transform="matrix(1 0 0 1.00115 -463.989 -222.095)"/><text fill="#FFFFFF" font-family="Cambria Math,Cambria Math_MSFontService,sans-serif" font-weight="400" font-size="16" transform="matrix(0.585617 0 0 0.586291 7.6703 135)">𝑁</text><text fill="#FFFFFF" font-family="Cambria Math,Cambria Math_MSFontService,sans-serif" font-weight="400" font-size="12" transform="matrix(0.585617 0 0 0.586291 13.7256 137)">𝑟</text><text fill="#FFFFFF" font-family="Cambria Math,Cambria Math_MSFontService,sans-serif" font-weight="400" font-size="16" transform="matrix(0.585617 0 0 0.586291 52.1309 180)">𝑁</text><text fill="#FFFFFF" font-family="Cambria Math,Cambria Math_MSFontService,sans-serif" font-weight="400" font-size="12" transform="matrix(0.585617 0 0 0.586291 58.1862 181)">𝑐</text><text fill="#FFFFFF" font-family="Cambria Math,Cambria Math_MSFontService,sans-serif" font-weight="400" font-size="16" transform="matrix(0.585617 0 0 0.586291 143.156 129)">𝑁</text><text fill="#FFFFFF" font-family="Cambria Math,Cambria Math_MSFontService,sans-serif" font-weight="400" font-size="12" transform="matrix(0.585617 0 0 0.586291 149.211 131)">𝑠</text></g></svg>