<svg width="154" height="189" xmlns="http://www.w3.org/2000/svg" xmlns:xlink="http://www.w3.org/1999/xlink" xml:space="preserve" overflow="hidden"><defs><clipPath id="clip0"><rect x="0" y="0" width="154" height="189"/></clipPath></defs><g clip-path="url(#clip0)"><path d="M0 0 702.503 0 702.503 395.158 0 395.158Z" fill="#FFFFFF" transform="matrix(1.0003 0 0 1 -52.9988 -196.903)"/><path d="M0 0 702.503 0 702.503 197.579 0 197.579Z" transform="matrix(1.0003 0 0 1 -52.9988 -196.903)"/><path d="M99.8871 104.575 148.436 104.575 148.436 153.673 99.8871 153.673Z" fill="#FFFFFF" transform="matrix(1.0003 0 0 1 -52.9988 -196.903)"/><path d="M148.436 104.575 239.839 13.1719 239.839 62.2697 148.436 153.672Z" fill="#CDCDCD" fill-rule="evenodd" transform="matrix(1.0003 0 0 1 -52.9988 -196.903)"/><path d="M99.8871 104.575 191.29 13.1719 239.839 13.1719 148.436 104.575Z" fill="#FFFFFF" fill-rule="evenodd" transform="matrix(1.0003 0 0 1 -52.9988 -196.903)"/><path d="M99.8871 104.575 191.29 13.1719 239.839 13.1719 239.839 62.2697 148.436 153.672 99.8871 153.672ZM99.8871 104.575 148.436 104.575 239.839 13.1719M148.436 104.575 148.436 153.672" stroke="#000000" stroke-width="1.09766" stroke-miterlimit="8" fill="none" fill-rule="evenodd" transform="matrix(1.0003 0 0 1 -52.9988 -196.903)"/><path d="M116.352 88.3617 165.172 88.3617" stroke="#000000" stroke-width="1.09766" stroke-miterlimit="8" fill="none" fill-rule="evenodd" transform="matrix(1.0003 0 0 1 -52.9988 -196.903)"/><path d="M131.719 72.4456 180.539 72.4456" stroke="#000000" stroke-width="1.09766" stroke-miterlimit="8" fill="none" fill-rule="evenodd" transform="matrix(1.0003 0 0 1 -52.9988 -196.903)"/><path d="M147.635 57.0783 196.455 57.0783" stroke="#000000" stroke-width="1.09766" stroke-miterlimit="8" fill="none" fill-rule="evenodd" transform="matrix(1.0003 0 0 1 -52.9988 -196.903)"/><path d="M161.905 42.2599 210.725 42.26" stroke="#000000" stroke-width="1.09766" stroke-miterlimit="8" fill="none" fill-rule="evenodd" transform="matrix(1.0003 0 0 1 -52.9988 -196.903)"/><path d="M177.272 26.8927 226.092 26.8927" stroke="#000000" stroke-width="1.09766" stroke-miterlimit="8" fill="none" fill-rule="evenodd" transform="matrix(1.0003 0 0 1 -52.9988 -196.903)"/><path d="M108.12 96.0453 156.94 96.0453" stroke="#000000" stroke-width="1.09766" stroke-miterlimit="8" fill="none" fill-rule="evenodd" transform="matrix(1.0003 0 0 1 -52.9988 -196.903)"/><path d="M122.938 81.2269 171.758 81.2269" stroke="#000000" stroke-width="1.09766" stroke-miterlimit="8" fill="none" fill-rule="evenodd" transform="matrix(1.0003 0 0 1 -52.9988 -196.903)"/><path d="M139.403 65.3108 188.223 65.3108" stroke="#000000" stroke-width="1.09766" stroke-miterlimit="8" fill="none" fill-rule="evenodd" transform="matrix(1.0003 0 0 1 -52.9988 -196.903)"/><path d="M154.77 49.3947 203.59 49.3948" stroke="#000000" stroke-width="1.09766" stroke-miterlimit="8" fill="none" fill-rule="evenodd" transform="matrix(1.0003 0 0 1 -52.9988 -196.903)"/><path d="M169.04 34.5763 217.86 34.5764" stroke="#000000" stroke-width="1.09766" stroke-miterlimit="8" fill="none" fill-rule="evenodd" transform="matrix(1.0003 0 0 1 -52.9988 -196.903)"/><path d="M184.407 20.3067 233.227 20.3068" stroke="#000000" stroke-width="1.09766" stroke-miterlimit="8" fill="none" fill-rule="evenodd" transform="matrix(1.0003 0 0 1 -52.9988 -196.903)"/><path d="M164.649 88.9105 164.649 137.931" stroke="#000000" stroke-width="1.09766" stroke-miterlimit="8" fill="none" fill-rule="evenodd" transform="matrix(1.0003 0 0 1 -52.9988 -196.903)"/><path d="M180.016 72.9944 180.016 122.015" stroke="#000000" stroke-width="1.09766" stroke-miterlimit="8" fill="none" fill-rule="evenodd" transform="matrix(1.0003 0 0 1 -52.9988 -196.903)"/><path d="M195.932 57.0783 195.932 106.099" stroke="#000000" stroke-width="1.09766" stroke-miterlimit="8" fill="none" fill-rule="evenodd" transform="matrix(1.0003 0 0 1 -52.9988 -196.903)"/><path d="M210.751 41.711 210.751 90.7315" stroke="#000000" stroke-width="1.09766" stroke-miterlimit="8" fill="none" fill-rule="evenodd" transform="matrix(1.0003 0 0 1 -52.9988 -196.903)"/><path d="M226.118 26.8926 226.118 75.9131" stroke="#000000" stroke-width="1.09766" stroke-miterlimit="8" fill="none" fill-rule="evenodd" transform="matrix(1.0003 0 0 1 -52.9988 -196.903)"/><path d="M156.417 96.0453 156.417 145.066" stroke="#000000" stroke-width="1.09766" stroke-miterlimit="8" fill="none" fill-rule="evenodd" transform="matrix(1.0003 0 0 1 -52.9988 -196.903)"/><path d="M171.784 81.2269 171.784 130.247" stroke="#000000" stroke-width="1.09766" stroke-miterlimit="8" fill="none" fill-rule="evenodd" transform="matrix(1.0003 0 0 1 -52.9988 -196.903)"/><path d="M187.7 65.8596 187.7 114.88" stroke="#000000" stroke-width="1.09766" stroke-miterlimit="8" fill="none" fill-rule="evenodd" transform="matrix(1.0003 0 0 1 -52.9988 -196.903)"/><path d="M203.616 49.3947 203.616 98.4151" stroke="#000000" stroke-width="1.09766" stroke-miterlimit="8" fill="none" fill-rule="evenodd" transform="matrix(1.0003 0 0 1 -52.9988 -196.903)"/><path d="M217.886 34.5762 217.886 83.5967" stroke="#000000" stroke-width="1.09766" stroke-miterlimit="8" fill="none" fill-rule="evenodd" transform="matrix(1.0003 0 0 1 -52.9988 -196.903)"/><path d="M232.704 20.3067 232.704 69.3271" stroke="#000000" stroke-width="1.09766" stroke-miterlimit="8" fill="none" fill-rule="evenodd" transform="matrix(1.0003 0 0 1 -52.9988 -196.903)"/><path d="M115.803 104.827 115.803 153.835" stroke="#000000" stroke-width="1.09766" stroke-miterlimit="8" fill="none" fill-rule="evenodd" transform="matrix(1.0003 0 0 1 -52.9988 -196.903)"/><path d="M131.719 104.827 131.719 153.835" stroke="#000000" stroke-width="1.09766" stroke-miterlimit="8" fill="none" fill-rule="evenodd" transform="matrix(1.0003 0 0 1 -52.9988 -196.903)"/><path d="M148.146 122.389 99.3383 122.389" stroke="#000000" stroke-width="1.09766" stroke-miterlimit="8" fill="none" fill-rule="evenodd" transform="matrix(1.0003 0 0 1 -52.9988 -196.903)"/><path d="M148.146 138.305 99.3383 138.305" stroke="#000000" stroke-width="1.09766" stroke-miterlimit="8" fill="none" fill-rule="evenodd" transform="matrix(1.0003 0 0 1 -52.9988 -196.903)"/><path d="M0 0 91.6179 91.9219" stroke="#000000" stroke-width="1.09766" stroke-miterlimit="8" fill="none" fill-rule="evenodd" transform="matrix(1.0003 0 0 -1 62.8394 -91.8093)"/><path d="M0 0 91.4851 91.6074" stroke="#000000" stroke-width="1.09766" stroke-miterlimit="8" fill="none" fill-rule="evenodd" transform="matrix(1.0003 0 0 -1 78.7603 -92.1238)"/><path d="M0 0 91.344 91.3742" stroke="#000000" stroke-width="1.09766" stroke-miterlimit="8" fill="none" fill-rule="evenodd" transform="matrix(1.0003 0 0 -1 95.7792 -74.7945)"/><path d="M0 0 91.4851 91.4648" stroke="#000000" stroke-width="1.09766" stroke-miterlimit="8" fill="none" fill-rule="evenodd" transform="matrix(1.0003 0 0 -1 95.2302 -58.239)"/><text font-family="Cambria Math,Cambria Math_MSFontService,sans-serif" font-weight="400" font-size="16" transform="matrix(0.548996 0 0 0.54883 50.7044 -81)">𝑎</text><text font-family="Cambria Math,Cambria Math_MSFontService,sans-serif" font-weight="400" font-size="12" transform="matrix(0.548996 0 0 0.54883 55.3489 -79)">1</text><text font-family="Cambria Math,Cambria Math_MSFontService,sans-serif" font-weight="400" font-size="16" transform="matrix(0.548996 0 0 0.54883 50.6643 -64)">𝑎</text><text font-family="Cambria Math,Cambria Math_MSFontService,sans-serif" font-weight="400" font-size="12" transform="matrix(0.548996 0 0 0.54883 55.5136 -62)">2</text><text font-family="Cambria Math,Cambria Math_MSFontService,sans-serif" font-weight="400" font-size="16" transform="matrix(0.548996 0 0 0.54883 50.8828 -49)">𝑎</text><text font-family="Cambria Math,Cambria Math_MSFontService,sans-serif" font-weight="400" font-size="12" transform="matrix(0.548996 0 0 0.54883 55.7321 -47)">3</text><text font-family="Cambria Math,Cambria Math_MSFontService,sans-serif" font-weight="400" font-size="16" transform="matrix(0.548996 0 0 0.54883 66.2745 -64)">𝑎</text><text font-family="Cambria Math,Cambria Math_MSFontService,sans-serif" font-weight="400" font-size="12" transform="matrix(0.548996 0 0 0.54883 71.1238 -62)">5</text><text font-family="Cambria Math,Cambria Math_MSFontService,sans-serif" font-weight="400" font-size="16" transform="matrix(0.548996 0 0 0.54883 66.493 -49)">𝑎</text><text font-family="Cambria Math,Cambria Math_MSFontService,sans-serif" font-weight="400" font-size="12" transform="matrix(0.548996 0 0 0.54883 71.3423 -47)">6</text><text font-family="Cambria Math,Cambria Math_MSFontService,sans-serif" font-weight="400" font-size="12" transform="matrix(0.548996 0 0 0.54883 80.186 -65)">𝑎</text><text font-family="Cambria Math,Cambria Math_MSFontService,sans-serif" font-weight="400" font-size="9" transform="matrix(0.548996 0 0 0.54883 83.8462 -64)">𝐾</text><text font-family="Cambria Math,Cambria Math_MSFontService,sans-serif" font-weight="400" font-size="9" transform="matrix(0.548996 0 0 0.54883 87.4696 -64)">−</text><text font-family="Cambria Math,Cambria Math_MSFontService,sans-serif" font-weight="400" font-size="9" transform="matrix(0.548996 0 0 0.54883 90.9464 -64)">1</text><text font-family="Cambria Math,Cambria Math_MSFontService,sans-serif" font-weight="400" font-size="16" transform="matrix(0.548996 0 0 0.54883 81.8314 -49)">𝑎</text><text font-family="Cambria Math,Cambria Math_MSFontService,sans-serif" font-weight="400" font-size="12" transform="matrix(0.548996 0 0 0.54883 86.6807 -47)">𝐾</text><text font-family="Cambria Math,Cambria Math_MSFontService,sans-serif" font-weight="400" font-size="16" transform="matrix(0.548996 0 0 0.54883 82.4754 -81)">𝑎</text><text font-family="Cambria Math,Cambria Math_MSFontService,sans-serif" font-weight="400" font-size="12" transform="matrix(0.548996 0 0 0.54883 87.3246 -79)">𝑘</text><text font-family="Cambria Math,Cambria Math_MSFontService,sans-serif" font-weight="400" font-size="16" transform="matrix(0.548996 0 0 0.54883 66.0724 -81)">𝑎</text><text font-family="Cambria Math,Cambria Math_MSFontService,sans-serif" font-weight="400" font-size="12" transform="matrix(0.548996 0 0 0.54883 70.9223 -79)">4</text><path d="M239.681 63.3773C242.221 65.9288 242.973 69.2986 241.36 70.9039L201.86 110.222C200.247 111.827 200.999 115.197 203.539 117.748 200.999 115.197 197.633 114.429 196.02 116.035L156.521 155.352C154.908 156.958 151.542 156.191 149.002 153.639" stroke="#00B0F0" stroke-width="0.731772" stroke-miterlimit="8" fill="none" fill-rule="evenodd" transform="matrix(1.0003 0 0 1 -52.9988 -196.903)"/><path d="M99.6127 153.398C96.733 153.398 94.3988 151.923 94.3988 150.103L94.3988 132.819C94.3988 130.999 92.0646 129.524 89.1849 129.524 92.0646 129.524 94.3988 128.049 94.3988 126.229L94.3988 108.945C94.3988 107.125 96.733 105.65 99.6127 105.65" stroke="#00B0F0" stroke-width="0.731772" stroke-miterlimit="8" fill="none" fill-rule="evenodd" transform="matrix(1.0003 0 0 1 -52.9988 -196.903)"/><path d="M147.361 153.947C147.361 156.827 145.886 159.161 144.066 159.161L127.331 159.161C125.511 159.161 124.036 161.495 124.036 164.375 124.036 161.495 122.56 159.161 120.74 159.161L104.006 159.161C102.186 159.161 100.71 156.827 100.71 153.947" stroke="#00B0F0" stroke-width="0.731772" stroke-miterlimit="8" fill="none" fill-rule="evenodd" transform="matrix(1.0003 0 0 1 -52.9988 -196.903)"/><text fill="#FFFFFF" font-family="Cambria Math,Cambria Math_MSFontService,sans-serif" font-weight="400" font-size="16" transform="matrix(0.548996 0 0 0.54883 24.6738 -66)">𝑁</text><text fill="#FFFFFF" font-family="Cambria Math,Cambria Math_MSFontService,sans-serif" font-weight="400" font-size="12" transform="matrix(0.548996 0 0 0.54883 30.3504 -65)">𝑟</text><text fill="#FFFFFF" font-family="Cambria Math,Cambria Math_MSFontService,sans-serif" font-weight="400" font-size="16" transform="matrix(0.548996 0 0 0.54883 66.3535 -25)">𝑁</text><text fill="#FFFFFF" font-family="Cambria Math,Cambria Math_MSFontService,sans-serif" font-weight="400" font-size="12" transform="matrix(0.548996 0 0 0.54883 72.0302 -23)">𝑐</text><text fill="#FFFFFF" font-family="Cambria Math,Cambria Math_MSFontService,sans-serif" font-weight="400" font-size="16" transform="matrix(0.548996 0 0 0.54883 151.689 -72)">𝑁</text><text fill="#FFFFFF" font-family="Cambria Math,Cambria Math_MSFontService,sans-serif" font-weight="400" font-size="12" transform="matrix(0.548996 0 0 0.54883 157.366 -70)">𝑠</text><path d="M501.082 63.3383 528.311 63.3383 528.311 177.821 501.082 177.821Z" fill="#FFFFFF" transform="matrix(1.0003 0 0 1 -52.9988 -196.903)"/><path d="M528.311 63.3383 579.576 12.0743 579.576 126.557 528.311 177.821Z" fill="#CDCDCD" fill-rule="evenodd" transform="matrix(1.0003 0 0 1 -52.9988 -196.903)"/><path d="M501.082 63.3383 552.348 12.0743 579.576 12.0743 528.311 63.3383Z" fill="#FFFFFF" fill-rule="evenodd" transform="matrix(1.0003 0 0 1 -52.9988 -196.903)"/><path d="M501.082 63.3383 552.348 12.0743 579.576 12.0743 579.576 126.557 528.311 177.821 501.082 177.821ZM501.082 63.3383 528.311 63.3383 579.576 12.0743M528.311 63.3383 528.311 177.821" stroke="#000000" stroke-width="1.09766" stroke-miterlimit="8" fill="none" fill-rule="evenodd" transform="matrix(1.0003 0 0 1 -52.9988 -196.903)"/><path d="M0 0 51.2617 51.3012" stroke="#000000" stroke-width="1.09766" stroke-miterlimit="8" fill="none" fill-rule="evenodd" transform="matrix(1.0003 0 0 -1 475.685 -100.598)"/><path d="M0 0 51.2617 51.3012" stroke="#000000" stroke-width="1.09766" stroke-miterlimit="8" fill="none" fill-rule="evenodd" transform="matrix(1.0003 0 0 -1 475.685 -116.514)"/><path d="M501.082 80.678 528.316 80.678" stroke="#000000" stroke-width="1.09766" stroke-miterlimit="8" fill="none" fill-rule="evenodd" transform="matrix(1.0003 0 0 1 -52.9988 -196.903)"/><path d="M501.082 96.0453 528.316 96.0453" stroke="#000000" stroke-width="1.09766" stroke-miterlimit="8" fill="none" fill-rule="evenodd" transform="matrix(1.0003 0 0 1 -52.9988 -196.903)"/><path d="M543.891 47.7482 543.891 161.836" stroke="#000000" stroke-width="1.09766" stroke-miterlimit="8" fill="none" fill-rule="evenodd" transform="matrix(1.0003 0 0 1 -52.9988 -196.903)"/><path d="M536.207 55.9807 536.207 170.068" stroke="#000000" stroke-width="1.09766" stroke-miterlimit="8" fill="none" fill-rule="evenodd" transform="matrix(1.0003 0 0 1 -52.9988 -196.903)"/><path d="M558.709 32.9298 558.709 147.017" stroke="#000000" stroke-width="1.09766" stroke-miterlimit="8" fill="none" fill-rule="evenodd" transform="matrix(1.0003 0 0 1 -52.9988 -196.903)"/><path d="M551.574 40.6134 551.574 154.701" stroke="#000000" stroke-width="1.09766" stroke-miterlimit="8" fill="none" fill-rule="evenodd" transform="matrix(1.0003 0 0 1 -52.9988 -196.903)"/><path d="M573.528 18.1114 573.528 133.236" stroke="#000000" stroke-width="1.09766" stroke-miterlimit="8" fill="none" fill-rule="evenodd" transform="matrix(1.0003 0 0 1 -52.9988 -196.903)"/><path d="M565.844 25.795 565.844 139.883" stroke="#000000" stroke-width="1.09766" stroke-miterlimit="8" fill="none" fill-rule="evenodd" transform="matrix(1.0003 0 0 1 -52.9988 -196.903)"/><path d="M0 0 27.6826 5.762e-05" stroke="#000000" stroke-width="1.09766" stroke-miterlimit="8" fill="none" fill-rule="evenodd" transform="matrix(-1.0003 0 0 1 483.611 -140.922)"/><path d="M0 0 27.6826 5.762e-05" stroke="#000000" stroke-width="1.09766" stroke-miterlimit="8" fill="none" fill-rule="evenodd" transform="matrix(-1.0003 0 0 1 491.297 -149.155)"/><path d="M0 0 27.6826 5.762e-05" stroke="#000000" stroke-width="1.09766" stroke-miterlimit="8" fill="none" fill-rule="evenodd" transform="matrix(-1.0003 0 0 1 498.984 -156.29)"/><path d="M0 0 26.6743 5.762e-05" stroke="#000000" stroke-width="1.09766" stroke-miterlimit="8" fill="none" fill-rule="evenodd" transform="matrix(-1.0003 0 0 1 506.209 -164.522)"/><path d="M0 0 27.6826 5.762e-05" stroke="#000000" stroke-width="1.09766" stroke-miterlimit="8" fill="none" fill-rule="evenodd" transform="matrix(-1.0003 0 0 1 513.258 -171.108)"/><path d="M0 0 26.5849 5.762e-05" stroke="#000000" stroke-width="1.09766" stroke-miterlimit="8" fill="none" fill-rule="evenodd" transform="matrix(-1.0003 0 0 1 520.395 -178.792)"/><path d="M0 0 51.2617 51.3012" stroke="#000000" stroke-width="1.09766" stroke-miterlimit="8" fill="none" fill-rule="evenodd" transform="matrix(1.0003 0 0 -1 476.233 -68.2167)"/><path d="M0 0 51.2617 51.3012" stroke="#000000" stroke-width="1.09766" stroke-miterlimit="8" fill="none" fill-rule="evenodd" transform="matrix(1.0003 0 0 -1 476.233 -84.1328)"/><path d="M501.631 112.51 528.865 112.51" stroke="#000000" stroke-width="1.09766" stroke-miterlimit="8" fill="none" fill-rule="evenodd" transform="matrix(1.0003 0 0 1 -52.9988 -196.903)"/><path d="M501.631 128.426 528.865 128.426" stroke="#000000" stroke-width="1.09766" stroke-miterlimit="8" fill="none" fill-rule="evenodd" transform="matrix(1.0003 0 0 1 -52.9988 -196.903)"/><path d="M0 0 51.2617 51.3012" stroke="#000000" stroke-width="1.09766" stroke-miterlimit="8" fill="none" fill-rule="evenodd" transform="matrix(1.0003 0 0 -1 475.135 -51.7518)"/><path d="M501.082 144.891 528.316 144.891" stroke="#000000" stroke-width="1.09766" stroke-miterlimit="8" fill="none" fill-rule="evenodd" transform="matrix(1.0003 0 0 1 -52.9988 -196.903)"/><path d="M0 0 51.2617 51.3012" stroke="#000000" stroke-width="1.09766" stroke-miterlimit="8" fill="none" fill-rule="evenodd" transform="matrix(1.0003 0 0 -1 475.685 -35.8358)"/><path d="M501.082 161.356 528.316 161.356" stroke="#000000" stroke-width="1.09766" stroke-miterlimit="8" fill="none" fill-rule="evenodd" transform="matrix(1.0003 0 0 1 -52.9988 -196.903)"/><text font-family="Cambria Math,Cambria Math_MSFontService,sans-serif" font-weight="400" font-size="19" transform="matrix(0.548996 0 0 0.54883 456.621 -121)">𝑎</text><text font-family="Cambria Math,Cambria Math_MSFontService,sans-serif" font-weight="400" font-size="14" transform="matrix(0.548996 0 0 0.54883 462.057 -119)">1</text><text font-family="Cambria Math,Cambria Math_MSFontService,sans-serif" font-weight="400" font-size="19" transform="matrix(0.548996 0 0 0.54883 456.225 -106)">𝑎</text><text font-family="Cambria Math,Cambria Math_MSFontService,sans-serif" font-weight="400" font-size="14" transform="matrix(0.548996 0 0 0.54883 461.898 -104)">2</text><text font-family="Cambria Math,Cambria Math_MSFontService,sans-serif" font-weight="400" font-size="19" transform="matrix(0.548996 0 0 0.54883 456.456 -90)">𝑎</text><text font-family="Cambria Math,Cambria Math_MSFontService,sans-serif" font-weight="400" font-size="14" transform="matrix(0.548996 0 0 0.54883 462.129 -88)">3</text><text font-family="Cambria Math,Cambria Math_MSFontService,sans-serif" font-weight="400" font-size="19" transform="matrix(0.548996 0 0 0.54883 456.69 -75)">𝑎</text><text font-family="Cambria Math,Cambria Math_MSFontService,sans-serif" font-weight="400" font-size="14" transform="matrix(0.548996 0 0 0.54883 462.364 -72)">4</text><text font-family="Cambria Math,Cambria Math_MSFontService,sans-serif" font-weight="400" font-size="19" transform="matrix(0.548996 0 0 0.54883 460.36 -57)">⋮</text><text font-family="Cambria Math,Cambria Math_MSFontService,sans-serif" font-weight="400" font-size="19" transform="matrix(0.548996 0 0 0.54883 451.664 -42)">𝑎</text><text font-family="Cambria Math,Cambria Math_MSFontService,sans-serif" font-weight="400" font-size="14" transform="matrix(0.548996 0 0 0.54883 457.337 -39)">𝐾</text><text font-family="Cambria Math,Cambria Math_MSFontService,sans-serif" font-weight="400" font-size="14" transform="matrix(0.548996 0 0 0.54883 462.962 -39)">−</text><text font-family="Cambria Math,Cambria Math_MSFontService,sans-serif" font-weight="400" font-size="14" transform="matrix(0.548996 0 0 0.54883 468.361 -39)">1</text><text font-family="Cambria Math,Cambria Math_MSFontService,sans-serif" font-weight="400" font-size="19" transform="matrix(0.548996 0 0 0.54883 456.658 -26)">𝑎</text><text font-family="Cambria Math,Cambria Math_MSFontService,sans-serif" font-weight="400" font-size="14" transform="matrix(0.548996 0 0 0.54883 462.331 -23)">𝐾</text><path d="M501.905 177.547C499.48 177.547 497.515 176.304 497.515 174.772L497.515 123.518C497.515 121.985 495.549 120.743 493.124 120.743 495.549 120.743 497.515 119.5 497.515 117.968L497.515 66.7136C497.515 65.1813 499.48 63.9387 501.905 63.9387" stroke="#00B0F0" stroke-width="0.731772" stroke-miterlimit="8" fill="none" fill-rule="evenodd" transform="matrix(1.0003 0 0 1 -52.9988 -196.903)"/><text fill="#FFFFFF" font-family="Cambria Math,Cambria Math_MSFontService,sans-serif" font-weight="400" font-size="16" transform="matrix(0.548996 0 0 0.54883 410.651 -74)">𝑁</text><text fill="#FFFFFF" font-family="Cambria Math,Cambria Math_MSFontService,sans-serif" font-weight="400" font-size="12" transform="matrix(0.548996 0 0 0.54883 416.328 -72)">𝑟</text><text fill="#FFFFFF" font-family="Cambria Math,Cambria Math_MSFontService,sans-serif" font-weight="400" font-size="16" transform="matrix(0.548996 0 0 0.54883 422.235 -74)">∗</text><text fill="#FFFFFF" font-family="Cambria Math,Cambria Math_MSFontService,sans-serif" font-weight="400" font-size="16" transform="matrix(0.548996 0 0 0.54883 428.395 -74)">𝑁</text><text fill="#FFFFFF" font-family="Cambria Math,Cambria Math_MSFontService,sans-serif" font-weight="400" font-size="12" transform="matrix(0.548996 0 0 0.54883 434.071 -72)">𝑐</text><path d="M579.378 127.476C581.919 130.027 582.671 133.396 581.057 135.002L561.684 154.285C560.07 155.89 560.822 159.26 563.363 161.811 560.822 159.26 557.458 158.492 555.844 160.098L536.473 179.381C534.86 180.986 531.494 180.219 528.954 177.667" stroke="#00B0F0" stroke-width="0.731772" stroke-miterlimit="8" fill="none" fill-rule="evenodd" transform="matrix(1.0003 0 0 1 -52.9988 -196.903)"/><text fill="#FFFFFF" font-family="Cambria Math,Cambria Math_MSFontService,sans-serif" font-weight="400" font-size="16" transform="matrix(0.548996 0 0 0.54883 511.155 -31)">𝑁</text><text fill="#FFFFFF" font-family="Cambria Math,Cambria Math_MSFontService,sans-serif" font-weight="400" font-size="12" transform="matrix(0.548996 0 0 0.54883 516.832 -29)">𝑠</text><path d="M0 197.579 702.503 197.579 702.503 395.158 0 395.158Z" transform="matrix(1.0003 0 0 1 -52.9988 -196.903)"/><path d="M116.352 257.975 143.768 257.975 143.768 372.656 116.352 372.656Z" fill="#FFFFFF" transform="matrix(1.0003 0 0 1 -52.9988 -196.903)"/><path d="M143.768 257.975 195.384 206.36 195.384 321.04 143.768 372.656Z" fill="#CDCDCD" fill-rule="evenodd" transform="matrix(1.0003 0 0 1 -52.9988 -196.903)"/><path d="M116.352 257.975 167.967 206.36 195.384 206.36 143.768 257.975Z" fill="#FFFFFF" fill-rule="evenodd" transform="matrix(1.0003 0 0 1 -52.9988 -196.903)"/><path d="M116.352 257.975 167.967 206.36 195.384 206.36 195.384 321.04 143.768 372.656 116.352 372.656ZM116.352 257.975 143.768 257.975 195.384 206.36M143.768 257.975 143.768 372.656" stroke="#000000" stroke-width="1.09766" stroke-miterlimit="8" fill="none" fill-rule="evenodd" transform="matrix(1.0003 0 0 1 -52.9988 -196.903)"/><path d="M0 0 51.2617 51.3012" stroke="#000000" stroke-width="1.09766" stroke-miterlimit="8" fill="none" fill-rule="evenodd" transform="matrix(1.0003 0 0 -1 90.8382 94.237)"/><path d="M0 0 51.2617 51.3012" stroke="#000000" stroke-width="1.09766" stroke-miterlimit="8" fill="none" fill-rule="evenodd" transform="matrix(1.0003 0 0 -1 90.8382 78.3209)"/><path d="M116.352 274.964 143.586 274.964" stroke="#000000" stroke-width="1.09766" stroke-miterlimit="8" fill="none" fill-rule="evenodd" transform="matrix(1.0003 0 0 1 -52.9988 -196.903)"/><path d="M116.352 290.88 143.586 290.88" stroke="#000000" stroke-width="1.09766" stroke-miterlimit="8" fill="none" fill-rule="evenodd" transform="matrix(1.0003 0 0 1 -52.9988 -196.903)"/><path d="M159.161 242.583 159.161 356.671" stroke="#000000" stroke-width="1.09766" stroke-miterlimit="8" fill="none" fill-rule="evenodd" transform="matrix(1.0003 0 0 1 -52.9988 -196.903)"/><path d="M151.477 250.267 151.477 364.354" stroke="#000000" stroke-width="1.09766" stroke-miterlimit="8" fill="none" fill-rule="evenodd" transform="matrix(1.0003 0 0 1 -52.9988 -196.903)"/><path d="M173.979 227.765 173.979 341.852" stroke="#000000" stroke-width="1.09766" stroke-miterlimit="8" fill="none" fill-rule="evenodd" transform="matrix(1.0003 0 0 1 -52.9988 -196.903)"/><path d="M166.844 235.448 166.844 349.536" stroke="#000000" stroke-width="1.09766" stroke-miterlimit="8" fill="none" fill-rule="evenodd" transform="matrix(1.0003 0 0 1 -52.9988 -196.903)"/><path d="M188.798 212.397 188.798 327.522" stroke="#000000" stroke-width="1.09766" stroke-miterlimit="8" fill="none" fill-rule="evenodd" transform="matrix(1.0003 0 0 1 -52.9988 -196.903)"/><path d="M181.114 220.63 181.114 334.717" stroke="#000000" stroke-width="1.09766" stroke-miterlimit="8" fill="none" fill-rule="evenodd" transform="matrix(1.0003 0 0 1 -52.9988 -196.903)"/><path d="M0 0 27.6826 5.762e-05" stroke="#000000" stroke-width="1.09766" stroke-miterlimit="8" fill="none" fill-rule="evenodd" transform="matrix(-1.0003 0 0 1 98.7652 53.3634)"/><path d="M0 0 27.6826 5.762e-05" stroke="#000000" stroke-width="1.09766" stroke-miterlimit="8" fill="none" fill-rule="evenodd" transform="matrix(-1.0003 0 0 1 106.451 45.6798)"/><path d="M0 0 27.6826 5.762e-05" stroke="#000000" stroke-width="1.09766" stroke-miterlimit="8" fill="none" fill-rule="evenodd" transform="matrix(-1.0003 0 0 1 114.137 38.545)"/><path d="M0 0 26.6743 5.762e-05" stroke="#000000" stroke-width="1.09766" stroke-miterlimit="8" fill="none" fill-rule="evenodd" transform="matrix(-1.0003 0 0 1 121.363 30.3126)"/><path d="M0 0 27.6826 5.762e-05" stroke="#000000" stroke-width="1.09766" stroke-miterlimit="8" fill="none" fill-rule="evenodd" transform="matrix(-1.0003 0 0 1 128.411 23.7266)"/><path d="M0 0 26.5849 5.762e-05" stroke="#000000" stroke-width="1.09766" stroke-miterlimit="8" fill="none" fill-rule="evenodd" transform="matrix(-1.0003 0 0 1 135.548 16.043)"/><path d="M0 0 51.2617 51.3012" stroke="#000000" stroke-width="1.09766" stroke-miterlimit="8" fill="none" fill-rule="evenodd" transform="matrix(1.0003 0 0 -1 91.3872 126.618)"/><path d="M0 0 51.2617 51.3012" stroke="#000000" stroke-width="1.09766" stroke-miterlimit="8" fill="none" fill-rule="evenodd" transform="matrix(1.0003 0 0 -1 91.3872 110.153)"/><path d="M116.901 307.345 144.135 307.345" stroke="#000000" stroke-width="1.09766" stroke-miterlimit="8" fill="none" fill-rule="evenodd" transform="matrix(1.0003 0 0 1 -52.9988 -196.903)"/><path d="M116.901 323.261 144.135 323.261" stroke="#000000" stroke-width="1.09766" stroke-miterlimit="8" fill="none" fill-rule="evenodd" transform="matrix(1.0003 0 0 1 -52.9988 -196.903)"/><path d="M0 0 51.2617 51.3012" stroke="#000000" stroke-width="1.09766" stroke-miterlimit="8" fill="none" fill-rule="evenodd" transform="matrix(1.0003 0 0 -1 90.2892 143.083)"/><path d="M116.352 339.726 143.586 339.726" stroke="#000000" stroke-width="1.09766" stroke-miterlimit="8" fill="none" fill-rule="evenodd" transform="matrix(1.0003 0 0 1 -52.9988 -196.903)"/><path d="M0 0 51.2617 51.3012" stroke="#000000" stroke-width="1.09766" stroke-miterlimit="8" fill="none" fill-rule="evenodd" transform="matrix(1.0003 0 0 -1 90.8382 158.999)"/><path d="M116.352 356.191 143.586 356.191" stroke="#000000" stroke-width="1.09766" stroke-miterlimit="8" fill="none" fill-rule="evenodd" transform="matrix(1.0003 0 0 1 -52.9988 -196.903)"/><text font-family="Cambria Math,Cambria Math_MSFontService,sans-serif" font-weight="400" font-size="19" transform="matrix(0.548996 0 0 0.54883 71.799 73)">𝑎</text><text font-family="Cambria Math,Cambria Math_MSFontService,sans-serif" font-weight="400" font-size="14" transform="matrix(0.548996 0 0 0.54883 77.2341 75)">1</text><text font-family="Cambria Math,Cambria Math_MSFontService,sans-serif" font-weight="400" font-size="19" transform="matrix(0.548996 0 0 0.54883 71.4032 88)">𝑎</text><text font-family="Cambria Math,Cambria Math_MSFontService,sans-serif" font-weight="400" font-size="14" transform="matrix(0.548996 0 0 0.54883 77.076 90)">2</text><text font-family="Cambria Math,Cambria Math_MSFontService,sans-serif" font-weight="400" font-size="19" transform="matrix(0.548996 0 0 0.54883 71.6332 105)">𝑎</text><text font-family="Cambria Math,Cambria Math_MSFontService,sans-serif" font-weight="400" font-size="14" transform="matrix(0.548996 0 0 0.54883 77.3066 107)">3</text><text font-family="Cambria Math,Cambria Math_MSFontService,sans-serif" font-weight="400" font-size="19" transform="matrix(0.548996 0 0 0.54883 71.8682 120)">𝑎</text><text font-family="Cambria Math,Cambria Math_MSFontService,sans-serif" font-weight="400" font-size="14" transform="matrix(0.548996 0 0 0.54883 77.541 123)">5</text><text font-family="Cambria Math,Cambria Math_MSFontService,sans-serif" font-weight="400" font-size="19" transform="matrix(0.548996 0 0 0.54883 75.5382 138)">⋮</text><text font-family="Cambria Math,Cambria Math_MSFontService,sans-serif" font-weight="400" font-size="19" transform="matrix(0.548996 0 0 0.54883 66.8416 153)">𝑎</text><text font-family="Cambria Math,Cambria Math_MSFontService,sans-serif" font-weight="400" font-size="14" transform="matrix(0.548996 0 0 0.54883 72.5144 155)">𝐾</text><text font-family="Cambria Math,Cambria Math_MSFontService,sans-serif" font-weight="400" font-size="14" transform="matrix(0.548996 0 0 0.54883 78.1399 155)">−</text><text font-family="Cambria Math,Cambria Math_MSFontService,sans-serif" font-weight="400" font-size="14" transform="matrix(0.548996 0 0 0.54883 83.5382 155)">1</text><text font-family="Cambria Math,Cambria Math_MSFontService,sans-serif" font-weight="400" font-size="19" transform="matrix(0.548996 0 0 0.54883 71.8358 169)">𝑎</text><text font-family="Cambria Math,Cambria Math_MSFontService,sans-serif" font-weight="400" font-size="14" transform="matrix(0.548996 0 0 0.54883 77.5086 171)">𝐾</text><path d="M117.175 371.832C114.751 371.832 112.785 370.59 112.785 369.058L112.785 318.078C112.785 316.546 110.819 315.303 108.394 315.303 110.819 315.303 112.785 314.06 112.785 312.528L112.785 261.548C112.785 260.016 114.751 258.773 117.175 258.773" stroke="#00B0F0" stroke-width="0.731772" stroke-miterlimit="8" fill="none" fill-rule="evenodd" transform="matrix(1.0003 0 0 1 -52.9988 -196.903)"/><text fill="#FFFFFF" font-family="Cambria Math,Cambria Math_MSFontService,sans-serif" font-weight="400" font-size="16" transform="matrix(0.548996 0 0 0.54883 8.56785 115)">𝑁</text><text fill="#FFFFFF" font-family="Cambria Math,Cambria Math_MSFontService,sans-serif" font-weight="400" font-size="12" transform="matrix(0.548996 0 0 0.54883 14.2445 117)">𝑟</text><path d="M100.065 305.558C100.9 305.779 101.541 306.254 101.989 306.984 102.436 307.715 102.659 308.596 102.659 309.628 102.659 310.663 102.436 311.543 101.991 312.271 101.545 312.998 100.903 313.473 100.065 313.693L99.9623 313.362C100.623 313.142 101.114 312.708 101.435 312.059 101.757 311.41 101.918 310.585 101.918 309.585 101.918 308.619 101.758 307.816 101.438 307.178 101.117 306.539 100.621 306.109 99.9497 305.889ZM74.5438 305.558 74.6596 305.889C73.9905 306.109 73.4955 306.539 73.1739 307.178 72.8523 307.816 72.6915 308.619 72.6915 309.585 72.6915 310.585 72.8523 311.41 73.1739 312.059 73.4955 312.708 73.9862 313.142 74.6469 313.362L74.5438 313.693C73.7063 313.473 73.0647 312.998 72.6185 312.271 72.1728 311.543 71.9494 310.663 71.9494 309.628 71.9494 308.596 72.1734 307.715 72.6207 306.984 73.068 306.254 73.709 305.779 74.5438 305.558Z" fill="#FFFFFF" fill-rule="evenodd" transform="matrix(1.0003 0 0 1 -52.9988 -196.903)"/><text fill="#FFFFFF" font-family="Cambria Math,Cambria Math_MSFontService,sans-serif" font-weight="400" font-size="16" transform="matrix(0.548996 0 0 0.54883 21.8459 115)">𝑁</text><text fill="#FFFFFF" font-family="Cambria Math,Cambria Math_MSFontService,sans-serif" font-weight="400" font-size="12" transform="matrix(0.548996 0 0 0.54883 27.5225 117)">𝑟</text><text fill="#FFFFFF" font-family="Cambria Math,Cambria Math_MSFontService,sans-serif" font-weight="400" font-size="16" transform="matrix(0.548996 0 0 0.54883 33.4297 115)">+</text><text fill="#FFFFFF" font-family="Cambria Math,Cambria Math_MSFontService,sans-serif" font-weight="400" font-size="16" transform="matrix(0.548996 0 0 0.54883 41.9688 115)">1</text><text fill="#FFFFFF" font-family="Cambria Math,Cambria Math_MSFontService,sans-serif" font-weight="400" font-size="16" transform="matrix(0.548996 0 0 0.54883 27.091 128)">2</text><path d="M61.5442 316.036 71.9719 316.036 82.3997 316.036 92.8275 316.036 103.255 316.036 103.255 316.584 92.8275 316.584 82.3997 316.584 71.9719 316.584 61.5442 316.584Z" fill="#FFFFFF" fill-rule="evenodd" transform="matrix(1.0003 0 0 1 -52.9988 -196.903)"/><path d="M194.672 322.102C197.212 324.653 197.963 328.023 196.351 329.629L176.979 348.911C175.366 350.516 176.117 353.886 178.657 356.437 176.117 353.886 172.751 353.119 171.139 354.724L151.767 374.007C150.154 375.612 146.788 374.845 144.249 372.293" stroke="#00B0F0" stroke-width="0.731772" stroke-miterlimit="8" fill="none" fill-rule="evenodd" transform="matrix(1.0003 0 0 1 -52.9988 -196.903)"/><text fill="#FFFFFF" font-family="Cambria Math,Cambria Math_MSFontService,sans-serif" font-weight="400" font-size="16" transform="matrix(0.548996 0 0 0.54883 126.335 164)">𝑁</text><text fill="#FFFFFF" font-family="Cambria Math,Cambria Math_MSFontService,sans-serif" font-weight="400" font-size="12" transform="matrix(0.548996 0 0 0.54883 132.012 165)">𝑠</text><path d="M464.31 309.098 513.05 309.098 513.05 358.386 464.31 358.386Z" fill="#FFFFFF" transform="matrix(1.0003 0 0 1 -52.9988 -196.903)"/><path d="M513.05 309.098 604.811 217.337 604.811 266.625 513.05 358.386Z" fill="#CDCDCD" fill-rule="evenodd" transform="matrix(1.0003 0 0 1 -52.9988 -196.903)"/><path d="M464.31 309.098 556.069 217.337 604.811 217.337 513.05 309.098Z" fill="#FFFFFF" fill-rule="evenodd" transform="matrix(1.0003 0 0 1 -52.9988 -196.903)"/><path d="M464.31 309.098 556.069 217.337 604.811 217.337 604.811 266.625 513.05 358.386 464.31 358.386ZM464.31 309.098 513.05 309.098 604.811 217.337M513.05 309.098 513.05 358.386" stroke="#000000" stroke-width="1.09766" stroke-miterlimit="8" fill="none" fill-rule="evenodd" transform="matrix(1.0003 0 0 1 -52.9988 -196.903)"/><path d="M480.775 326.554 496.143 326.554 496.143 357.837 480.775 357.837Z" fill="#83CBEB" transform="matrix(1.0003 0 0 1 -52.9988 -196.903)"/><path d="M480.775 292.526 529.595 292.526" stroke="#000000" stroke-width="1.09766" stroke-miterlimit="8" fill="none" fill-rule="evenodd" transform="matrix(1.0003 0 0 1 -52.9988 -196.903)"/><path d="M496.691 277.159 545.511 277.159" stroke="#000000" stroke-width="1.09766" stroke-miterlimit="8" fill="none" fill-rule="evenodd" transform="matrix(1.0003 0 0 1 -52.9988 -196.903)"/><path d="M512.059 261.243 560.877 261.243" stroke="#000000" stroke-width="1.09766" stroke-miterlimit="8" fill="none" fill-rule="evenodd" transform="matrix(1.0003 0 0 1 -52.9988 -196.903)"/><path d="M526.877 246.974 575.695 246.974" stroke="#000000" stroke-width="1.09766" stroke-miterlimit="8" fill="none" fill-rule="evenodd" transform="matrix(1.0003 0 0 1 -52.9988 -196.903)"/><path d="M541.695 231.058 590.514 231.058" stroke="#000000" stroke-width="1.09766" stroke-miterlimit="8" fill="none" fill-rule="evenodd" transform="matrix(1.0003 0 0 1 -52.9988 -196.903)"/><path d="M473.092 300.759 521.912 300.759" stroke="#000000" stroke-width="1.09766" stroke-miterlimit="8" fill="none" fill-rule="evenodd" transform="matrix(1.0003 0 0 1 -52.9988 -196.903)"/><path d="M487.91 285.392 536.73 285.392" stroke="#000000" stroke-width="1.09766" stroke-miterlimit="8" fill="none" fill-rule="evenodd" transform="matrix(1.0003 0 0 1 -52.9988 -196.903)"/><path d="M503.826 269.476 552.645 269.476" stroke="#000000" stroke-width="1.09766" stroke-miterlimit="8" fill="none" fill-rule="evenodd" transform="matrix(1.0003 0 0 1 -52.9988 -196.903)"/><path d="M519.742 253.56 568.561 253.56" stroke="#000000" stroke-width="1.09766" stroke-miterlimit="8" fill="none" fill-rule="evenodd" transform="matrix(1.0003 0 0 1 -52.9988 -196.903)"/><path d="M534.012 239.29 582.83 239.29" stroke="#000000" stroke-width="1.09766" stroke-miterlimit="8" fill="none" fill-rule="evenodd" transform="matrix(1.0003 0 0 1 -52.9988 -196.903)"/><path d="M548.83 224.472 597.649 224.472" stroke="#000000" stroke-width="1.09766" stroke-miterlimit="8" fill="none" fill-rule="evenodd" transform="matrix(1.0003 0 0 1 -52.9988 -196.903)"/><path d="M529.621 293.075 529.621 342.096" stroke="#000000" stroke-width="1.09766" stroke-miterlimit="8" fill="none" fill-rule="evenodd" transform="matrix(1.0003 0 0 1 -52.9988 -196.903)"/><path d="M544.988 277.159 544.988 326.18" stroke="#000000" stroke-width="1.09766" stroke-miterlimit="8" fill="none" fill-rule="evenodd" transform="matrix(1.0003 0 0 1 -52.9988 -196.903)"/><path d="M560.904 261.243 560.904 310.264" stroke="#000000" stroke-width="1.09766" stroke-miterlimit="8" fill="none" fill-rule="evenodd" transform="matrix(1.0003 0 0 1 -52.9988 -196.903)"/><path d="M575.723 246.425 575.723 295.445" stroke="#000000" stroke-width="1.09766" stroke-miterlimit="8" fill="none" fill-rule="evenodd" transform="matrix(1.0003 0 0 1 -52.9988 -196.903)"/><path d="M590.541 231.058 590.541 280.078" stroke="#000000" stroke-width="1.09766" stroke-miterlimit="8" fill="none" fill-rule="evenodd" transform="matrix(1.0003 0 0 1 -52.9988 -196.903)"/><path d="M521.389 300.759 521.389 349.779" stroke="#000000" stroke-width="1.09766" stroke-miterlimit="8" fill="none" fill-rule="evenodd" transform="matrix(1.0003 0 0 1 -52.9988 -196.903)"/><path d="M536.756 285.941 536.756 334.961" stroke="#000000" stroke-width="1.09766" stroke-miterlimit="8" fill="none" fill-rule="evenodd" transform="matrix(1.0003 0 0 1 -52.9988 -196.903)"/><path d="M552.123 270.024 552.123 319.045" stroke="#000000" stroke-width="1.09766" stroke-miterlimit="8" fill="none" fill-rule="evenodd" transform="matrix(1.0003 0 0 1 -52.9988 -196.903)"/><path d="M568.039 254.108 568.039 303.129" stroke="#000000" stroke-width="1.09766" stroke-miterlimit="8" fill="none" fill-rule="evenodd" transform="matrix(1.0003 0 0 1 -52.9988 -196.903)"/><path d="M582.858 239.29 582.858 288.31" stroke="#000000" stroke-width="1.09766" stroke-miterlimit="8" fill="none" fill-rule="evenodd" transform="matrix(1.0003 0 0 1 -52.9988 -196.903)"/><path d="M597.127 224.472 597.127 273.492" stroke="#000000" stroke-width="1.09766" stroke-miterlimit="8" fill="none" fill-rule="evenodd" transform="matrix(1.0003 0 0 1 -52.9988 -196.903)"/><path d="M0 0 91.6179 91.9219" stroke="#000000" stroke-width="1.09766" stroke-miterlimit="8" fill="none" fill-rule="evenodd" transform="matrix(1.0003 0 0 -1 427.373 112.356)"/><path d="M0 0 91.4851 91.6074" stroke="#000000" stroke-width="1.09766" stroke-miterlimit="8" fill="none" fill-rule="evenodd" transform="matrix(1.0003 0 0 -1 443.843 112.041)"/><path d="M0 0 91.344 91.3742" stroke="#000000" stroke-width="1.09766" stroke-miterlimit="8" fill="none" fill-rule="evenodd" transform="matrix(1.0003 0 0 -1 460.313 129.37)"/><path d="M0 0 91.4851 91.4648" stroke="#000000" stroke-width="1.09766" stroke-miterlimit="8" fill="none" fill-rule="evenodd" transform="matrix(1.0003 0 0 -1 460.313 145.926)"/><path d="M464.859 309.54 480.226 309.54 480.226 357.837 464.859 357.837Z" fill="#83CBEB" transform="matrix(1.0003 0 0 1 -52.9988 -196.903)"/><text font-family="Cambria Math,Cambria Math_MSFontService,sans-serif" font-weight="400" font-size="16" transform="matrix(0.548996 0 0 0.54883 415.557 140)">𝑎</text><text font-family="Cambria Math,Cambria Math_MSFontService,sans-serif" font-weight="400" font-size="12" transform="matrix(0.548996 0 0 0.54883 420.406 142)">2</text><text font-family="Cambria Math,Cambria Math_MSFontService,sans-serif" font-weight="400" font-size="16" transform="matrix(0.548996 0 0 0.54883 415.775 155)">𝑎</text><text font-family="Cambria Math,Cambria Math_MSFontService,sans-serif" font-weight="400" font-size="12" transform="matrix(0.548996 0 0 0.54883 420.625 158)">3</text><text font-family="Cambria Math,Cambria Math_MSFontService,sans-serif" font-weight="400" font-size="16" transform="matrix(0.548996 0 0 0.54883 431.167 140)">𝑎</text><text font-family="Cambria Math,Cambria Math_MSFontService,sans-serif" font-weight="400" font-size="12" transform="matrix(0.548996 0 0 0.54883 436.016 142)">5</text><text font-family="Cambria Math,Cambria Math_MSFontService,sans-serif" font-weight="400" font-size="16" transform="matrix(0.548996 0 0 0.54883 431.385 155)">𝑎</text><text font-family="Cambria Math,Cambria Math_MSFontService,sans-serif" font-weight="400" font-size="12" transform="matrix(0.548996 0 0 0.54883 436.235 158)">6</text><path d="M496.691 342.47 512.607 342.47 512.607 357.837 496.691 357.837Z" fill="#83CBEB" transform="matrix(1.0003 0 0 1 -52.9988 -196.903)"/><text font-family="Cambria Math,Cambria Math_MSFontService,sans-serif" font-weight="400" font-size="16" transform="matrix(0.548996 0 0 0.54883 446.723 155)">𝑎</text><text font-family="Cambria Math,Cambria Math_MSFontService,sans-serif" font-weight="400" font-size="12" transform="matrix(0.548996 0 0 0.54883 451.573 158)">𝐾</text><text font-family="Cambria Math,Cambria Math_MSFontService,sans-serif" font-weight="400" font-size="16" transform="matrix(0.548996 0 0 0.54883 415.597 124)">𝑎</text><text font-family="Cambria Math,Cambria Math_MSFontService,sans-serif" font-weight="400" font-size="12" transform="matrix(0.548996 0 0 0.54883 420.241 126)">1</text><path d="M513.118 326.554 464.31 326.554" stroke="#000000" stroke-width="1.09766" stroke-miterlimit="8" fill="none" fill-rule="evenodd" transform="matrix(1.0003 0 0 1 -52.9988 -196.903)"/><path d="M480.775 308.991 480.775 358" stroke="#000000" stroke-width="1.09766" stroke-miterlimit="8" fill="none" fill-rule="evenodd" transform="matrix(1.0003 0 0 1 -52.9988 -196.903)"/><path d="M513.118 342.47 464.31 342.47" stroke="#000000" stroke-width="1.09766" stroke-miterlimit="8" fill="none" fill-rule="evenodd" transform="matrix(1.0003 0 0 1 -52.9988 -196.903)"/><path d="M496.143 308.991 496.143 358" stroke="#000000" stroke-width="1.09766" stroke-miterlimit="8" fill="none" fill-rule="evenodd" transform="matrix(1.0003 0 0 1 -52.9988 -196.903)"/><path d="M605.063 267.455C607.604 270.006 608.356 273.376 606.743 274.982L566.942 314.599C565.328 316.204 566.08 319.573 568.621 322.125 566.08 319.573 562.716 318.806 561.102 320.411L521.303 360.029C519.691 361.634 516.324 360.867 513.785 358.315" stroke="#00B0F0" stroke-width="0.731772" stroke-miterlimit="8" fill="none" fill-rule="evenodd" transform="matrix(1.0003 0 0 1 -52.9988 -196.903)"/><path d="M464.036 357.563C461.005 357.563 458.548 356.01 458.548 354.094L458.548 337.157C458.548 335.242 456.091 333.689 453.059 333.689 456.091 333.689 458.548 332.136 458.548 330.22L458.548 313.283C458.548 311.368 461.005 309.815 464.036 309.815" stroke="#00B0F0" stroke-width="0.731772" stroke-miterlimit="8" fill="none" fill-rule="evenodd" transform="matrix(1.0003 0 0 1 -52.9988 -196.903)"/><path d="M513.431 358.661C513.431 361.54 511.955 363.874 510.135 363.874L492.029 363.874C490.209 363.874 488.733 366.209 488.733 369.088 488.733 366.209 487.258 363.874 485.438 363.874L467.331 363.874C465.511 363.874 464.036 361.54 464.036 358.661" stroke="#00B0F0" stroke-width="0.731772" stroke-miterlimit="8" fill="none" fill-rule="evenodd" transform="matrix(1.0003 0 0 1 -52.9988 -196.903)"/><text fill="#FFFFFF" font-family="Cambria Math,Cambria Math_MSFontService,sans-serif" font-weight="400" font-size="16" transform="matrix(0.548996 0 0 0.54883 389.165 137)">𝑁</text><text fill="#FFFFFF" font-family="Cambria Math,Cambria Math_MSFontService,sans-serif" font-weight="400" font-size="12" transform="matrix(0.548996 0 0 0.54883 394.842 139)">𝑟</text><text fill="#FFFFFF" font-family="Cambria Math,Cambria Math_MSFontService,sans-serif" font-weight="400" font-size="16" transform="matrix(0.548996 0 0 0.54883 430.846 179)">𝑁</text><text fill="#FFFFFF" font-family="Cambria Math,Cambria Math_MSFontService,sans-serif" font-weight="400" font-size="12" transform="matrix(0.548996 0 0 0.54883 436.522 181)">𝑐</text><text fill="#FFFFFF" font-family="Cambria Math,Cambria Math_MSFontService,sans-serif" font-weight="400" font-size="16" transform="matrix(0.548996 0 0 0.54883 516.178 132)">𝑁</text><text fill="#FFFFFF" font-family="Cambria Math,Cambria Math_MSFontService,sans-serif" font-weight="400" font-size="12" transform="matrix(0.548996 0 0 0.54883 521.855 134)">𝑠</text></g></svg>