<svg width="165" height="189" xmlns="http://www.w3.org/2000/svg" xmlns:xlink="http://www.w3.org/1999/xlink" xml:space="preserve" overflow="hidden"><defs><clipPath id="clip0"><rect x="0" y="0" width="165" height="189"/></clipPath></defs><g clip-path="url(#clip0)"><path d="M0 0 713.982 0 713.982 401.615 0 401.615Z" fill="#FFFFFF" transform="matrix(1.00242 0 0 1 -461.347 -4.06836)"/><path d="M0 0 713.982 0 713.982 200.807 0 200.807Z" transform="matrix(1.00242 0 0 1 -461.347 -4.06836)"/><path d="M101.519 106.283 150.862 106.283 150.862 156.184 101.519 156.184Z" fill="#FFFFFF" transform="matrix(1.00242 0 0 1 -461.347 -4.06836)"/><path d="M150.862 106.283 243.758 13.3872 243.758 63.2873 150.862 156.184Z" fill="#CDCDCD" fill-rule="evenodd" transform="matrix(1.00242 0 0 1 -461.347 -4.06836)"/><path d="M101.519 106.283 194.416 13.3872 243.758 13.3872 150.862 106.283Z" fill="#FFFFFF" fill-rule="evenodd" transform="matrix(1.00242 0 0 1 -461.347 -4.06836)"/><path d="M101.519 106.283 194.416 13.3872 243.758 13.3872 243.758 63.2873 150.862 156.184 101.519 156.184ZM101.519 106.283 150.862 106.283 243.758 13.3872M150.862 106.283 150.862 156.184" stroke="#000000" stroke-width="1.1156" stroke-miterlimit="8" fill="none" fill-rule="evenodd" transform="matrix(1.00242 0 0 1 -461.347 -4.06836)"/><path d="M118.253 89.8056 167.871 89.8056" stroke="#000000" stroke-width="1.1156" stroke-miterlimit="8" fill="none" fill-rule="evenodd" transform="matrix(1.00242 0 0 1 -461.347 -4.06836)"/><path d="M133.872 73.6294 183.49 73.6294" stroke="#000000" stroke-width="1.1156" stroke-miterlimit="8" fill="none" fill-rule="evenodd" transform="matrix(1.00242 0 0 1 -461.347 -4.06836)"/><path d="M150.048 58.0111 199.666 58.0111" stroke="#000000" stroke-width="1.1156" stroke-miterlimit="8" fill="none" fill-rule="evenodd" transform="matrix(1.00242 0 0 1 -461.347 -4.06836)"/><path d="M164.551 42.9505 214.168 42.9505" stroke="#000000" stroke-width="1.1156" stroke-miterlimit="8" fill="none" fill-rule="evenodd" transform="matrix(1.00242 0 0 1 -461.347 -4.06836)"/><path d="M180.169 27.3321 229.787 27.3322" stroke="#000000" stroke-width="1.1156" stroke-miterlimit="8" fill="none" fill-rule="evenodd" transform="matrix(1.00242 0 0 1 -461.347 -4.06836)"/><path d="M109.886 97.6147 159.504 97.6147" stroke="#000000" stroke-width="1.1156" stroke-miterlimit="8" fill="none" fill-rule="evenodd" transform="matrix(1.00242 0 0 1 -461.347 -4.06836)"/><path d="M124.947 82.5542 174.565 82.5542" stroke="#000000" stroke-width="1.1156" stroke-miterlimit="8" fill="none" fill-rule="evenodd" transform="matrix(1.00242 0 0 1 -461.347 -4.06836)"/><path d="M141.681 66.378 191.299 66.378" stroke="#000000" stroke-width="1.1156" stroke-miterlimit="8" fill="none" fill-rule="evenodd" transform="matrix(1.00242 0 0 1 -461.347 -4.06836)"/><path d="M157.299 50.2019 206.917 50.2019" stroke="#000000" stroke-width="1.1156" stroke-miterlimit="8" fill="none" fill-rule="evenodd" transform="matrix(1.00242 0 0 1 -461.347 -4.06836)"/><path d="M171.802 35.1413 221.42 35.1414" stroke="#000000" stroke-width="1.1156" stroke-miterlimit="8" fill="none" fill-rule="evenodd" transform="matrix(1.00242 0 0 1 -461.347 -4.06836)"/><path d="M187.42 20.6385 237.038 20.6386" stroke="#000000" stroke-width="1.1156" stroke-miterlimit="8" fill="none" fill-rule="evenodd" transform="matrix(1.00242 0 0 1 -461.347 -4.06836)"/><path d="M167.34 90.3634 167.34 140.185" stroke="#000000" stroke-width="1.1156" stroke-miterlimit="8" fill="none" fill-rule="evenodd" transform="matrix(1.00242 0 0 1 -461.347 -4.06836)"/><path d="M182.958 74.1872 182.958 124.009" stroke="#000000" stroke-width="1.1156" stroke-miterlimit="8" fill="none" fill-rule="evenodd" transform="matrix(1.00242 0 0 1 -461.347 -4.06836)"/><path d="M199.134 58.0111 199.134 107.832" stroke="#000000" stroke-width="1.1156" stroke-miterlimit="8" fill="none" fill-rule="evenodd" transform="matrix(1.00242 0 0 1 -461.347 -4.06836)"/><path d="M214.195 42.3926 214.195 92.2141" stroke="#000000" stroke-width="1.1156" stroke-miterlimit="8" fill="none" fill-rule="evenodd" transform="matrix(1.00242 0 0 1 -461.347 -4.06836)"/><path d="M229.813 27.3321 229.813 77.1536" stroke="#000000" stroke-width="1.1156" stroke-miterlimit="8" fill="none" fill-rule="evenodd" transform="matrix(1.00242 0 0 1 -461.347 -4.06836)"/><path d="M158.973 97.6147 158.973 147.436" stroke="#000000" stroke-width="1.1156" stroke-miterlimit="8" fill="none" fill-rule="evenodd" transform="matrix(1.00242 0 0 1 -461.347 -4.06836)"/><path d="M174.591 82.5542 174.591 132.376" stroke="#000000" stroke-width="1.1156" stroke-miterlimit="8" fill="none" fill-rule="evenodd" transform="matrix(1.00242 0 0 1 -461.347 -4.06836)"/><path d="M190.767 66.9358 190.767 116.757" stroke="#000000" stroke-width="1.1156" stroke-miterlimit="8" fill="none" fill-rule="evenodd" transform="matrix(1.00242 0 0 1 -461.347 -4.06836)"/><path d="M206.943 50.2018 206.943 100.023" stroke="#000000" stroke-width="1.1156" stroke-miterlimit="8" fill="none" fill-rule="evenodd" transform="matrix(1.00242 0 0 1 -461.347 -4.06836)"/><path d="M221.446 35.1413 221.446 84.9628" stroke="#000000" stroke-width="1.1156" stroke-miterlimit="8" fill="none" fill-rule="evenodd" transform="matrix(1.00242 0 0 1 -461.347 -4.06836)"/><path d="M236.507 20.6385 236.507 70.46" stroke="#000000" stroke-width="1.1156" stroke-miterlimit="8" fill="none" fill-rule="evenodd" transform="matrix(1.00242 0 0 1 -461.347 -4.06836)"/><path d="M117.695 106.54 117.695 156.349" stroke="#000000" stroke-width="1.1156" stroke-miterlimit="8" fill="none" fill-rule="evenodd" transform="matrix(1.00242 0 0 1 -461.347 -4.06836)"/><path d="M133.872 106.54 133.872 156.349" stroke="#000000" stroke-width="1.1156" stroke-miterlimit="8" fill="none" fill-rule="evenodd" transform="matrix(1.00242 0 0 1 -461.347 -4.06836)"/><path d="M150.567 124.389 100.962 124.389" stroke="#000000" stroke-width="1.1156" stroke-miterlimit="8" fill="none" fill-rule="evenodd" transform="matrix(1.00242 0 0 1 -461.347 -4.06836)"/><path d="M150.567 140.565 100.962 140.565" stroke="#000000" stroke-width="1.1156" stroke-miterlimit="8" fill="none" fill-rule="evenodd" transform="matrix(1.00242 0 0 1 -461.347 -4.06836)"/><path d="M0 0 93.115 93.424" stroke="#000000" stroke-width="1.1156" stroke-miterlimit="8" fill="none" fill-rule="evenodd" transform="matrix(1.00242 0 0 -1 -343.367 102.743)"/><path d="M0 0 92.98 93.1044" stroke="#000000" stroke-width="1.1156" stroke-miterlimit="8" fill="none" fill-rule="evenodd" transform="matrix(1.00242 0 0 -1 -327.151 102.423)"/><path d="M0 0 92.8366 92.8673" stroke="#000000" stroke-width="1.1156" stroke-miterlimit="8" fill="none" fill-rule="evenodd" transform="matrix(1.00242 0 0 -1 -309.818 120.036)"/><path d="M0 0 92.98 92.9594" stroke="#000000" stroke-width="1.1156" stroke-miterlimit="8" fill="none" fill-rule="evenodd" transform="matrix(1.00242 0 0 -1 -310.377 136.862)"/><text font-family="Cambria Math,Cambria Math_MSFontService,sans-serif" font-weight="400" font-size="16" transform="matrix(0.559149 0 0 0.557799 -355.726 114)">𝑎</text><text font-family="Cambria Math,Cambria Math_MSFontService,sans-serif" font-weight="400" font-size="12" transform="matrix(0.559149 0 0 0.557799 -350.996 116)">1</text><text font-family="Cambria Math,Cambria Math_MSFontService,sans-serif" font-weight="400" font-size="16" transform="matrix(0.559149 0 0 0.557799 -355.767 131)">𝑎</text><text font-family="Cambria Math,Cambria Math_MSFontService,sans-serif" font-weight="400" font-size="12" transform="matrix(0.559149 0 0 0.557799 -350.828 133)">2</text><text font-family="Cambria Math,Cambria Math_MSFontService,sans-serif" font-weight="400" font-size="16" transform="matrix(0.559149 0 0 0.557799 -355.544 147)">𝑎</text><text font-family="Cambria Math,Cambria Math_MSFontService,sans-serif" font-weight="400" font-size="12" transform="matrix(0.559149 0 0 0.557799 -350.606 148)">3</text><text font-family="Cambria Math,Cambria Math_MSFontService,sans-serif" font-weight="400" font-size="16" transform="matrix(0.559149 0 0 0.557799 -339.868 131)">𝑎</text><text font-family="Cambria Math,Cambria Math_MSFontService,sans-serif" font-weight="400" font-size="12" transform="matrix(0.559149 0 0 0.557799 -334.929 133)">5</text><text font-family="Cambria Math,Cambria Math_MSFontService,sans-serif" font-weight="400" font-size="16" transform="matrix(0.559149 0 0 0.557799 -339.646 147)">𝑎</text><text font-family="Cambria Math,Cambria Math_MSFontService,sans-serif" font-weight="400" font-size="12" transform="matrix(0.559149 0 0 0.557799 -334.707 148)">6</text><text font-family="Cambria Math,Cambria Math_MSFontService,sans-serif" font-weight="400" font-size="12" transform="matrix(0.559149 0 0 0.557799 -325.699 130)">𝑎</text><text font-family="Cambria Math,Cambria Math_MSFontService,sans-serif" font-weight="400" font-size="9" transform="matrix(0.559149 0 0 0.557799 -321.972 131)">𝐾</text><text font-family="Cambria Math,Cambria Math_MSFontService,sans-serif" font-weight="400" font-size="9" transform="matrix(0.559149 0 0 0.557799 -318.281 131)">−</text><text font-family="Cambria Math,Cambria Math_MSFontService,sans-serif" font-weight="400" font-size="9" transform="matrix(0.559149 0 0 0.557799 -314.74 131)">1</text><text font-family="Cambria Math,Cambria Math_MSFontService,sans-serif" font-weight="400" font-size="16" transform="matrix(0.559149 0 0 0.557799 -324.024 147)">𝑎</text><text font-family="Cambria Math,Cambria Math_MSFontService,sans-serif" font-weight="400" font-size="12" transform="matrix(0.559149 0 0 0.557799 -319.085 148)">𝐾</text><text font-family="Cambria Math,Cambria Math_MSFontService,sans-serif" font-weight="400" font-size="16" transform="matrix(0.559149 0 0 0.557799 -323.368 114)">𝑎</text><text font-family="Cambria Math,Cambria Math_MSFontService,sans-serif" font-weight="400" font-size="12" transform="matrix(0.559149 0 0 0.557799 -318.429 116)">𝑘</text><text font-family="Cambria Math,Cambria Math_MSFontService,sans-serif" font-weight="400" font-size="16" transform="matrix(0.559149 0 0 0.557799 -340.074 114)">𝑎</text><text font-family="Cambria Math,Cambria Math_MSFontService,sans-serif" font-weight="400" font-size="12" transform="matrix(0.559149 0 0 0.557799 -335.134 116)">4</text><path d="M243.598 64.4129C246.179 67.0061 246.943 70.431 245.304 72.0626L205.159 112.023C203.52 113.654 204.284 117.079 206.865 119.672 204.284 117.079 200.863 116.299 199.223 117.931L159.079 157.891C157.439 159.523 154.018 158.743 151.437 156.15" stroke="#00B0F0" stroke-width="0.74373" stroke-miterlimit="8" fill="none" fill-rule="evenodd" transform="matrix(1.00242 0 0 1 -461.347 -4.06836)"/><path d="M101.24 155.905C98.3137 155.905 95.9414 154.405 95.9414 152.556L95.9414 134.989C95.9414 133.14 93.569 131.64 90.6423 131.64 93.569 131.64 95.9414 130.141 95.9414 128.291L95.9414 110.725C95.9414 108.876 98.3137 107.376 101.24 107.376" stroke="#00B0F0" stroke-width="0.74373" stroke-miterlimit="8" fill="none" fill-rule="evenodd" transform="matrix(1.00242 0 0 1 -461.347 -4.06836)"/><path d="M149.769 156.462C149.769 159.389 148.27 161.762 146.42 161.762L129.411 161.762C127.562 161.762 126.062 164.134 126.062 167.061 126.062 164.134 124.563 161.762 122.713 161.762L105.705 161.762C103.855 161.762 102.356 159.389 102.356 156.462" stroke="#00B0F0" stroke-width="0.74373" stroke-miterlimit="8" fill="none" fill-rule="evenodd" transform="matrix(1.00242 0 0 1 -461.347 -4.06836)"/><text fill="#FFFFFF" font-family="Cambria Math,Cambria Math_MSFontService,sans-serif" font-weight="400" font-size="16" transform="matrix(0.559149 0 0 0.557799 -382.238 129)">𝑁</text><text fill="#FFFFFF" font-family="Cambria Math,Cambria Math_MSFontService,sans-serif" font-weight="400" font-size="12" transform="matrix(0.559149 0 0 0.557799 -376.457 130)">𝑟</text><text fill="#FFFFFF" font-family="Cambria Math,Cambria Math_MSFontService,sans-serif" font-weight="400" font-size="16" transform="matrix(0.559149 0 0 0.557799 -339.788 171)">𝑁</text><text fill="#FFFFFF" font-family="Cambria Math,Cambria Math_MSFontService,sans-serif" font-weight="400" font-size="12" transform="matrix(0.559149 0 0 0.557799 -334.006 173)">𝑐</text><text fill="#FFFFFF" font-family="Cambria Math,Cambria Math_MSFontService,sans-serif" font-weight="400" font-size="16" transform="matrix(0.559149 0 0 0.557799 -252.874 123)">𝑁</text><text fill="#FFFFFF" font-family="Cambria Math,Cambria Math_MSFontService,sans-serif" font-weight="400" font-size="12" transform="matrix(0.559149 0 0 0.557799 -247.092 125)">𝑠</text><path d="M509.27 64.3733 536.944 64.3733 536.944 180.727 509.27 180.727Z" fill="#FFFFFF" transform="matrix(1.00242 0 0 1 -461.347 -4.06836)"/><path d="M536.944 64.3733 589.046 12.2716 589.046 128.625 536.944 180.727Z" fill="#CDCDCD" fill-rule="evenodd" transform="matrix(1.00242 0 0 1 -461.347 -4.06836)"/><path d="M509.27 64.3733 561.374 12.2716 589.046 12.2716 536.944 64.3733Z" fill="#FFFFFF" fill-rule="evenodd" transform="matrix(1.00242 0 0 1 -461.347 -4.06836)"/><path d="M509.27 64.3733 561.374 12.2716 589.046 12.2716 589.046 128.625 536.944 180.727 509.27 180.727ZM509.27 64.3733 536.944 64.3733 589.046 12.2716M536.944 64.3733 536.944 180.727" stroke="#000000" stroke-width="1.1156" stroke-miterlimit="8" fill="none" fill-rule="evenodd" transform="matrix(1.00242 0 0 1 -461.347 -4.06836)"/><path d="M0 0 52.0993 52.1396" stroke="#000000" stroke-width="1.1156" stroke-miterlimit="8" fill="none" fill-rule="evenodd" transform="matrix(1.00242 0 0 -1 77.1134 93.8108)"/><path d="M0 0 52.0993 52.1396" stroke="#000000" stroke-width="1.1156" stroke-miterlimit="8" fill="none" fill-rule="evenodd" transform="matrix(1.00242 0 0 -1 77.1134 77.6346)"/><path d="M509.27 81.9964 536.949 81.9964" stroke="#000000" stroke-width="1.1156" stroke-miterlimit="8" fill="none" fill-rule="evenodd" transform="matrix(1.00242 0 0 1 -461.347 -4.06836)"/><path d="M509.27 97.6147 536.949 97.6147" stroke="#000000" stroke-width="1.1156" stroke-miterlimit="8" fill="none" fill-rule="evenodd" transform="matrix(1.00242 0 0 1 -461.347 -4.06836)"/><path d="M552.778 48.5285 552.778 164.48" stroke="#000000" stroke-width="1.1156" stroke-miterlimit="8" fill="none" fill-rule="evenodd" transform="matrix(1.00242 0 0 1 -461.347 -4.06836)"/><path d="M544.969 56.8955 544.969 172.847" stroke="#000000" stroke-width="1.1156" stroke-miterlimit="8" fill="none" fill-rule="evenodd" transform="matrix(1.00242 0 0 1 -461.347 -4.06836)"/><path d="M567.839 33.4679 567.839 149.42" stroke="#000000" stroke-width="1.1156" stroke-miterlimit="8" fill="none" fill-rule="evenodd" transform="matrix(1.00242 0 0 1 -461.347 -4.06836)"/><path d="M560.588 41.2771 560.588 157.229" stroke="#000000" stroke-width="1.1156" stroke-miterlimit="8" fill="none" fill-rule="evenodd" transform="matrix(1.00242 0 0 1 -461.347 -4.06836)"/><path d="M582.899 18.4074 582.899 135.413" stroke="#000000" stroke-width="1.1156" stroke-miterlimit="8" fill="none" fill-rule="evenodd" transform="matrix(1.00242 0 0 1 -461.347 -4.06836)"/><path d="M575.09 26.2165 575.09 142.168" stroke="#000000" stroke-width="1.1156" stroke-miterlimit="8" fill="none" fill-rule="evenodd" transform="matrix(1.00242 0 0 1 -461.347 -4.06836)"/><path d="M0 0 28.1349 5.85616e-05" stroke="#000000" stroke-width="1.1156" stroke-miterlimit="8" fill="none" fill-rule="evenodd" transform="matrix(-1.00242 0 0 1 85.1869 52.8271)"/><path d="M0 0 28.1349 5.85616e-05" stroke="#000000" stroke-width="1.1156" stroke-miterlimit="8" fill="none" fill-rule="evenodd" transform="matrix(-1.00242 0 0 1 93.015 44.4601)"/><path d="M0 0 28.1349 5.85616e-05" stroke="#000000" stroke-width="1.1156" stroke-miterlimit="8" fill="none" fill-rule="evenodd" transform="matrix(-1.00242 0 0 1 100.844 37.2087)"/><path d="M0 0 27.1102 5.85616e-05" stroke="#000000" stroke-width="1.1156" stroke-miterlimit="8" fill="none" fill-rule="evenodd" transform="matrix(-1.00242 0 0 1 108.202 28.8418)"/><path d="M0 0 28.1349 5.85616e-05" stroke="#000000" stroke-width="1.1156" stroke-miterlimit="8" fill="none" fill-rule="evenodd" transform="matrix(-1.00242 0 0 1 115.382 22.1482)"/><path d="M0 0 27.0193 5.85616e-05" stroke="#000000" stroke-width="1.1156" stroke-miterlimit="8" fill="none" fill-rule="evenodd" transform="matrix(-1.00242 0 0 1 122.65 14.339)"/><path d="M0 0 52.0993 52.1396" stroke="#000000" stroke-width="1.1156" stroke-miterlimit="8" fill="none" fill-rule="evenodd" transform="matrix(1.00242 0 0 -1 77.6725 126.721)"/><path d="M0 0 52.0993 52.1396" stroke="#000000" stroke-width="1.1156" stroke-miterlimit="8" fill="none" fill-rule="evenodd" transform="matrix(1.00242 0 0 -1 77.6725 110.545)"/><path d="M509.828 114.349 537.507 114.349" stroke="#000000" stroke-width="1.1156" stroke-miterlimit="8" fill="none" fill-rule="evenodd" transform="matrix(1.00242 0 0 1 -461.347 -4.06836)"/><path d="M509.828 130.525 537.507 130.525" stroke="#000000" stroke-width="1.1156" stroke-miterlimit="8" fill="none" fill-rule="evenodd" transform="matrix(1.00242 0 0 1 -461.347 -4.06836)"/><path d="M0 0 52.0993 52.1396" stroke="#000000" stroke-width="1.1156" stroke-miterlimit="8" fill="none" fill-rule="evenodd" transform="matrix(1.00242 0 0 -1 76.5542 143.455)"/><path d="M509.27 147.259 536.949 147.259" stroke="#000000" stroke-width="1.1156" stroke-miterlimit="8" fill="none" fill-rule="evenodd" transform="matrix(1.00242 0 0 1 -461.347 -4.06836)"/><path d="M0 0 52.0993 52.1396" stroke="#000000" stroke-width="1.1156" stroke-miterlimit="8" fill="none" fill-rule="evenodd" transform="matrix(1.00242 0 0 -1 77.1134 159.631)"/><path d="M509.27 163.993 536.949 163.993" stroke="#000000" stroke-width="1.1156" stroke-miterlimit="8" fill="none" fill-rule="evenodd" transform="matrix(1.00242 0 0 1 -461.347 -4.06836)"/><text font-family="Cambria Math,Cambria Math_MSFontService,sans-serif" font-weight="400" font-size="19" transform="matrix(0.559149 0 0 0.557799 57.6975 73)">𝑎</text><text font-family="Cambria Math,Cambria Math_MSFontService,sans-serif" font-weight="400" font-size="14" transform="matrix(0.559149 0 0 0.557799 63.2336 75)">1</text><text font-family="Cambria Math,Cambria Math_MSFontService,sans-serif" font-weight="400" font-size="19" transform="matrix(0.559149 0 0 0.557799 57.2943 88)">𝑎</text><text font-family="Cambria Math,Cambria Math_MSFontService,sans-serif" font-weight="400" font-size="14" transform="matrix(0.559149 0 0 0.557799 63.072 90)">2</text><text font-family="Cambria Math,Cambria Math_MSFontService,sans-serif" font-weight="400" font-size="19" transform="matrix(0.559149 0 0 0.557799 57.5292 105)">𝑎</text><text font-family="Cambria Math,Cambria Math_MSFontService,sans-serif" font-weight="400" font-size="14" transform="matrix(0.559149 0 0 0.557799 63.3069 107)">3</text><text font-family="Cambria Math,Cambria Math_MSFontService,sans-serif" font-weight="400" font-size="19" transform="matrix(0.559149 0 0 0.557799 57.7679 120)">𝑎</text><text font-family="Cambria Math,Cambria Math_MSFontService,sans-serif" font-weight="400" font-size="14" transform="matrix(0.559149 0 0 0.557799 63.5462 123)">4</text><text font-family="Cambria Math,Cambria Math_MSFontService,sans-serif" font-weight="400" font-size="19" transform="matrix(0.559149 0 0 0.557799 61.5058 138)">⋮</text><text font-family="Cambria Math,Cambria Math_MSFontService,sans-serif" font-weight="400" font-size="19" transform="matrix(0.559149 0 0 0.557799 52.6484 154)">𝑎</text><text font-family="Cambria Math,Cambria Math_MSFontService,sans-serif" font-weight="400" font-size="14" transform="matrix(0.559149 0 0 0.557799 58.4266 156)">𝐾</text><text font-family="Cambria Math,Cambria Math_MSFontService,sans-serif" font-weight="400" font-size="14" transform="matrix(0.559149 0 0 0.557799 64.1557 156)">−</text><text font-family="Cambria Math,Cambria Math_MSFontService,sans-serif" font-weight="400" font-size="14" transform="matrix(0.559149 0 0 0.557799 69.6543 156)">1</text><text font-family="Cambria Math,Cambria Math_MSFontService,sans-serif" font-weight="400" font-size="19" transform="matrix(0.559149 0 0 0.557799 57.7349 170)">𝑎</text><text font-family="Cambria Math,Cambria Math_MSFontService,sans-serif" font-weight="400" font-size="14" transform="matrix(0.559149 0 0 0.557799 63.5126 172)">𝐾</text><path d="M510.107 180.448C507.642 180.448 505.644 179.185 505.644 177.628L505.644 125.536C505.644 123.979 503.646 122.716 501.182 122.716 503.646 122.716 505.644 121.453 505.644 119.895L505.644 67.8038C505.644 66.2464 507.642 64.9835 510.107 64.9835" stroke="#00B0F0" stroke-width="0.74373" stroke-miterlimit="8" fill="none" fill-rule="evenodd" transform="matrix(1.00242 0 0 1 -461.347 -4.06836)"/><text fill="#FFFFFF" font-family="Cambria Math,Cambria Math_MSFontService,sans-serif" font-weight="400" font-size="16" transform="matrix(0.559149 0 0 0.557799 10.8771 121)">𝑁</text><text fill="#FFFFFF" font-family="Cambria Math,Cambria Math_MSFontService,sans-serif" font-weight="400" font-size="12" transform="matrix(0.559149 0 0 0.557799 16.6587 123)">𝑟</text><text fill="#FFFFFF" font-family="Cambria Math,Cambria Math_MSFontService,sans-serif" font-weight="400" font-size="16" transform="matrix(0.559149 0 0 0.557799 22.6752 121)">∗</text><text fill="#FFFFFF" font-family="Cambria Math,Cambria Math_MSFontService,sans-serif" font-weight="400" font-size="16" transform="matrix(0.559149 0 0 0.557799 28.9488 121)">𝑁</text><text fill="#FFFFFF" font-family="Cambria Math,Cambria Math_MSFontService,sans-serif" font-weight="400" font-size="12" transform="matrix(0.559149 0 0 0.557799 34.7304 123)">𝑐</text><path d="M588.846 129.559C591.428 132.152 592.192 135.576 590.552 137.208L570.862 156.806C569.222 158.437 569.986 161.862 572.569 164.455 569.986 161.862 566.567 161.082 564.927 162.714L545.239 182.312C543.6 183.943 540.179 183.164 537.598 180.571" stroke="#00B0F0" stroke-width="0.74373" stroke-miterlimit="8" fill="none" fill-rule="evenodd" transform="matrix(1.00242 0 0 1 -461.347 -4.06836)"/><text fill="#FFFFFF" font-family="Cambria Math,Cambria Math_MSFontService,sans-serif" font-weight="400" font-size="16" transform="matrix(0.559149 0 0 0.557799 113.24 165)">𝑁</text><text fill="#FFFFFF" font-family="Cambria Math,Cambria Math_MSFontService,sans-serif" font-weight="400" font-size="12" transform="matrix(0.559149 0 0 0.557799 119.022 167)">𝑠</text><path d="M0 200.807 713.982 200.807 713.982 401.615 0 401.615Z" transform="matrix(1.00242 0 0 1 -461.347 -4.06836)"/><path d="M118.253 262.191 146.117 262.191 146.117 378.745 118.253 378.745Z" fill="#FFFFFF" transform="matrix(1.00242 0 0 1 -461.347 -4.06836)"/><path d="M146.118 262.191 198.576 209.732 198.576 326.286 146.118 378.745Z" fill="#CDCDCD" fill-rule="evenodd" transform="matrix(1.00242 0 0 1 -461.347 -4.06836)"/><path d="M118.253 262.191 170.712 209.732 198.576 209.732 146.118 262.191Z" fill="#FFFFFF" fill-rule="evenodd" transform="matrix(1.00242 0 0 1 -461.347 -4.06836)"/><path d="M118.253 262.191 170.712 209.732 198.576 209.732 198.576 326.286 146.118 378.745 118.253 378.745ZM118.253 262.191 146.118 262.191 198.576 209.732M146.118 262.191 146.118 378.745" stroke="#000000" stroke-width="1.1156" stroke-miterlimit="8" fill="none" fill-rule="evenodd" transform="matrix(1.00242 0 0 1 -461.347 -4.06836)"/><path d="M0 0 52.0993 52.1396" stroke="#000000" stroke-width="1.1156" stroke-miterlimit="8" fill="none" fill-rule="evenodd" transform="matrix(1.00242 0 0 -1 -314.85 291.829)"/><path d="M0 0 52.0993 52.1396" stroke="#000000" stroke-width="1.1156" stroke-miterlimit="8" fill="none" fill-rule="evenodd" transform="matrix(1.00242 0 0 -1 -314.85 275.653)"/><path d="M118.253 279.457 145.932 279.457" stroke="#000000" stroke-width="1.1156" stroke-miterlimit="8" fill="none" fill-rule="evenodd" transform="matrix(1.00242 0 0 1 -461.347 -4.06836)"/><path d="M118.253 295.633 145.932 295.633" stroke="#000000" stroke-width="1.1156" stroke-miterlimit="8" fill="none" fill-rule="evenodd" transform="matrix(1.00242 0 0 1 -461.347 -4.06836)"/><path d="M161.762 246.547 161.762 362.499" stroke="#000000" stroke-width="1.1156" stroke-miterlimit="8" fill="none" fill-rule="evenodd" transform="matrix(1.00242 0 0 1 -461.347 -4.06836)"/><path d="M153.952 254.356 153.952 370.308" stroke="#000000" stroke-width="1.1156" stroke-miterlimit="8" fill="none" fill-rule="evenodd" transform="matrix(1.00242 0 0 1 -461.347 -4.06836)"/><path d="M176.822 231.486 176.822 347.438" stroke="#000000" stroke-width="1.1156" stroke-miterlimit="8" fill="none" fill-rule="evenodd" transform="matrix(1.00242 0 0 1 -461.347 -4.06836)"/><path d="M169.571 239.296 169.571 355.247" stroke="#000000" stroke-width="1.1156" stroke-miterlimit="8" fill="none" fill-rule="evenodd" transform="matrix(1.00242 0 0 1 -461.347 -4.06836)"/><path d="M191.883 215.868 191.883 332.874" stroke="#000000" stroke-width="1.1156" stroke-miterlimit="8" fill="none" fill-rule="evenodd" transform="matrix(1.00242 0 0 1 -461.347 -4.06836)"/><path d="M184.074 224.235 184.074 340.187" stroke="#000000" stroke-width="1.1156" stroke-miterlimit="8" fill="none" fill-rule="evenodd" transform="matrix(1.00242 0 0 1 -461.347 -4.06836)"/><path d="M0 0 28.1349 5.85616e-05" stroke="#000000" stroke-width="1.1156" stroke-miterlimit="8" fill="none" fill-rule="evenodd" transform="matrix(-1.00242 0 0 1 -306.777 250.288)"/><path d="M0 0 28.1349 5.85616e-05" stroke="#000000" stroke-width="1.1156" stroke-miterlimit="8" fill="none" fill-rule="evenodd" transform="matrix(-1.00242 0 0 1 -298.949 242.479)"/><path d="M0 0 28.1349 5.85616e-05" stroke="#000000" stroke-width="1.1156" stroke-miterlimit="8" fill="none" fill-rule="evenodd" transform="matrix(-1.00242 0 0 1 -291.12 235.227)"/><path d="M0 0 27.1102 5.85616e-05" stroke="#000000" stroke-width="1.1156" stroke-miterlimit="8" fill="none" fill-rule="evenodd" transform="matrix(-1.00242 0 0 1 -283.76 226.86)"/><path d="M0 0 28.1349 5.85616e-05" stroke="#000000" stroke-width="1.1156" stroke-miterlimit="8" fill="none" fill-rule="evenodd" transform="matrix(-1.00242 0 0 1 -276.583 220.167)"/><path d="M0 0 27.0193 5.85616e-05" stroke="#000000" stroke-width="1.1156" stroke-miterlimit="8" fill="none" fill-rule="evenodd" transform="matrix(-1.00242 0 0 1 -269.314 212.357)"/><path d="M0 0 52.0993 52.1396" stroke="#000000" stroke-width="1.1156" stroke-miterlimit="8" fill="none" fill-rule="evenodd" transform="matrix(1.00242 0 0 -1 -314.291 324.739)"/><path d="M0 0 52.0993 52.1396" stroke="#000000" stroke-width="1.1156" stroke-miterlimit="8" fill="none" fill-rule="evenodd" transform="matrix(1.00242 0 0 -1 -314.291 308.005)"/><path d="M118.811 312.367 146.49 312.367" stroke="#000000" stroke-width="1.1156" stroke-miterlimit="8" fill="none" fill-rule="evenodd" transform="matrix(1.00242 0 0 1 -461.347 -4.06836)"/><path d="M118.811 328.543 146.49 328.543" stroke="#000000" stroke-width="1.1156" stroke-miterlimit="8" fill="none" fill-rule="evenodd" transform="matrix(1.00242 0 0 1 -461.347 -4.06836)"/><path d="M0 0 52.0993 52.1396" stroke="#000000" stroke-width="1.1156" stroke-miterlimit="8" fill="none" fill-rule="evenodd" transform="matrix(1.00242 0 0 -1 -315.409 341.473)"/><path d="M118.253 345.277 145.932 345.277" stroke="#000000" stroke-width="1.1156" stroke-miterlimit="8" fill="none" fill-rule="evenodd" transform="matrix(1.00242 0 0 1 -461.347 -4.06836)"/><path d="M0 0 52.0993 52.1396" stroke="#000000" stroke-width="1.1156" stroke-miterlimit="8" fill="none" fill-rule="evenodd" transform="matrix(1.00242 0 0 -1 -314.85 357.65)"/><path d="M118.253 362.011 145.932 362.011" stroke="#000000" stroke-width="1.1156" stroke-miterlimit="8" fill="none" fill-rule="evenodd" transform="matrix(1.00242 0 0 1 -461.347 -4.06836)"/><text font-family="Cambria Math,Cambria Math_MSFontService,sans-serif" font-weight="400" font-size="19" transform="matrix(0.559149 0 0 0.557799 -334.241 270)">𝑎</text><text font-family="Cambria Math,Cambria Math_MSFontService,sans-serif" font-weight="400" font-size="14" transform="matrix(0.559149 0 0 0.557799 -328.706 273)">1</text><text font-family="Cambria Math,Cambria Math_MSFontService,sans-serif" font-weight="400" font-size="19" transform="matrix(0.559149 0 0 0.557799 -334.645 285)">𝑎</text><text font-family="Cambria Math,Cambria Math_MSFontService,sans-serif" font-weight="400" font-size="14" transform="matrix(0.559149 0 0 0.557799 -328.867 288)">2</text><text font-family="Cambria Math,Cambria Math_MSFontService,sans-serif" font-weight="400" font-size="19" transform="matrix(0.559149 0 0 0.557799 -334.41 303)">𝑎</text><text font-family="Cambria Math,Cambria Math_MSFontService,sans-serif" font-weight="400" font-size="14" transform="matrix(0.559149 0 0 0.557799 -328.632 305)">3</text><text font-family="Cambria Math,Cambria Math_MSFontService,sans-serif" font-weight="400" font-size="19" transform="matrix(0.559149 0 0 0.557799 -334.171 318)">𝑎</text><text font-family="Cambria Math,Cambria Math_MSFontService,sans-serif" font-weight="400" font-size="14" transform="matrix(0.559149 0 0 0.557799 -328.393 321)">5</text><text font-family="Cambria Math,Cambria Math_MSFontService,sans-serif" font-weight="400" font-size="19" transform="matrix(0.559149 0 0 0.557799 -330.433 336)">⋮</text><text font-family="Cambria Math,Cambria Math_MSFontService,sans-serif" font-weight="400" font-size="19" transform="matrix(0.559149 0 0 0.557799 -339.291 352)">𝑎</text><text font-family="Cambria Math,Cambria Math_MSFontService,sans-serif" font-weight="400" font-size="14" transform="matrix(0.559149 0 0 0.557799 -333.513 354)">𝐾</text><text font-family="Cambria Math,Cambria Math_MSFontService,sans-serif" font-weight="400" font-size="14" transform="matrix(0.559149 0 0 0.557799 -327.783 354)">−</text><text font-family="Cambria Math,Cambria Math_MSFontService,sans-serif" font-weight="400" font-size="14" transform="matrix(0.559149 0 0 0.557799 -322.285 354)">1</text><text font-family="Cambria Math,Cambria Math_MSFontService,sans-serif" font-weight="400" font-size="19" transform="matrix(0.559149 0 0 0.557799 -334.204 368)">𝑎</text><text font-family="Cambria Math,Cambria Math_MSFontService,sans-serif" font-weight="400" font-size="14" transform="matrix(0.559149 0 0 0.557799 -328.426 370)">𝐾</text><path d="M119.09 377.909C116.626 377.909 114.628 376.646 114.628 375.088L114.628 323.276C114.628 321.718 112.63 320.455 110.165 320.455 112.63 320.455 114.628 319.192 114.628 317.635L114.628 265.822C114.628 264.265 116.626 263.002 119.09 263.002" stroke="#00B0F0" stroke-width="0.74373" stroke-miterlimit="8" fill="none" fill-rule="evenodd" transform="matrix(1.00242 0 0 1 -461.347 -4.06836)"/><text fill="#FFFFFF" font-family="Cambria Math,Cambria Math_MSFontService,sans-serif" font-weight="400" font-size="16" transform="matrix(0.559149 0 0 0.557799 -398.642 313)">𝑁</text><text fill="#FFFFFF" font-family="Cambria Math,Cambria Math_MSFontService,sans-serif" font-weight="400" font-size="12" transform="matrix(0.559149 0 0 0.557799 -392.86 315)">𝑟</text><path d="M101.701 310.552C102.549 310.775 103.201 311.258 103.655 312.001 104.11 312.743 104.337 313.638 104.337 314.688 104.337 315.739 104.11 316.634 103.657 317.374 103.204 318.113 102.552 318.595 101.701 318.819L101.596 318.483C102.267 318.259 102.766 317.817 103.093 317.158 103.42 316.499 103.583 315.66 103.583 314.644 103.583 313.662 103.42 312.846 103.095 312.197 102.769 311.548 102.266 311.111 101.583 310.887ZM75.7619 310.552 75.8796 310.887C75.1996 311.111 74.6965 311.548 74.3696 312.197 74.0427 312.846 73.8793 313.662 73.8793 314.644 73.8793 315.66 74.0427 316.499 74.3696 317.158 74.6965 317.817 75.1952 318.259 75.8667 318.483L75.7619 318.819C74.9107 318.595 74.2586 318.113 73.8051 317.374 73.3522 316.634 73.1252 315.739 73.1252 314.688 73.1252 313.638 73.3527 312.743 73.8074 312.001 74.262 311.258 74.9135 310.775 75.7619 310.552Z" fill="#FFFFFF" fill-rule="evenodd" transform="matrix(1.00242 0 0 1 -461.347 -4.06836)"/><text fill="#FFFFFF" font-family="Cambria Math,Cambria Math_MSFontService,sans-serif" font-weight="400" font-size="16" transform="matrix(0.559149 0 0 0.557799 -385.118 313)">𝑁</text><text fill="#FFFFFF" font-family="Cambria Math,Cambria Math_MSFontService,sans-serif" font-weight="400" font-size="12" transform="matrix(0.559149 0 0 0.557799 -379.337 315)">𝑟</text><text fill="#FFFFFF" font-family="Cambria Math,Cambria Math_MSFontService,sans-serif" font-weight="400" font-size="16" transform="matrix(0.559149 0 0 0.557799 -373.32 313)">+</text><text fill="#FFFFFF" font-family="Cambria Math,Cambria Math_MSFontService,sans-serif" font-weight="400" font-size="16" transform="matrix(0.559149 0 0 0.557799 -364.623 313)">1</text><text fill="#FFFFFF" font-family="Cambria Math,Cambria Math_MSFontService,sans-serif" font-weight="400" font-size="16" transform="matrix(0.559149 0 0 0.557799 -379.776 326)">2</text><path d="M62.5499 321.2 73.148 321.2 83.7462 321.2 94.3444 321.2 104.943 321.2 104.943 321.758 94.3444 321.758 83.7462 321.758 73.148 321.758 62.5499 321.758Z" fill="#FFFFFF" fill-rule="evenodd" transform="matrix(1.00242 0 0 1 -461.347 -4.06836)"/><path d="M197.853 327.365C200.434 329.958 201.198 333.383 199.559 335.015L179.871 354.613C178.232 356.244 178.995 359.669 181.577 362.262 178.995 359.669 175.574 358.889 173.936 360.52L154.247 380.118C152.608 381.75 149.187 380.97 146.606 378.377" stroke="#00B0F0" stroke-width="0.74373" stroke-miterlimit="8" fill="none" fill-rule="evenodd" transform="matrix(1.00242 0 0 1 -461.347 -4.06836)"/><text fill="#FFFFFF" font-family="Cambria Math,Cambria Math_MSFontService,sans-serif" font-weight="400" font-size="16" transform="matrix(0.559149 0 0 0.557799 -278.697 362)">𝑁</text><text fill="#FFFFFF" font-family="Cambria Math,Cambria Math_MSFontService,sans-serif" font-weight="400" font-size="12" transform="matrix(0.559149 0 0 0.557799 -272.915 364)">𝑠</text><path d="M471.898 314.149 521.434 314.149 521.434 364.243 471.898 364.243Z" fill="#FFFFFF" transform="matrix(1.00242 0 0 1 -461.347 -4.06836)"/><path d="M521.433 314.149 614.694 220.888 614.694 270.982 521.433 364.242Z" fill="#CDCDCD" fill-rule="evenodd" transform="matrix(1.00242 0 0 1 -461.347 -4.06836)"/><path d="M471.898 314.149 565.156 220.888 614.694 220.888 521.433 314.149Z" fill="#FFFFFF" fill-rule="evenodd" transform="matrix(1.00242 0 0 1 -461.347 -4.06836)"/><path d="M471.898 314.149 565.156 220.888 614.694 220.888 614.694 270.982 521.433 364.242 471.898 364.242ZM471.898 314.149 521.433 314.149 614.694 220.888M521.433 314.149 521.433 364.242" stroke="#000000" stroke-width="1.1156" stroke-miterlimit="8" fill="none" fill-rule="evenodd" transform="matrix(1.00242 0 0 1 -461.347 -4.06836)"/><path d="M488.632 331.89 504.25 331.89 504.25 363.685 488.632 363.685Z" fill="#83CBEB" transform="matrix(1.00242 0 0 1 -461.347 -4.06836)"/><path d="M488.632 297.307 538.249 297.307" stroke="#000000" stroke-width="1.1156" stroke-miterlimit="8" fill="none" fill-rule="evenodd" transform="matrix(1.00242 0 0 1 -461.347 -4.06836)"/><path d="M504.808 281.688 554.426 281.688" stroke="#000000" stroke-width="1.1156" stroke-miterlimit="8" fill="none" fill-rule="evenodd" transform="matrix(1.00242 0 0 1 -461.347 -4.06836)"/><path d="M520.426 265.512 570.042 265.512" stroke="#000000" stroke-width="1.1156" stroke-miterlimit="8" fill="none" fill-rule="evenodd" transform="matrix(1.00242 0 0 1 -461.347 -4.06836)"/><path d="M535.487 251.009 585.103 251.009" stroke="#000000" stroke-width="1.1156" stroke-miterlimit="8" fill="none" fill-rule="evenodd" transform="matrix(1.00242 0 0 1 -461.347 -4.06836)"/><path d="M550.547 234.833 600.163 234.833" stroke="#000000" stroke-width="1.1156" stroke-miterlimit="8" fill="none" fill-rule="evenodd" transform="matrix(1.00242 0 0 1 -461.347 -4.06836)"/><path d="M480.822 305.674 530.44 305.674" stroke="#000000" stroke-width="1.1156" stroke-miterlimit="8" fill="none" fill-rule="evenodd" transform="matrix(1.00242 0 0 1 -461.347 -4.06836)"/><path d="M495.883 290.055 545.501 290.055" stroke="#000000" stroke-width="1.1156" stroke-miterlimit="8" fill="none" fill-rule="evenodd" transform="matrix(1.00242 0 0 1 -461.347 -4.06836)"/><path d="M512.059 273.879 561.675 273.879" stroke="#000000" stroke-width="1.1156" stroke-miterlimit="8" fill="none" fill-rule="evenodd" transform="matrix(1.00242 0 0 1 -461.347 -4.06836)"/><path d="M528.235 257.703 577.851 257.703" stroke="#000000" stroke-width="1.1156" stroke-miterlimit="8" fill="none" fill-rule="evenodd" transform="matrix(1.00242 0 0 1 -461.347 -4.06836)"/><path d="M542.738 243.2 592.354 243.2" stroke="#000000" stroke-width="1.1156" stroke-miterlimit="8" fill="none" fill-rule="evenodd" transform="matrix(1.00242 0 0 1 -461.347 -4.06836)"/><path d="M557.799 228.14 607.415 228.14" stroke="#000000" stroke-width="1.1156" stroke-miterlimit="8" fill="none" fill-rule="evenodd" transform="matrix(1.00242 0 0 1 -461.347 -4.06836)"/><path d="M538.276 297.864 538.276 347.686" stroke="#000000" stroke-width="1.1156" stroke-miterlimit="8" fill="none" fill-rule="evenodd" transform="matrix(1.00242 0 0 1 -461.347 -4.06836)"/><path d="M553.894 281.688 553.894 331.51" stroke="#000000" stroke-width="1.1156" stroke-miterlimit="8" fill="none" fill-rule="evenodd" transform="matrix(1.00242 0 0 1 -461.347 -4.06836)"/><path d="M570.07 265.512 570.07 315.334" stroke="#000000" stroke-width="1.1156" stroke-miterlimit="8" fill="none" fill-rule="evenodd" transform="matrix(1.00242 0 0 1 -461.347 -4.06836)"/><path d="M585.131 250.452 585.131 300.273" stroke="#000000" stroke-width="1.1156" stroke-miterlimit="8" fill="none" fill-rule="evenodd" transform="matrix(1.00242 0 0 1 -461.347 -4.06836)"/><path d="M600.191 234.833 600.191 284.655" stroke="#000000" stroke-width="1.1156" stroke-miterlimit="8" fill="none" fill-rule="evenodd" transform="matrix(1.00242 0 0 1 -461.347 -4.06836)"/><path d="M529.909 305.674 529.909 355.495" stroke="#000000" stroke-width="1.1156" stroke-miterlimit="8" fill="none" fill-rule="evenodd" transform="matrix(1.00242 0 0 1 -461.347 -4.06836)"/><path d="M545.527 290.613 545.527 340.435" stroke="#000000" stroke-width="1.1156" stroke-miterlimit="8" fill="none" fill-rule="evenodd" transform="matrix(1.00242 0 0 1 -461.347 -4.06836)"/><path d="M561.145 274.437 561.145 324.258" stroke="#000000" stroke-width="1.1156" stroke-miterlimit="8" fill="none" fill-rule="evenodd" transform="matrix(1.00242 0 0 1 -461.347 -4.06836)"/><path d="M577.322 258.261 577.322 308.082" stroke="#000000" stroke-width="1.1156" stroke-miterlimit="8" fill="none" fill-rule="evenodd" transform="matrix(1.00242 0 0 1 -461.347 -4.06836)"/><path d="M592.382 243.2 592.382 293.022" stroke="#000000" stroke-width="1.1156" stroke-miterlimit="8" fill="none" fill-rule="evenodd" transform="matrix(1.00242 0 0 1 -461.347 -4.06836)"/><path d="M606.885 228.14 606.885 277.961" stroke="#000000" stroke-width="1.1156" stroke-miterlimit="8" fill="none" fill-rule="evenodd" transform="matrix(1.00242 0 0 1 -461.347 -4.06836)"/><path d="M0 0 93.115 93.424" stroke="#000000" stroke-width="1.1156" stroke-miterlimit="8" fill="none" fill-rule="evenodd" transform="matrix(1.00242 0 0 -1 27.9083 310.244)"/><path d="M0 0 92.98 93.1044" stroke="#000000" stroke-width="1.1156" stroke-miterlimit="8" fill="none" fill-rule="evenodd" transform="matrix(1.00242 0 0 -1 44.6827 309.924)"/><path d="M0 0 92.8366 92.8673" stroke="#000000" stroke-width="1.1156" stroke-miterlimit="8" fill="none" fill-rule="evenodd" transform="matrix(1.00242 0 0 -1 61.4572 327.537)"/><path d="M0 0 92.98 92.9594" stroke="#000000" stroke-width="1.1156" stroke-miterlimit="8" fill="none" fill-rule="evenodd" transform="matrix(1.00242 0 0 -1 61.4572 344.363)"/><path d="M472.455 314.598 488.074 314.598 488.074 363.685 472.455 363.685Z" fill="#83CBEB" transform="matrix(1.00242 0 0 1 -461.347 -4.06836)"/><text font-family="Cambria Math,Cambria Math_MSFontService,sans-serif" font-weight="400" font-size="16" transform="matrix(0.559149 0 0 0.557799 15.8737 338)">𝑎</text><text font-family="Cambria Math,Cambria Math_MSFontService,sans-serif" font-weight="400" font-size="12" transform="matrix(0.559149 0 0 0.557799 20.8127 340)">2</text><text font-family="Cambria Math,Cambria Math_MSFontService,sans-serif" font-weight="400" font-size="16" transform="matrix(0.559149 0 0 0.557799 16.0962 354)">𝑎</text><text font-family="Cambria Math,Cambria Math_MSFontService,sans-serif" font-weight="400" font-size="12" transform="matrix(0.559149 0 0 0.557799 21.0352 356)">3</text><text font-family="Cambria Math,Cambria Math_MSFontService,sans-serif" font-weight="400" font-size="16" transform="matrix(0.559149 0 0 0.557799 31.7725 338)">𝑎</text><text font-family="Cambria Math,Cambria Math_MSFontService,sans-serif" font-weight="400" font-size="12" transform="matrix(0.559149 0 0 0.557799 36.7115 340)">5</text><text font-family="Cambria Math,Cambria Math_MSFontService,sans-serif" font-weight="400" font-size="16" transform="matrix(0.559149 0 0 0.557799 31.9951 354)">𝑎</text><text font-family="Cambria Math,Cambria Math_MSFontService,sans-serif" font-weight="400" font-size="12" transform="matrix(0.559149 0 0 0.557799 36.934 356)">6</text><path d="M504.808 348.066 520.984 348.066 520.984 363.685 504.808 363.685Z" fill="#83CBEB" transform="matrix(1.00242 0 0 1 -461.347 -4.06836)"/><text font-family="Cambria Math,Cambria Math_MSFontService,sans-serif" font-weight="400" font-size="16" transform="matrix(0.559149 0 0 0.557799 47.6166 354)">𝑎</text><text font-family="Cambria Math,Cambria Math_MSFontService,sans-serif" font-weight="400" font-size="12" transform="matrix(0.559149 0 0 0.557799 52.5561 356)">𝐾</text><text font-family="Cambria Math,Cambria Math_MSFontService,sans-serif" font-weight="400" font-size="16" transform="matrix(0.559149 0 0 0.557799 15.9145 322)">𝑎</text><text font-family="Cambria Math,Cambria Math_MSFontService,sans-serif" font-weight="400" font-size="12" transform="matrix(0.559149 0 0 0.557799 20.6449 324)">1</text><path d="M521.503 331.89 471.898 331.89" stroke="#000000" stroke-width="1.1156" stroke-miterlimit="8" fill="none" fill-rule="evenodd" transform="matrix(1.00242 0 0 1 -461.347 -4.06836)"/><path d="M488.632 314.041 488.632 363.85" stroke="#000000" stroke-width="1.1156" stroke-miterlimit="8" fill="none" fill-rule="evenodd" transform="matrix(1.00242 0 0 1 -461.347 -4.06836)"/><path d="M521.503 348.066 471.898 348.066" stroke="#000000" stroke-width="1.1156" stroke-miterlimit="8" fill="none" fill-rule="evenodd" transform="matrix(1.00242 0 0 1 -461.347 -4.06836)"/><path d="M504.25 314.041 504.25 363.85" stroke="#000000" stroke-width="1.1156" stroke-miterlimit="8" fill="none" fill-rule="evenodd" transform="matrix(1.00242 0 0 1 -461.347 -4.06836)"/><path d="M614.951 271.825C617.533 274.418 618.297 277.843 616.657 279.475L576.206 319.74C574.566 321.371 575.33 324.796 577.913 327.389 575.33 324.796 571.911 324.016 570.271 325.647L529.822 365.912C528.183 367.544 524.761 366.764 522.18 364.171" stroke="#00B0F0" stroke-width="0.74373" stroke-miterlimit="8" fill="none" fill-rule="evenodd" transform="matrix(1.00242 0 0 1 -461.347 -4.06836)"/><path d="M471.619 363.406C468.538 363.406 466.041 361.827 466.041 359.88L466.041 342.667C466.041 340.72 463.543 339.142 460.463 339.142 463.543 339.142 466.041 337.563 466.041 335.616L466.041 318.403C466.041 316.456 468.538 314.877 471.619 314.877" stroke="#00B0F0" stroke-width="0.74373" stroke-miterlimit="8" fill="none" fill-rule="evenodd" transform="matrix(1.00242 0 0 1 -461.347 -4.06836)"/><path d="M521.821 364.521C521.821 367.448 520.321 369.82 518.471 369.82L500.069 369.82C498.219 369.82 496.72 372.193 496.72 375.12 496.72 372.193 495.22 369.82 493.371 369.82L474.968 369.82C473.118 369.82 471.619 367.448 471.619 364.521" stroke="#00B0F0" stroke-width="0.74373" stroke-miterlimit="8" fill="none" fill-rule="evenodd" transform="matrix(1.00242 0 0 1 -461.347 -4.06836)"/><text fill="#FFFFFF" font-family="Cambria Math,Cambria Math_MSFontService,sans-serif" font-weight="400" font-size="16" transform="matrix(0.559149 0 0 0.557799 -11.0057 336)">𝑁</text><text fill="#FFFFFF" font-family="Cambria Math,Cambria Math_MSFontService,sans-serif" font-weight="400" font-size="12" transform="matrix(0.559149 0 0 0.557799 -5.22413 337)">𝑟</text><text fill="#FFFFFF" font-family="Cambria Math,Cambria Math_MSFontService,sans-serif" font-weight="400" font-size="16" transform="matrix(0.559149 0 0 0.557799 31.4454 378)">𝑁</text><text fill="#FFFFFF" font-family="Cambria Math,Cambria Math_MSFontService,sans-serif" font-weight="400" font-size="12" transform="matrix(0.559149 0 0 0.557799 37.227 380)">𝑐</text><text fill="#FFFFFF" font-family="Cambria Math,Cambria Math_MSFontService,sans-serif" font-weight="400" font-size="16" transform="matrix(0.559149 0 0 0.557799 118.356 330)">𝑁</text><text fill="#FFFFFF" font-family="Cambria Math,Cambria Math_MSFontService,sans-serif" font-weight="400" font-size="12" transform="matrix(0.559149 0 0 0.557799 124.138 332)">𝑠</text></g></svg>