<svg width="201" height="189" xmlns="http://www.w3.org/2000/svg" xmlns:xlink="http://www.w3.org/1999/xlink" xml:space="preserve" overflow="hidden"><defs><clipPath id="clip0"><rect x="0" y="0" width="201" height="189"/></clipPath></defs><g clip-path="url(#clip0)"><path d="M0 0 754.717 0 754.717 424.528 0 424.528Z" fill="#FFFFFF" transform="matrix(1.00092 0 0 1 -77.4071 -5.37028)"/><path d="M0 0 754.717 0 754.717 212.264 0 212.264Z" transform="matrix(1.00092 0 0 1 -77.4071 -5.37028)"/><path d="M107.311 112.347 159.469 112.347 159.469 165.095 107.311 165.095Z" fill="#FFFFFF" transform="matrix(1.00092 0 0 1 -77.4071 -5.37028)"/><path d="M159.469 112.347 257.665 14.1509 257.665 66.898 159.469 165.094Z" fill="#CDCDCD" fill-rule="evenodd" transform="matrix(1.00092 0 0 1 -77.4071 -5.37028)"/><path d="M107.311 112.347 205.508 14.1509 257.665 14.1509 159.469 112.347Z" fill="#FFFFFF" fill-rule="evenodd" transform="matrix(1.00092 0 0 1 -77.4071 -5.37028)"/><path d="M107.311 112.347 205.508 14.1509 257.665 14.1509 257.665 66.898 159.469 165.094 107.311 165.094ZM107.311 112.347 159.469 112.347 257.665 14.1509M159.469 112.347 159.469 165.094" stroke="#000000" stroke-width="1.17925" stroke-miterlimit="8" fill="none" fill-rule="evenodd" transform="matrix(1.00092 0 0 1 -77.4071 -5.37028)"/><path d="M125 94.9292 177.449 94.9292" stroke="#000000" stroke-width="1.17925" stroke-miterlimit="8" fill="none" fill-rule="evenodd" transform="matrix(1.00092 0 0 1 -77.4071 -5.37028)"/><path d="M141.509 77.8302 193.958 77.8302" stroke="#000000" stroke-width="1.17925" stroke-miterlimit="8" fill="none" fill-rule="evenodd" transform="matrix(1.00092 0 0 1 -77.4071 -5.37028)"/><path d="M158.608 61.3208 211.057 61.3208" stroke="#000000" stroke-width="1.17925" stroke-miterlimit="8" fill="none" fill-rule="evenodd" transform="matrix(1.00092 0 0 1 -77.4071 -5.37028)"/><path d="M173.939 45.4009 226.387 45.401" stroke="#000000" stroke-width="1.17925" stroke-miterlimit="8" fill="none" fill-rule="evenodd" transform="matrix(1.00092 0 0 1 -77.4071 -5.37028)"/><path d="M190.448 28.8915 242.897 28.8916" stroke="#000000" stroke-width="1.17925" stroke-miterlimit="8" fill="none" fill-rule="evenodd" transform="matrix(1.00092 0 0 1 -77.4071 -5.37028)"/><path d="M116.156 103.184 168.604 103.184" stroke="#000000" stroke-width="1.17925" stroke-miterlimit="8" fill="none" fill-rule="evenodd" transform="matrix(1.00092 0 0 1 -77.4071 -5.37028)"/><path d="M132.075 87.2641 184.524 87.2641" stroke="#000000" stroke-width="1.17925" stroke-miterlimit="8" fill="none" fill-rule="evenodd" transform="matrix(1.00092 0 0 1 -77.4071 -5.37028)"/><path d="M149.764 70.1651 202.213 70.1651" stroke="#000000" stroke-width="1.17925" stroke-miterlimit="8" fill="none" fill-rule="evenodd" transform="matrix(1.00092 0 0 1 -77.4071 -5.37028)"/><path d="M166.274 53.066 218.722 53.0661" stroke="#000000" stroke-width="1.17925" stroke-miterlimit="8" fill="none" fill-rule="evenodd" transform="matrix(1.00092 0 0 1 -77.4071 -5.37028)"/><path d="M181.604 37.1462 234.052 37.1463" stroke="#000000" stroke-width="1.17925" stroke-miterlimit="8" fill="none" fill-rule="evenodd" transform="matrix(1.00092 0 0 1 -77.4071 -5.37028)"/><path d="M198.113 21.816 250.562 21.8161" stroke="#000000" stroke-width="1.17925" stroke-miterlimit="8" fill="none" fill-rule="evenodd" transform="matrix(1.00092 0 0 1 -77.4071 -5.37028)"/><path d="M176.887 95.5189 176.887 148.183" stroke="#000000" stroke-width="1.17925" stroke-miterlimit="8" fill="none" fill-rule="evenodd" transform="matrix(1.00092 0 0 1 -77.4071 -5.37028)"/><path d="M193.396 78.4198 193.396 131.084" stroke="#000000" stroke-width="1.17925" stroke-miterlimit="8" fill="none" fill-rule="evenodd" transform="matrix(1.00092 0 0 1 -77.4071 -5.37028)"/><path d="M210.495 61.3208 210.495 113.985" stroke="#000000" stroke-width="1.17925" stroke-miterlimit="8" fill="none" fill-rule="evenodd" transform="matrix(1.00092 0 0 1 -77.4071 -5.37028)"/><path d="M226.415 44.8113 226.415 97.4752" stroke="#000000" stroke-width="1.17925" stroke-miterlimit="8" fill="none" fill-rule="evenodd" transform="matrix(1.00092 0 0 1 -77.4071 -5.37028)"/><path d="M242.925 28.8914 242.925 81.5554" stroke="#000000" stroke-width="1.17925" stroke-miterlimit="8" fill="none" fill-rule="evenodd" transform="matrix(1.00092 0 0 1 -77.4071 -5.37028)"/><path d="M168.042 103.184 168.042 155.848" stroke="#000000" stroke-width="1.17925" stroke-miterlimit="8" fill="none" fill-rule="evenodd" transform="matrix(1.00092 0 0 1 -77.4071 -5.37028)"/><path d="M184.552 87.2641 184.552 139.928" stroke="#000000" stroke-width="1.17925" stroke-miterlimit="8" fill="none" fill-rule="evenodd" transform="matrix(1.00092 0 0 1 -77.4071 -5.37028)"/><path d="M201.651 70.7547 201.651 123.419" stroke="#000000" stroke-width="1.17925" stroke-miterlimit="8" fill="none" fill-rule="evenodd" transform="matrix(1.00092 0 0 1 -77.4071 -5.37028)"/><path d="M218.75 53.066 218.75 105.73" stroke="#000000" stroke-width="1.17925" stroke-miterlimit="8" fill="none" fill-rule="evenodd" transform="matrix(1.00092 0 0 1 -77.4071 -5.37028)"/><path d="M234.08 37.1462 234.08 89.8101" stroke="#000000" stroke-width="1.17925" stroke-miterlimit="8" fill="none" fill-rule="evenodd" transform="matrix(1.00092 0 0 1 -77.4071 -5.37028)"/><path d="M250 21.816 250 74.4799" stroke="#000000" stroke-width="1.17925" stroke-miterlimit="8" fill="none" fill-rule="evenodd" transform="matrix(1.00092 0 0 1 -77.4071 -5.37028)"/><path d="M124.41 112.618 124.41 165.269" stroke="#000000" stroke-width="1.17925" stroke-miterlimit="8" fill="none" fill-rule="evenodd" transform="matrix(1.00092 0 0 1 -77.4071 -5.37028)"/><path d="M141.509 112.618 141.509 165.269" stroke="#000000" stroke-width="1.17925" stroke-miterlimit="8" fill="none" fill-rule="evenodd" transform="matrix(1.00092 0 0 1 -77.4071 -5.37028)"/><path d="M159.157 131.486 106.722 131.486" stroke="#000000" stroke-width="1.17925" stroke-miterlimit="8" fill="none" fill-rule="evenodd" transform="matrix(1.00092 0 0 1 -77.4071 -5.37028)"/><path d="M159.157 148.585 106.722 148.585" stroke="#000000" stroke-width="1.17925" stroke-miterlimit="8" fill="none" fill-rule="evenodd" transform="matrix(1.00092 0 0 1 -77.4071 -5.37028)"/><path d="M0 0 98.4275 98.7541" stroke="#000000" stroke-width="1.17925" stroke-miterlimit="8" fill="none" fill-rule="evenodd" transform="matrix(1.00092 0 0 -1 47.1179 107.535)"/><path d="M0 0 98.2848 98.4163" stroke="#000000" stroke-width="1.17925" stroke-miterlimit="8" fill="none" fill-rule="evenodd" transform="matrix(1.00092 0 0 -1 64.2327 107.197)"/><path d="M0 0 98.1333 98.1657" stroke="#000000" stroke-width="1.17925" stroke-miterlimit="8" fill="none" fill-rule="evenodd" transform="matrix(1.00092 0 0 -1 82.5278 125.814)"/><path d="M0 0 98.2848 98.263" stroke="#000000" stroke-width="1.17925" stroke-miterlimit="8" fill="none" fill-rule="evenodd" transform="matrix(1.00092 0 0 -1 81.9376 143.6)"/><text font-family="Cambria Math,Cambria Math_MSFontService,sans-serif" font-weight="400" font-size="16" transform="matrix(0.590166 0 0 0.589623 34.0729 120)">𝑎</text><text font-family="Cambria Math,Cambria Math_MSFontService,sans-serif" font-weight="400" font-size="12" transform="matrix(0.590166 0 0 0.589623 39.0657 121)">1</text><text font-family="Cambria Math,Cambria Math_MSFontService,sans-serif" font-weight="400" font-size="16" transform="matrix(0.590166 0 0 0.589623 34.0298 137)">𝑎</text><text font-family="Cambria Math,Cambria Math_MSFontService,sans-serif" font-weight="400" font-size="12" transform="matrix(0.590166 0 0 0.589623 39.2427 139)">2</text><text font-family="Cambria Math,Cambria Math_MSFontService,sans-serif" font-weight="400" font-size="16" transform="matrix(0.590166 0 0 0.589623 34.2647 154)">𝑎</text><text font-family="Cambria Math,Cambria Math_MSFontService,sans-serif" font-weight="400" font-size="12" transform="matrix(0.590166 0 0 0.589623 39.4776 156)">3</text><text font-family="Cambria Math,Cambria Math_MSFontService,sans-serif" font-weight="400" font-size="16" transform="matrix(0.590166 0 0 0.589623 50.8105 137)">𝑎</text><text font-family="Cambria Math,Cambria Math_MSFontService,sans-serif" font-weight="400" font-size="12" transform="matrix(0.590166 0 0 0.589623 56.0235 139)">5</text><text font-family="Cambria Math,Cambria Math_MSFontService,sans-serif" font-weight="400" font-size="16" transform="matrix(0.590166 0 0 0.589623 51.0454 154)">𝑎</text><text font-family="Cambria Math,Cambria Math_MSFontService,sans-serif" font-weight="400" font-size="12" transform="matrix(0.590166 0 0 0.589623 56.2584 156)">6</text><text font-family="Cambria Math,Cambria Math_MSFontService,sans-serif" font-weight="400" font-size="12" transform="matrix(0.590166 0 0 0.589623 65.7653 136)">𝑎</text><text font-family="Cambria Math,Cambria Math_MSFontService,sans-serif" font-weight="400" font-size="9" transform="matrix(0.590166 0 0 0.589623 69.7 138)">𝐾</text><text font-family="Cambria Math,Cambria Math_MSFontService,sans-serif" font-weight="400" font-size="9" transform="matrix(0.590166 0 0 0.589623 73.5951 138)">−</text><text font-family="Cambria Math,Cambria Math_MSFontService,sans-serif" font-weight="400" font-size="9" transform="matrix(0.590166 0 0 0.589623 77.3326 138)">1</text><text font-family="Cambria Math,Cambria Math_MSFontService,sans-serif" font-weight="400" font-size="16" transform="matrix(0.590166 0 0 0.589623 67.5341 154)">𝑎</text><text font-family="Cambria Math,Cambria Math_MSFontService,sans-serif" font-weight="400" font-size="12" transform="matrix(0.590166 0 0 0.589623 72.747 156)">𝐾</text><text font-family="Cambria Math,Cambria Math_MSFontService,sans-serif" font-weight="400" font-size="16" transform="matrix(0.590166 0 0 0.589623 68.2263 120)">𝑎</text><text font-family="Cambria Math,Cambria Math_MSFontService,sans-serif" font-weight="400" font-size="12" transform="matrix(0.590166 0 0 0.589623 73.4393 121)">𝑘</text><text font-family="Cambria Math,Cambria Math_MSFontService,sans-serif" font-weight="400" font-size="16" transform="matrix(0.590166 0 0 0.589623 50.5934 120)">𝑎</text><text font-family="Cambria Math,Cambria Math_MSFontService,sans-serif" font-weight="400" font-size="12" transform="matrix(0.590166 0 0 0.589623 55.8069 121)">4</text><path d="M257.496 68.0879C260.224 70.829 261.032 74.4493 259.299 76.1739L216.864 118.414C215.131 120.139 215.939 123.759 218.667 126.5 215.939 123.759 212.323 122.935 210.59 124.659L168.154 166.899C166.422 168.624 162.805 167.8 160.077 165.058" stroke="#00B0F0" stroke-width="0.786162" stroke-miterlimit="8" fill="none" fill-rule="evenodd" transform="matrix(1.00092 0 0 1 -77.4071 -5.37028)"/><path d="M107.017 164.8C103.923 164.8 101.415 163.215 101.415 161.259L101.415 142.691C101.415 140.736 98.9074 139.151 95.8137 139.151 98.9074 139.151 101.415 137.566 101.415 135.611L101.415 117.042C101.415 115.087 103.923 113.502 107.017 113.502" stroke="#00B0F0" stroke-width="0.786162" stroke-miterlimit="8" fill="none" fill-rule="evenodd" transform="matrix(1.00092 0 0 1 -77.4071 -5.37028)"/><path d="M158.314 165.389C158.314 168.483 156.729 170.991 154.774 170.991L136.795 170.991C134.84 170.991 133.255 173.498 133.255 176.592 133.255 173.498 131.67 170.991 129.715 170.991L111.736 170.991C109.781 170.991 108.196 168.483 108.196 165.389" stroke="#00B0F0" stroke-width="0.786162" stroke-miterlimit="8" fill="none" fill-rule="evenodd" transform="matrix(1.00092 0 0 1 -77.4071 -5.37028)"/><text fill="#FFFFFF" font-family="Cambria Math,Cambria Math_MSFontService,sans-serif" font-weight="400" font-size="16" transform="matrix(0.590166 0 0 0.589623 6.09015 135)">𝑁</text><text fill="#FFFFFF" font-family="Cambria Math,Cambria Math_MSFontService,sans-serif" font-weight="400" font-size="12" transform="matrix(0.590166 0 0 0.589623 12.1925 137)">𝑟</text><text fill="#FFFFFF" font-family="Cambria Math,Cambria Math_MSFontService,sans-serif" font-weight="400" font-size="16" transform="matrix(0.590166 0 0 0.589623 50.8955 180)">𝑁</text><text fill="#FFFFFF" font-family="Cambria Math,Cambria Math_MSFontService,sans-serif" font-weight="400" font-size="12" transform="matrix(0.590166 0 0 0.589623 56.9978 182)">𝑐</text><text fill="#FFFFFF" font-family="Cambria Math,Cambria Math_MSFontService,sans-serif" font-weight="400" font-size="16" transform="matrix(0.590166 0 0 0.589623 142.63 129)">𝑁</text><text fill="#FFFFFF" font-family="Cambria Math,Cambria Math_MSFontService,sans-serif" font-weight="400" font-size="12" transform="matrix(0.590166 0 0 0.589623 148.733 131)">𝑠</text><path d="M538.325 68.046 567.579 68.046 567.579 191.038 538.325 191.038Z" fill="#FFFFFF" transform="matrix(1.00092 0 0 1 -77.4071 -5.37028)"/><path d="M567.578 68.046 622.653 12.9717 622.653 135.963 567.578 191.038Z" fill="#CDCDCD" fill-rule="evenodd" transform="matrix(1.00092 0 0 1 -77.4071 -5.37028)"/><path d="M538.325 68.046 593.402 12.9717 622.653 12.9717 567.578 68.046Z" fill="#FFFFFF" fill-rule="evenodd" transform="matrix(1.00092 0 0 1 -77.4071 -5.37028)"/><path d="M538.325 68.046 593.402 12.9717 622.653 12.9717 622.653 135.963 567.578 191.038 538.325 191.038ZM538.325 68.046 567.578 68.046 622.653 12.9717M567.578 68.046 567.578 191.038" stroke="#000000" stroke-width="1.17925" stroke-miterlimit="8" fill="none" fill-rule="evenodd" transform="matrix(1.00092 0 0 1 -77.4071 -5.37028)"/><path d="M0 0 55.0718 55.1143" stroke="#000000" stroke-width="1.17925" stroke-miterlimit="8" fill="none" fill-rule="evenodd" transform="matrix(1.00092 0 0 -1 490.922 98.0932)"/><path d="M0 0 55.0718 55.1143" stroke="#000000" stroke-width="1.17925" stroke-miterlimit="8" fill="none" fill-rule="evenodd" transform="matrix(1.00092 0 0 -1 490.922 80.9941)"/><path d="M538.325 86.6745 567.584 86.6745" stroke="#000000" stroke-width="1.17925" stroke-miterlimit="8" fill="none" fill-rule="evenodd" transform="matrix(1.00092 0 0 1 -77.4071 -5.37028)"/><path d="M538.325 103.184 567.584 103.184" stroke="#000000" stroke-width="1.17925" stroke-miterlimit="8" fill="none" fill-rule="evenodd" transform="matrix(1.00092 0 0 1 -77.4071 -5.37028)"/><path d="M584.316 51.2972 584.316 173.864" stroke="#000000" stroke-width="1.17925" stroke-miterlimit="8" fill="none" fill-rule="evenodd" transform="matrix(1.00092 0 0 1 -77.4071 -5.37028)"/><path d="M576.061 60.1415 576.061 182.709" stroke="#000000" stroke-width="1.17925" stroke-miterlimit="8" fill="none" fill-rule="evenodd" transform="matrix(1.00092 0 0 1 -77.4071 -5.37028)"/><path d="M600.236 35.3774 600.236 157.945" stroke="#000000" stroke-width="1.17925" stroke-miterlimit="8" fill="none" fill-rule="evenodd" transform="matrix(1.00092 0 0 1 -77.4071 -5.37028)"/><path d="M592.571 43.6321 592.571 166.199" stroke="#000000" stroke-width="1.17925" stroke-miterlimit="8" fill="none" fill-rule="evenodd" transform="matrix(1.00092 0 0 1 -77.4071 -5.37028)"/><path d="M616.156 19.4575 616.156 143.139" stroke="#000000" stroke-width="1.17925" stroke-miterlimit="8" fill="none" fill-rule="evenodd" transform="matrix(1.00092 0 0 1 -77.4071 -5.37028)"/><path d="M607.901 27.7123 607.901 150.279" stroke="#000000" stroke-width="1.17925" stroke-miterlimit="8" fill="none" fill-rule="evenodd" transform="matrix(1.00092 0 0 1 -77.4071 -5.37028)"/><path d="M0 0 29.7401 6.19027e-05" stroke="#000000" stroke-width="1.17925" stroke-miterlimit="8" fill="none" fill-rule="evenodd" transform="matrix(-1.00092 0 0 1 499.444 54.7712)"/><path d="M0 0 29.7401 6.19027e-05" stroke="#000000" stroke-width="1.17925" stroke-miterlimit="8" fill="none" fill-rule="evenodd" transform="matrix(-1.00092 0 0 1 507.706 45.9269)"/><path d="M0 0 29.7401 6.19027e-05" stroke="#000000" stroke-width="1.17925" stroke-miterlimit="8" fill="none" fill-rule="evenodd" transform="matrix(-1.00092 0 0 1 515.969 38.2618)"/><path d="M0 0 28.6569 6.19027e-05" stroke="#000000" stroke-width="1.17925" stroke-miterlimit="8" fill="none" fill-rule="evenodd" transform="matrix(-1.00092 0 0 1 523.736 29.4175)"/><path d="M0 0 29.7401 6.19027e-05" stroke="#000000" stroke-width="1.17925" stroke-miterlimit="8" fill="none" fill-rule="evenodd" transform="matrix(-1.00092 0 0 1 531.313 22.342)"/><path d="M0 0 28.5608 6.19027e-05" stroke="#000000" stroke-width="1.17925" stroke-miterlimit="8" fill="none" fill-rule="evenodd" transform="matrix(-1.00092 0 0 1 538.985 14.0873)"/><path d="M0 0 55.0718 55.1143" stroke="#000000" stroke-width="1.17925" stroke-miterlimit="8" fill="none" fill-rule="evenodd" transform="matrix(1.00092 0 0 -1 491.513 132.881)"/><path d="M0 0 55.0718 55.1143" stroke="#000000" stroke-width="1.17925" stroke-miterlimit="8" fill="none" fill-rule="evenodd" transform="matrix(1.00092 0 0 -1 491.513 115.782)"/><path d="M538.915 120.873 568.173 120.873" stroke="#000000" stroke-width="1.17925" stroke-miterlimit="8" fill="none" fill-rule="evenodd" transform="matrix(1.00092 0 0 1 -77.4071 -5.37028)"/><path d="M538.915 137.972 568.173 137.972" stroke="#000000" stroke-width="1.17925" stroke-miterlimit="8" fill="none" fill-rule="evenodd" transform="matrix(1.00092 0 0 1 -77.4071 -5.37028)"/><path d="M0 0 55.0718 55.1143" stroke="#000000" stroke-width="1.17925" stroke-miterlimit="8" fill="none" fill-rule="evenodd" transform="matrix(1.00092 0 0 -1 490.332 150.57)"/><path d="M538.325 155.66 567.584 155.66" stroke="#000000" stroke-width="1.17925" stroke-miterlimit="8" fill="none" fill-rule="evenodd" transform="matrix(1.00092 0 0 1 -77.4071 -5.37028)"/><path d="M0 0 55.0718 55.1143" stroke="#000000" stroke-width="1.17925" stroke-miterlimit="8" fill="none" fill-rule="evenodd" transform="matrix(1.00092 0 0 -1 490.922 167.669)"/><path d="M538.325 173.349 567.584 173.349" stroke="#000000" stroke-width="1.17925" stroke-miterlimit="8" fill="none" fill-rule="evenodd" transform="matrix(1.00092 0 0 1 -77.4071 -5.37028)"/><text font-family="Cambria Math,Cambria Math_MSFontService,sans-serif" font-weight="400" font-size="19" transform="matrix(0.590166 0 0 0.589623 470.429 76)">𝑎</text><text font-family="Cambria Math,Cambria Math_MSFontService,sans-serif" font-weight="400" font-size="14" transform="matrix(0.590166 0 0 0.589623 476.273 78)">1</text><text font-family="Cambria Math,Cambria Math_MSFontService,sans-serif" font-weight="400" font-size="19" transform="matrix(0.590166 0 0 0.589623 470.004 92)">𝑎</text><text font-family="Cambria Math,Cambria Math_MSFontService,sans-serif" font-weight="400" font-size="14" transform="matrix(0.590166 0 0 0.589623 476.102 94)">2</text><text font-family="Cambria Math,Cambria Math_MSFontService,sans-serif" font-weight="400" font-size="19" transform="matrix(0.590166 0 0 0.589623 470.252 110)">𝑎</text><text font-family="Cambria Math,Cambria Math_MSFontService,sans-serif" font-weight="400" font-size="14" transform="matrix(0.590166 0 0 0.589623 476.35 112)">3</text><text font-family="Cambria Math,Cambria Math_MSFontService,sans-serif" font-weight="400" font-size="19" transform="matrix(0.590166 0 0 0.589623 470.504 126)">𝑎</text><text font-family="Cambria Math,Cambria Math_MSFontService,sans-serif" font-weight="400" font-size="14" transform="matrix(0.590166 0 0 0.589623 476.603 128)">4</text><text font-family="Cambria Math,Cambria Math_MSFontService,sans-serif" font-weight="400" font-size="19" transform="matrix(0.590166 0 0 0.589623 474.449 145)">⋮</text><text font-family="Cambria Math,Cambria Math_MSFontService,sans-serif" font-weight="400" font-size="19" transform="matrix(0.590166 0 0 0.589623 465.1 161)">𝑎</text><text font-family="Cambria Math,Cambria Math_MSFontService,sans-serif" font-weight="400" font-size="14" transform="matrix(0.590166 0 0 0.589623 471.199 164)">𝐾</text><text font-family="Cambria Math,Cambria Math_MSFontService,sans-serif" font-weight="400" font-size="14" transform="matrix(0.590166 0 0 0.589623 477.246 164)">−</text><text font-family="Cambria Math,Cambria Math_MSFontService,sans-serif" font-weight="400" font-size="14" transform="matrix(0.590166 0 0 0.589623 483.05 164)">1</text><text font-family="Cambria Math,Cambria Math_MSFontService,sans-serif" font-weight="400" font-size="19" transform="matrix(0.590166 0 0 0.589623 470.469 179)">𝑎</text><text font-family="Cambria Math,Cambria Math_MSFontService,sans-serif" font-weight="400" font-size="14" transform="matrix(0.590166 0 0 0.589623 476.567 181)">𝐾</text><path d="M539.21 190.743C536.605 190.743 534.493 189.408 534.493 187.762L534.493 132.698C534.493 131.052 532.381 129.717 529.776 129.717 532.381 129.717 534.493 128.382 534.493 126.736L534.493 71.6722C534.493 70.0259 536.605 68.691 539.21 68.691" stroke="#00B0F0" stroke-width="0.786162" stroke-miterlimit="8" fill="none" fill-rule="evenodd" transform="matrix(1.00092 0 0 1 -77.4071 -5.37028)"/><text fill="#FFFFFF" font-family="Cambria Math,Cambria Math_MSFontService,sans-serif" font-weight="400" font-size="16" transform="matrix(0.590166 0 0 0.589623 421.012 127)">𝑁</text><text fill="#FFFFFF" font-family="Cambria Math,Cambria Math_MSFontService,sans-serif" font-weight="400" font-size="12" transform="matrix(0.590166 0 0 0.589623 427.114 128)">𝑟</text><text fill="#FFFFFF" font-family="Cambria Math,Cambria Math_MSFontService,sans-serif" font-weight="400" font-size="16" transform="matrix(0.590166 0 0 0.589623 433.464 127)">∗</text><text fill="#FFFFFF" font-family="Cambria Math,Cambria Math_MSFontService,sans-serif" font-weight="400" font-size="16" transform="matrix(0.590166 0 0 0.589623 440.086 127)">𝑁</text><text fill="#FFFFFF" font-family="Cambria Math,Cambria Math_MSFontService,sans-serif" font-weight="400" font-size="12" transform="matrix(0.590166 0 0 0.589623 446.188 128)">𝑐</text><path d="M622.441 136.95C625.171 139.692 625.979 143.311 624.245 145.036L603.432 165.752C601.698 167.476 602.506 171.097 605.236 173.838 602.506 171.097 598.891 170.272 597.158 171.997L576.347 192.713C574.614 194.437 570.998 193.614 568.269 190.873" stroke="#00B0F0" stroke-width="0.786162" stroke-miterlimit="8" fill="none" fill-rule="evenodd" transform="matrix(1.00092 0 0 1 -77.4071 -5.37028)"/><text fill="#FFFFFF" font-family="Cambria Math,Cambria Math_MSFontService,sans-serif" font-weight="400" font-size="16" transform="matrix(0.590166 0 0 0.589623 529.053 173)">𝑁</text><text fill="#FFFFFF" font-family="Cambria Math,Cambria Math_MSFontService,sans-serif" font-weight="400" font-size="12" transform="matrix(0.590166 0 0 0.589623 535.155 175)">𝑠</text><path d="M0 212.264 754.717 212.264 754.717 424.528 0 424.528Z" transform="matrix(1.00092 0 0 1 -77.4071 -5.37028)"/><path d="M125 277.15 154.454 277.15 154.454 400.354 125 400.354Z" fill="#FFFFFF" transform="matrix(1.00092 0 0 1 -77.4071 -5.37028)"/><path d="M154.454 277.15 209.906 221.698 209.906 344.902 154.454 400.354Z" fill="#CDCDCD" fill-rule="evenodd" transform="matrix(1.00092 0 0 1 -77.4071 -5.37028)"/><path d="M125 277.15 180.452 221.698 209.906 221.698 154.454 277.15Z" fill="#FFFFFF" fill-rule="evenodd" transform="matrix(1.00092 0 0 1 -77.4071 -5.37028)"/><path d="M125 277.15 180.452 221.698 209.906 221.698 209.906 344.902 154.454 400.354 125 400.354ZM125 277.15 154.454 277.15 209.906 221.698M154.454 277.15 154.454 400.354" stroke="#000000" stroke-width="1.17925" stroke-miterlimit="8" fill="none" fill-rule="evenodd" transform="matrix(1.00092 0 0 1 -77.4071 -5.37028)"/><path d="M0 0 55.0718 55.1143" stroke="#000000" stroke-width="1.17925" stroke-miterlimit="8" fill="none" fill-rule="evenodd" transform="matrix(1.00092 0 0 -1 77.2163 307.409)"/><path d="M0 0 55.0718 55.1143" stroke="#000000" stroke-width="1.17925" stroke-miterlimit="8" fill="none" fill-rule="evenodd" transform="matrix(1.00092 0 0 -1 77.2163 290.31)"/><path d="M125 295.401 154.258 295.401" stroke="#000000" stroke-width="1.17925" stroke-miterlimit="8" fill="none" fill-rule="evenodd" transform="matrix(1.00092 0 0 1 -77.4071 -5.37028)"/><path d="M125 312.5 154.258 312.5" stroke="#000000" stroke-width="1.17925" stroke-miterlimit="8" fill="none" fill-rule="evenodd" transform="matrix(1.00092 0 0 1 -77.4071 -5.37028)"/><path d="M170.991 260.613 170.991 383.18" stroke="#000000" stroke-width="1.17925" stroke-miterlimit="8" fill="none" fill-rule="evenodd" transform="matrix(1.00092 0 0 1 -77.4071 -5.37028)"/><path d="M162.736 268.868 162.736 391.435" stroke="#000000" stroke-width="1.17925" stroke-miterlimit="8" fill="none" fill-rule="evenodd" transform="matrix(1.00092 0 0 1 -77.4071 -5.37028)"/><path d="M186.91 244.693 186.91 367.261" stroke="#000000" stroke-width="1.17925" stroke-miterlimit="8" fill="none" fill-rule="evenodd" transform="matrix(1.00092 0 0 1 -77.4071 -5.37028)"/><path d="M179.245 252.948 179.245 375.515" stroke="#000000" stroke-width="1.17925" stroke-miterlimit="8" fill="none" fill-rule="evenodd" transform="matrix(1.00092 0 0 1 -77.4071 -5.37028)"/><path d="M202.83 228.184 202.83 351.866" stroke="#000000" stroke-width="1.17925" stroke-miterlimit="8" fill="none" fill-rule="evenodd" transform="matrix(1.00092 0 0 1 -77.4071 -5.37028)"/><path d="M194.575 237.028 194.575 359.596" stroke="#000000" stroke-width="1.17925" stroke-miterlimit="8" fill="none" fill-rule="evenodd" transform="matrix(1.00092 0 0 1 -77.4071 -5.37028)"/><path d="M0 0 29.7401 6.19027e-05" stroke="#000000" stroke-width="1.17925" stroke-miterlimit="8" fill="none" fill-rule="evenodd" transform="matrix(-1.00092 0 0 1 85.7377 263.498)"/><path d="M0 0 29.7401 6.19027e-05" stroke="#000000" stroke-width="1.17925" stroke-miterlimit="8" fill="none" fill-rule="evenodd" transform="matrix(-1.00092 0 0 1 94 255.243)"/><path d="M0 0 29.7401 6.19027e-05" stroke="#000000" stroke-width="1.17925" stroke-miterlimit="8" fill="none" fill-rule="evenodd" transform="matrix(-1.00092 0 0 1 102.262 247.578)"/><path d="M0 0 28.6569 6.19027e-05" stroke="#000000" stroke-width="1.17925" stroke-miterlimit="8" fill="none" fill-rule="evenodd" transform="matrix(-1.00092 0 0 1 110.031 238.733)"/><path d="M0 0 29.7401 6.19027e-05" stroke="#000000" stroke-width="1.17925" stroke-miterlimit="8" fill="none" fill-rule="evenodd" transform="matrix(-1.00092 0 0 1 117.607 231.658)"/><path d="M0 0 28.5608 6.19027e-05" stroke="#000000" stroke-width="1.17925" stroke-miterlimit="8" fill="none" fill-rule="evenodd" transform="matrix(-1.00092 0 0 1 125.279 223.403)"/><path d="M0 0 55.0718 55.1143" stroke="#000000" stroke-width="1.17925" stroke-miterlimit="8" fill="none" fill-rule="evenodd" transform="matrix(1.00092 0 0 -1 77.8065 342.197)"/><path d="M0 0 55.0718 55.1143" stroke="#000000" stroke-width="1.17925" stroke-miterlimit="8" fill="none" fill-rule="evenodd" transform="matrix(1.00092 0 0 -1 77.8065 324.508)"/><path d="M125.59 330.189 154.848 330.189" stroke="#000000" stroke-width="1.17925" stroke-miterlimit="8" fill="none" fill-rule="evenodd" transform="matrix(1.00092 0 0 1 -77.4071 -5.37028)"/><path d="M125.59 347.288 154.848 347.288" stroke="#000000" stroke-width="1.17925" stroke-miterlimit="8" fill="none" fill-rule="evenodd" transform="matrix(1.00092 0 0 1 -77.4071 -5.37028)"/><path d="M0 0 55.0718 55.1143" stroke="#000000" stroke-width="1.17925" stroke-miterlimit="8" fill="none" fill-rule="evenodd" transform="matrix(1.00092 0 0 -1 76.6262 359.886)"/><path d="M125 364.976 154.258 364.976" stroke="#000000" stroke-width="1.17925" stroke-miterlimit="8" fill="none" fill-rule="evenodd" transform="matrix(1.00092 0 0 1 -77.4071 -5.37028)"/><path d="M0 0 55.0718 55.1143" stroke="#000000" stroke-width="1.17925" stroke-miterlimit="8" fill="none" fill-rule="evenodd" transform="matrix(1.00092 0 0 -1 77.2163 376.985)"/><path d="M125 382.665 154.258 382.665" stroke="#000000" stroke-width="1.17925" stroke-miterlimit="8" fill="none" fill-rule="evenodd" transform="matrix(1.00092 0 0 1 -77.4071 -5.37028)"/><text font-family="Cambria Math,Cambria Math_MSFontService,sans-serif" font-weight="400" font-size="19" transform="matrix(0.590166 0 0 0.589623 56.7494 285)">𝑎</text><text font-family="Cambria Math,Cambria Math_MSFontService,sans-serif" font-weight="400" font-size="14" transform="matrix(0.590166 0 0 0.589623 62.592 287)">1</text><text font-family="Cambria Math,Cambria Math_MSFontService,sans-serif" font-weight="400" font-size="19" transform="matrix(0.590166 0 0 0.589623 56.3239 301)">𝑎</text><text font-family="Cambria Math,Cambria Math_MSFontService,sans-serif" font-weight="400" font-size="14" transform="matrix(0.590166 0 0 0.589623 62.422 303)">2</text><text font-family="Cambria Math,Cambria Math_MSFontService,sans-serif" font-weight="400" font-size="19" transform="matrix(0.590166 0 0 0.589623 56.5711 319)">𝑎</text><text font-family="Cambria Math,Cambria Math_MSFontService,sans-serif" font-weight="400" font-size="14" transform="matrix(0.590166 0 0 0.589623 62.6699 321)">3</text><text font-family="Cambria Math,Cambria Math_MSFontService,sans-serif" font-weight="400" font-size="19" transform="matrix(0.590166 0 0 0.589623 56.8237 335)">𝑎</text><text font-family="Cambria Math,Cambria Math_MSFontService,sans-serif" font-weight="400" font-size="14" transform="matrix(0.590166 0 0 0.589623 62.9219 338)">5</text><text font-family="Cambria Math,Cambria Math_MSFontService,sans-serif" font-weight="400" font-size="19" transform="matrix(0.590166 0 0 0.589623 60.769 354)">⋮</text><text font-family="Cambria Math,Cambria Math_MSFontService,sans-serif" font-weight="400" font-size="19" transform="matrix(0.590166 0 0 0.589623 51.4202 371)">𝑎</text><text font-family="Cambria Math,Cambria Math_MSFontService,sans-serif" font-weight="400" font-size="14" transform="matrix(0.590166 0 0 0.589623 57.5184 373)">𝐾</text><text font-family="Cambria Math,Cambria Math_MSFontService,sans-serif" font-weight="400" font-size="14" transform="matrix(0.590166 0 0 0.589623 63.5658 373)">−</text><text font-family="Cambria Math,Cambria Math_MSFontService,sans-serif" font-weight="400" font-size="14" transform="matrix(0.590166 0 0 0.589623 69.3689 373)">1</text><text font-family="Cambria Math,Cambria Math_MSFontService,sans-serif" font-weight="400" font-size="19" transform="matrix(0.590166 0 0 0.589623 56.7889 388)">𝑎</text><text font-family="Cambria Math,Cambria Math_MSFontService,sans-serif" font-weight="400" font-size="14" transform="matrix(0.590166 0 0 0.589623 62.8871 390)">𝐾</text><path d="M125.884 399.469C123.279 399.469 121.167 398.134 121.167 396.488L121.167 341.719C121.167 340.073 119.055 338.738 116.45 338.738 119.055 338.738 121.167 337.403 121.167 335.757L121.167 280.988C121.167 279.342 123.279 278.007 125.884 278.007" stroke="#00B0F0" stroke-width="0.786162" stroke-miterlimit="8" fill="none" fill-rule="evenodd" transform="matrix(1.00092 0 0 1 -77.4071 -5.37028)"/><text fill="#FFFFFF" font-family="Cambria Math,Cambria Math_MSFontService,sans-serif" font-weight="400" font-size="16" transform="matrix(0.590166 0 0 0.589623 -11.2235 330)">𝑁</text><text fill="#FFFFFF" font-family="Cambria Math,Cambria Math_MSFontService,sans-serif" font-weight="400" font-size="12" transform="matrix(0.590166 0 0 0.589623 -5.12122 332)">𝑟</text><path d="M107.503 328.269C108.4 328.506 109.088 329.017 109.569 329.801 110.05 330.586 110.289 331.532 110.289 332.641 110.289 333.753 110.05 334.699 109.571 335.481 109.092 336.262 108.403 336.772 107.503 337.008L107.392 336.653C108.101 336.417 108.629 335.95 108.975 335.253 109.32 334.556 109.493 333.67 109.493 332.595 109.493 331.557 109.321 330.695 108.977 330.009 108.633 329.323 108.1 328.861 107.379 328.624ZM80.0843 328.269 80.2087 328.624C79.49 328.861 78.9581 329.323 78.6126 330.009 78.2671 330.695 78.0943 331.557 78.0943 332.595 78.0943 333.67 78.2671 334.556 78.6126 335.253 78.9581 335.95 79.4853 336.417 80.1952 336.653L80.0843 337.008C79.1845 336.772 78.4953 336.262 78.0159 335.481 77.5371 334.699 77.2972 333.753 77.2972 332.641 77.2972 331.532 77.5377 330.586 78.0183 329.801 78.4988 329.017 79.1875 328.506 80.0843 328.269Z" fill="#FFFFFF" fill-rule="evenodd" transform="matrix(1.00092 0 0 1 -77.4071 -5.37028)"/><text fill="#FFFFFF" font-family="Cambria Math,Cambria Math_MSFontService,sans-serif" font-weight="400" font-size="16" transform="matrix(0.590166 0 0 0.589623 3.05021 330)">𝑁</text><text fill="#FFFFFF" font-family="Cambria Math,Cambria Math_MSFontService,sans-serif" font-weight="400" font-size="12" transform="matrix(0.590166 0 0 0.589623 9.15252 332)">𝑟</text><text fill="#FFFFFF" font-family="Cambria Math,Cambria Math_MSFontService,sans-serif" font-weight="400" font-size="16" transform="matrix(0.590166 0 0 0.589623 15.5027 330)">+</text><text fill="#FFFFFF" font-family="Cambria Math,Cambria Math_MSFontService,sans-serif" font-weight="400" font-size="16" transform="matrix(0.590166 0 0 0.589623 24.6821 330)">1</text><text fill="#FFFFFF" font-family="Cambria Math,Cambria Math_MSFontService,sans-serif" font-weight="400" font-size="16" transform="matrix(0.590166 0 0 0.589623 8.68865 344)">2</text><path d="M66.1185 339.525 77.3213 339.525 88.5242 339.525 99.727 339.525 110.93 339.525 110.93 340.115 99.727 340.115 88.5242 340.115 77.3213 340.115 66.1185 340.115Z" fill="#FFFFFF" fill-rule="evenodd" transform="matrix(1.00092 0 0 1 -77.4071 -5.37028)"/><path d="M209.141 346.042C211.87 348.784 212.677 352.404 210.945 354.129L190.133 374.844C188.4 376.569 189.208 380.189 191.936 382.93 189.208 380.189 185.591 379.365 183.859 381.089L163.047 401.805C161.315 403.53 157.699 402.706 154.97 399.965" stroke="#00B0F0" stroke-width="0.786162" stroke-miterlimit="8" fill="none" fill-rule="evenodd" transform="matrix(1.00092 0 0 1 -77.4071 -5.37028)"/><text fill="#FFFFFF" font-family="Cambria Math,Cambria Math_MSFontService,sans-serif" font-weight="400" font-size="16" transform="matrix(0.590166 0 0 0.589623 115.375 382)">𝑁</text><text fill="#FFFFFF" font-family="Cambria Math,Cambria Math_MSFontService,sans-serif" font-weight="400" font-size="12" transform="matrix(0.590166 0 0 0.589623 121.478 384)">𝑠</text><path d="M498.821 332.072 551.183 332.072 551.183 385.024 498.821 385.024Z" fill="#FFFFFF" transform="matrix(1.00092 0 0 1 -77.4071 -5.37028)"/><path d="M551.183 332.072 649.764 233.491 649.764 286.442 551.183 385.024Z" fill="#CDCDCD" fill-rule="evenodd" transform="matrix(1.00092 0 0 1 -77.4071 -5.37028)"/><path d="M498.821 332.072 597.4 233.491 649.764 233.491 551.183 332.072Z" fill="#FFFFFF" fill-rule="evenodd" transform="matrix(1.00092 0 0 1 -77.4071 -5.37028)"/><path d="M498.821 332.072 597.4 233.491 649.764 233.491 649.764 286.442 551.183 385.024 498.821 385.024ZM498.821 332.072 551.183 332.072 649.764 233.491M551.183 332.072 551.183 385.024" stroke="#000000" stroke-width="1.17925" stroke-miterlimit="8" fill="none" fill-rule="evenodd" transform="matrix(1.00092 0 0 1 -77.4071 -5.37028)"/><path d="M516.509 350.825 533.019 350.825 533.019 384.434 516.509 384.434Z" fill="#83CBEB" transform="matrix(1.00092 0 0 1 -77.4071 -5.37028)"/><path d="M516.509 314.269 568.958 314.269" stroke="#000000" stroke-width="1.17925" stroke-miterlimit="8" fill="none" fill-rule="evenodd" transform="matrix(1.00092 0 0 1 -77.4071 -5.37028)"/><path d="M533.608 297.759 586.057 297.759" stroke="#000000" stroke-width="1.17925" stroke-miterlimit="8" fill="none" fill-rule="evenodd" transform="matrix(1.00092 0 0 1 -77.4071 -5.37028)"/><path d="M550.118 280.66 602.565 280.66" stroke="#000000" stroke-width="1.17925" stroke-miterlimit="8" fill="none" fill-rule="evenodd" transform="matrix(1.00092 0 0 1 -77.4071 -5.37028)"/><path d="M566.038 265.33 618.485 265.33" stroke="#000000" stroke-width="1.17925" stroke-miterlimit="8" fill="none" fill-rule="evenodd" transform="matrix(1.00092 0 0 1 -77.4071 -5.37028)"/><path d="M581.958 248.231 634.404 248.231" stroke="#000000" stroke-width="1.17925" stroke-miterlimit="8" fill="none" fill-rule="evenodd" transform="matrix(1.00092 0 0 1 -77.4071 -5.37028)"/><path d="M508.255 323.113 560.703 323.113" stroke="#000000" stroke-width="1.17925" stroke-miterlimit="8" fill="none" fill-rule="evenodd" transform="matrix(1.00092 0 0 1 -77.4071 -5.37028)"/><path d="M524.174 306.604 576.623 306.604" stroke="#000000" stroke-width="1.17925" stroke-miterlimit="8" fill="none" fill-rule="evenodd" transform="matrix(1.00092 0 0 1 -77.4071 -5.37028)"/><path d="M541.274 289.505 593.721 289.505" stroke="#000000" stroke-width="1.17925" stroke-miterlimit="8" fill="none" fill-rule="evenodd" transform="matrix(1.00092 0 0 1 -77.4071 -5.37028)"/><path d="M558.373 272.406 610.82 272.406" stroke="#000000" stroke-width="1.17925" stroke-miterlimit="8" fill="none" fill-rule="evenodd" transform="matrix(1.00092 0 0 1 -77.4071 -5.37028)"/><path d="M573.703 257.075 626.15 257.075" stroke="#000000" stroke-width="1.17925" stroke-miterlimit="8" fill="none" fill-rule="evenodd" transform="matrix(1.00092 0 0 1 -77.4071 -5.37028)"/><path d="M589.623 241.156 642.07 241.156" stroke="#000000" stroke-width="1.17925" stroke-miterlimit="8" fill="none" fill-rule="evenodd" transform="matrix(1.00092 0 0 1 -77.4071 -5.37028)"/><path d="M568.986 314.858 568.986 367.522" stroke="#000000" stroke-width="1.17925" stroke-miterlimit="8" fill="none" fill-rule="evenodd" transform="matrix(1.00092 0 0 1 -77.4071 -5.37028)"/><path d="M585.495 297.759 585.495 350.423" stroke="#000000" stroke-width="1.17925" stroke-miterlimit="8" fill="none" fill-rule="evenodd" transform="matrix(1.00092 0 0 1 -77.4071 -5.37028)"/><path d="M602.594 280.66 602.594 333.324" stroke="#000000" stroke-width="1.17925" stroke-miterlimit="8" fill="none" fill-rule="evenodd" transform="matrix(1.00092 0 0 1 -77.4071 -5.37028)"/><path d="M618.514 264.741 618.514 317.404" stroke="#000000" stroke-width="1.17925" stroke-miterlimit="8" fill="none" fill-rule="evenodd" transform="matrix(1.00092 0 0 1 -77.4071 -5.37028)"/><path d="M634.434 248.231 634.434 300.895" stroke="#000000" stroke-width="1.17925" stroke-miterlimit="8" fill="none" fill-rule="evenodd" transform="matrix(1.00092 0 0 1 -77.4071 -5.37028)"/><path d="M560.141 323.113 560.141 375.777" stroke="#000000" stroke-width="1.17925" stroke-miterlimit="8" fill="none" fill-rule="evenodd" transform="matrix(1.00092 0 0 1 -77.4071 -5.37028)"/><path d="M576.651 307.193 576.651 359.857" stroke="#000000" stroke-width="1.17925" stroke-miterlimit="8" fill="none" fill-rule="evenodd" transform="matrix(1.00092 0 0 1 -77.4071 -5.37028)"/><path d="M593.16 290.094 593.16 342.758" stroke="#000000" stroke-width="1.17925" stroke-miterlimit="8" fill="none" fill-rule="evenodd" transform="matrix(1.00092 0 0 1 -77.4071 -5.37028)"/><path d="M610.259 272.995 610.259 325.659" stroke="#000000" stroke-width="1.17925" stroke-miterlimit="8" fill="none" fill-rule="evenodd" transform="matrix(1.00092 0 0 1 -77.4071 -5.37028)"/><path d="M626.179 257.075 626.179 309.739" stroke="#000000" stroke-width="1.17925" stroke-miterlimit="8" fill="none" fill-rule="evenodd" transform="matrix(1.00092 0 0 1 -77.4071 -5.37028)"/><path d="M641.509 241.156 641.509 293.82" stroke="#000000" stroke-width="1.17925" stroke-miterlimit="8" fill="none" fill-rule="evenodd" transform="matrix(1.00092 0 0 1 -77.4071 -5.37028)"/><path d="M0 0 98.4275 98.7541" stroke="#000000" stroke-width="1.17925" stroke-miterlimit="8" fill="none" fill-rule="evenodd" transform="matrix(1.00092 0 0 -1 438.988 326.874)"/><path d="M0 0 98.2848 98.4163" stroke="#000000" stroke-width="1.17925" stroke-miterlimit="8" fill="none" fill-rule="evenodd" transform="matrix(1.00092 0 0 -1 456.693 326.537)"/><path d="M0 0 98.1333 98.1657" stroke="#000000" stroke-width="1.17925" stroke-miterlimit="8" fill="none" fill-rule="evenodd" transform="matrix(1.00092 0 0 -1 474.398 345.154)"/><path d="M0 0 98.2848 98.263" stroke="#000000" stroke-width="1.17925" stroke-miterlimit="8" fill="none" fill-rule="evenodd" transform="matrix(1.00092 0 0 -1 474.398 362.94)"/><path d="M499.41 332.547 515.92 332.547 515.92 384.434 499.41 384.434Z" fill="#83CBEB" transform="matrix(1.00092 0 0 1 -77.4071 -5.37028)"/><text font-family="Cambria Math,Cambria Math_MSFontService,sans-serif" font-weight="400" font-size="16" transform="matrix(0.590166 0 0 0.589623 426.286 357)">𝑎</text><text font-family="Cambria Math,Cambria Math_MSFontService,sans-serif" font-weight="400" font-size="12" transform="matrix(0.590166 0 0 0.589623 431.499 358)">2</text><text font-family="Cambria Math,Cambria Math_MSFontService,sans-serif" font-weight="400" font-size="16" transform="matrix(0.590166 0 0 0.589623 426.521 373)">𝑎</text><text font-family="Cambria Math,Cambria Math_MSFontService,sans-serif" font-weight="400" font-size="12" transform="matrix(0.590166 0 0 0.589623 431.733 376)">3</text><text font-family="Cambria Math,Cambria Math_MSFontService,sans-serif" font-weight="400" font-size="16" transform="matrix(0.590166 0 0 0.589623 443.066 357)">𝑎</text><text font-family="Cambria Math,Cambria Math_MSFontService,sans-serif" font-weight="400" font-size="12" transform="matrix(0.590166 0 0 0.589623 448.279 358)">5</text><text font-family="Cambria Math,Cambria Math_MSFontService,sans-serif" font-weight="400" font-size="16" transform="matrix(0.590166 0 0 0.589623 443.301 373)">𝑎</text><text font-family="Cambria Math,Cambria Math_MSFontService,sans-serif" font-weight="400" font-size="12" transform="matrix(0.590166 0 0 0.589623 448.514 376)">6</text><path d="M533.608 367.924 550.708 367.924 550.708 384.434 533.608 384.434Z" fill="#83CBEB" transform="matrix(1.00092 0 0 1 -77.4071 -5.37028)"/><text font-family="Cambria Math,Cambria Math_MSFontService,sans-serif" font-weight="400" font-size="16" transform="matrix(0.590166 0 0 0.589623 459.789 373)">𝑎</text><text font-family="Cambria Math,Cambria Math_MSFontService,sans-serif" font-weight="400" font-size="12" transform="matrix(0.590166 0 0 0.589623 465.003 376)">𝐾</text><text font-family="Cambria Math,Cambria Math_MSFontService,sans-serif" font-weight="400" font-size="16" transform="matrix(0.590166 0 0 0.589623 426.329 339)">𝑎</text><text font-family="Cambria Math,Cambria Math_MSFontService,sans-serif" font-weight="400" font-size="12" transform="matrix(0.590166 0 0 0.589623 431.322 341)">1</text><path d="M551.256 350.825 498.821 350.825" stroke="#000000" stroke-width="1.17925" stroke-miterlimit="8" fill="none" fill-rule="evenodd" transform="matrix(1.00092 0 0 1 -77.4071 -5.37028)"/><path d="M516.509 331.958 516.509 384.608" stroke="#000000" stroke-width="1.17925" stroke-miterlimit="8" fill="none" fill-rule="evenodd" transform="matrix(1.00092 0 0 1 -77.4071 -5.37028)"/><path d="M551.256 367.924 498.821 367.924" stroke="#000000" stroke-width="1.17925" stroke-miterlimit="8" fill="none" fill-rule="evenodd" transform="matrix(1.00092 0 0 1 -77.4071 -5.37028)"/><path d="M533.019 331.958 533.019 384.608" stroke="#000000" stroke-width="1.17925" stroke-miterlimit="8" fill="none" fill-rule="evenodd" transform="matrix(1.00092 0 0 1 -77.4071 -5.37028)"/><path d="M650.035 287.334C652.765 290.075 653.573 293.695 651.84 295.42L609.08 337.982C607.347 339.706 608.154 343.326 610.884 346.067 608.154 343.326 604.54 342.502 602.807 344.226L560.049 386.788C558.317 388.513 554.7 387.689 551.972 384.947" stroke="#00B0F0" stroke-width="0.786162" stroke-miterlimit="8" fill="none" fill-rule="evenodd" transform="matrix(1.00092 0 0 1 -77.4071 -5.37028)"/><path d="M498.526 384.139C495.269 384.139 492.63 382.47 492.63 380.413L492.63 362.217C492.63 360.159 489.99 358.491 486.733 358.491 489.99 358.491 492.63 356.822 492.63 354.764L492.63 336.568C492.63 334.511 495.269 332.842 498.526 332.842" stroke="#00B0F0" stroke-width="0.786162" stroke-miterlimit="8" fill="none" fill-rule="evenodd" transform="matrix(1.00092 0 0 1 -77.4071 -5.37028)"/><path d="M551.592 385.318C551.592 388.412 550.007 390.92 548.052 390.92L528.599 390.92C526.644 390.92 525.059 393.427 525.059 396.521 525.059 393.427 523.474 390.92 521.519 390.92L502.066 390.92C500.111 390.92 498.526 388.412 498.526 385.318" stroke="#00B0F0" stroke-width="0.786162" stroke-miterlimit="8" fill="none" fill-rule="evenodd" transform="matrix(1.00092 0 0 1 -77.4071 -5.37028)"/><text fill="#FFFFFF" font-family="Cambria Math,Cambria Math_MSFontService,sans-serif" font-weight="400" font-size="16" transform="matrix(0.590166 0 0 0.589623 397.915 354)">𝑁</text><text fill="#FFFFFF" font-family="Cambria Math,Cambria Math_MSFontService,sans-serif" font-weight="400" font-size="12" transform="matrix(0.590166 0 0 0.589623 404.018 355)">𝑟</text><text fill="#FFFFFF" font-family="Cambria Math,Cambria Math_MSFontService,sans-serif" font-weight="400" font-size="16" transform="matrix(0.590166 0 0 0.589623 442.721 399)">𝑁</text><text fill="#FFFFFF" font-family="Cambria Math,Cambria Math_MSFontService,sans-serif" font-weight="400" font-size="12" transform="matrix(0.590166 0 0 0.589623 448.823 400)">𝑐</text><text fill="#FFFFFF" font-family="Cambria Math,Cambria Math_MSFontService,sans-serif" font-weight="400" font-size="16" transform="matrix(0.590166 0 0 0.589623 534.453 348)">𝑁</text><text fill="#FFFFFF" font-family="Cambria Math,Cambria Math_MSFontService,sans-serif" font-weight="400" font-size="12" transform="matrix(0.590166 0 0 0.589623 540.555 350)">𝑠</text></g></svg>